<svg width="36" height="36" viewBox="0 0 36 36" fill="none" xmlns="http://www.w3.org/2000/svg">
<path d="M29.9612 1.60777C29.7742 0.672919 28.9534 0 28 0C27.0466 0 26.2258 0.672919 26.0388 1.60777L25.5618 3.99289C25.4035 4.78461 24.7846 5.40347 23.9929 5.56182L21.6078 6.03884C20.6729 6.22581 20 7.04664 20 8C20 8.95336 20.6729 9.77419 21.6078 9.96116L23.9929 10.4382C24.7846 10.5965 25.4035 11.2154 25.5618 12.0071L26.0388 14.3922C26.2258 15.3271 27.0466 16 28 16C28.9534 16 29.7742 15.3271 29.9612 14.3922L30.4382 12.0071C30.5965 11.2154 31.2154 10.5965 32.0071 10.4382L34.3922 9.96116C35.3271 9.77419 36 8.95336 36 8C36 7.04664 35.3271 6.22581 34.3922 6.03884L32.0071 5.56182C31.2154 5.40347 30.5965 4.78461 30.4382 3.99289L29.9612 1.60777Z" fill="url(#paint0_linear_4067_21681)"/>
<path d="M11.8974 9.36754C11.6251 8.55086 10.8609 8 10 8C9.13914 8 8.37486 8.55086 8.10263 9.36754L6.73509 13.4702C6.53602 14.0674 6.06739 14.536 5.47018 14.7351L1.36754 16.1026C0.55086 16.3749 0 17.1391 0 18C0 18.8609 0.55086 19.6251 1.36754 19.8974L5.47018 21.2649C6.06739 21.464 6.53602 21.9326 6.73509 22.5298L8.10263 26.6325C8.37486 27.4491 9.13914 28 10 28C10.8609 28 11.6251 27.4491 11.8974 26.6325L13.2649 22.5298C13.464 21.9326 13.9326 21.464 14.5298 21.2649L18.6325 19.8974C19.4491 19.6251 20 18.8609 20 18C20 17.1391 19.4491 16.3749 18.6325 16.1026L14.5298 14.7351C13.9326 14.536 13.464 14.0674 13.2649 13.4702L11.8974 9.36754Z" fill="url(#paint1_linear_4067_21681)"/>
<path d="M25.8974 25.3675C25.6251 24.5509 24.8609 24 24 24C23.1391 24 22.3749 24.5509 22.1026 25.3675L21.7351 26.4702C21.536 27.0674 21.0674 27.536 20.4702 27.7351L19.3675 28.1026C18.5509 28.3749 18 29.1391 18 30C18 30.8609 18.5509 31.6251 19.3675 31.8974L20.4702 32.2649C21.0674 32.464 21.536 32.9326 21.7351 33.5298L22.1026 34.6325C22.3749 35.4491 23.1391 36 24 36C24.8609 36 25.6251 35.4491 25.8974 34.6325L26.2649 33.5298C26.464 32.9326 26.9326 32.464 27.5298 32.2649L28.6325 31.8974C29.4491 31.6251 30 30.8609 30 30C30 29.1391 29.4491 28.3749 28.6325 28.1026L27.5298 27.7351C26.9326 27.536 26.464 27.0674 26.2649 26.4702L25.8974 25.3675Z" fill="url(#paint2_linear_4067_21681)"/>
<defs>
<linearGradient id="paint0_linear_4067_21681" x1="18" y1="0" x2="18" y2="36" gradientUnits="userSpaceOnUse">
<stop stop-color="#1DB954"/>
<stop offset="1" stop-color="#0D5326"/>
</linearGradient>
<linearGradient id="paint1_linear_4067_21681" x1="18" y1="0" x2="18" y2="36" gradientUnits="userSpaceOnUse">
<stop stop-color="#1DB954"/>
<stop offset="1" stop-color="#0D5326"/>
</linearGradient>
<linearGradient id="paint2_linear_4067_21681" x1="18" y1="0" x2="18" y2="36" gradientUnits="userSpaceOnUse">
<stop stop-color="#1DB954"/>
<stop offset="1" stop-color="#0D5326"/>
</linearGradient>
</defs>
</svg>
