<svg width="18" height="18" viewBox="0 0 18 18" fill="none" xmlns="http://www.w3.org/2000/svg">
<g clip-path="url(#clip0_5795_155949)">
<path d="M16.418 0H1.58203C0.709699 0 0 0.709699 0 1.58203V6.50391C0 7.37624 0.709699 8.08594 1.58203 8.08594H7.41797V10.9261L6.20719 12.1369C5.62774 12.7163 5.30859 13.4868 5.30859 14.3063C5.30859 15.1174 5.63857 15.9106 6.21387 16.4824L7.51043 17.771C7.60549 17.9093 7.76482 18 7.94531 18H14.9766C15.0907 18 15.2017 17.963 15.293 17.8945C16.3056 17.135 16.9102 15.9259 16.9102 14.6602V12.1992C16.9102 11.3269 16.2005 10.6172 15.3281 10.6172C15.0774 10.6172 14.8402 10.6758 14.6293 10.7801C14.3676 10.2665 13.8336 9.91406 13.2188 9.91406C12.8142 9.91406 12.4448 10.0669 12.1647 10.3176C11.8847 10.0668 11.515 9.91406 11.1095 9.91406C10.9245 9.91406 10.7471 9.94612 10.582 10.0045V8.08594H16.418C17.2903 8.08594 18 7.37624 18 6.50391V1.58203C18 0.709699 17.2903 0 16.418 0ZM11.1095 10.9688C11.3993 10.9688 11.6343 11.2025 11.6368 11.4917C11.6368 11.4932 11.6367 11.4946 11.6367 11.4961V12.9023C11.6366 13.1936 11.8727 13.4297 12.1639 13.4297H12.1641C12.4552 13.4297 12.6913 13.1936 12.6914 12.9025L12.6918 11.4967C12.6918 11.495 12.6916 11.4933 12.6916 11.4916C12.6941 11.2029 12.9295 10.9688 13.2188 10.9688C13.5095 10.9688 13.7461 11.2053 13.7461 11.4961V12.9023C13.7461 13.1936 13.9822 13.4297 14.2734 13.4297C14.5647 13.4297 14.8008 13.1936 14.8008 12.9023V12.1992C14.8008 11.9084 15.0373 11.6719 15.3281 11.6719C15.6189 11.6719 15.8555 11.9084 15.8555 12.1992V14.6602C15.8555 15.5391 15.4611 16.3811 14.7927 16.9453H8.1758L6.95739 15.7344C6.57981 15.3591 6.36328 14.8386 6.36328 14.3063C6.36328 13.7685 6.57271 13.2629 6.95296 12.8827L7.41797 12.4176V14.3086C7.41797 14.5998 7.65408 14.8359 7.94531 14.8359C8.23655 14.8359 8.47266 14.5998 8.47266 14.3086V7.98047C8.47266 7.68969 8.70922 7.45312 9 7.45312C9.29078 7.45312 9.52734 7.68969 9.52734 7.98047V12.9024C9.52734 13.2021 9.77738 13.4434 10.0802 13.4291C10.3639 13.4157 10.5821 13.1714 10.582 12.8875V11.4951C10.5827 11.2043 10.8186 10.9688 11.1095 10.9688ZM16.9453 6.50391C16.9453 6.79468 16.7087 7.03125 16.418 7.03125H10.2648C9.97587 6.64724 9.51648 6.39844 9.00004 6.39844C8.48359 6.39844 8.0242 6.64724 7.73525 7.03125H1.58203C1.29125 7.03125 1.05469 6.79468 1.05469 6.50391V1.58203C1.05469 1.29125 1.29125 1.05469 1.58203 1.05469H16.418C16.7087 1.05469 16.9453 1.29125 16.9453 1.58203V6.50391Z" fill="black"/>
<path d="M13.204 3.80802C13.29 3.65249 13.3391 3.47382 13.3391 3.28387C13.3391 2.68471 12.8517 2.19727 12.2525 2.19727H11.4355C11.1929 2.19727 10.9961 2.39404 10.9961 2.63672V5.44922C10.9961 5.56611 11.0427 5.67819 11.1255 5.76063C11.2079 5.84265 11.3194 5.88867 11.4355 5.88867H11.4375C11.4376 5.88867 12.1882 5.88533 12.3952 5.88533C13.0549 5.88533 13.5917 5.34857 13.5917 4.68882C13.5917 4.34067 13.4421 4.02687 13.204 3.80802ZM11.875 3.07617H12.2525C12.367 3.07617 12.4602 3.16934 12.4602 3.28387C12.4602 3.39841 12.367 3.49158 12.2525 3.49158C12.193 3.49158 12.0813 3.49189 11.9593 3.49232H11.875V3.07617ZM12.3952 5.00643C12.2975 5.00643 12.079 5.00716 11.875 5.00794V4.37154C11.9029 4.37143 11.9307 4.37133 11.9581 4.37122H12.3952C12.5703 4.37122 12.7128 4.51371 12.7128 4.68879C12.7128 4.86397 12.5703 5.00643 12.3952 5.00643Z" fill="black"/>
<path d="M10.0305 2.19727C9.78775 2.19727 9.59102 2.39404 9.59102 2.63672V4.57C9.59102 4.68633 9.55678 4.82249 9.30274 4.95039C9.22314 4.99047 9.1349 5.00945 9.03636 5.00973C8.92945 5.00959 8.83713 4.98371 8.75398 4.93056C8.55465 4.80322 8.51562 4.70268 8.51562 4.572V2.63672C8.51562 2.39404 8.31886 2.19727 8.07617 2.19727C7.83345 2.19727 7.63672 2.39404 7.63672 2.63672V4.57204C7.63672 5.0284 7.85342 5.39824 8.28071 5.67123C8.50589 5.8152 8.75975 5.88836 9.0352 5.88871H9.03734C9.27377 5.88871 9.4961 5.83713 9.698 5.73543C10.1957 5.4848 10.4699 5.07094 10.4699 4.57007V2.63672C10.4699 2.39404 10.2732 2.19727 10.0305 2.19727Z" fill="black"/>
<path d="M6.21939 3.65594C5.89036 3.53458 5.58295 3.40275 5.47281 3.35469C5.4424 3.32519 5.43976 3.28817 5.44374 3.26044C5.45365 3.19132 5.51233 3.13574 5.60472 3.10789C5.93388 3.00872 6.18346 3.17146 6.23352 3.20795C6.36335 3.36886 6.5932 3.42015 6.78234 3.31915C6.99641 3.20478 7.07724 2.93855 6.96287 2.72448C6.81135 2.44084 6.12429 2.03348 5.3512 2.26636C4.93042 2.3931 4.63251 2.72617 4.57372 3.13556C4.51828 3.52179 4.6858 3.89342 5.01093 4.10538C5.03033 4.118 5.05072 4.12911 5.07185 4.13853C5.0882 4.14585 5.47727 4.31903 5.91518 4.48057C6.07929 4.54114 6.2473 4.64731 6.22649 4.76382C6.20877 4.863 6.0685 5.00978 5.8236 5.00978C5.56931 5.00978 5.32547 4.90824 5.17134 4.73816C5.00836 4.5583 4.73042 4.54466 4.55063 4.70761C4.37077 4.87059 4.35709 5.1485 4.52008 5.32833C4.84277 5.68442 5.31788 5.88865 5.8236 5.88865C6.45799 5.88865 6.99131 5.48055 7.09172 4.91826C7.16794 4.49171 6.97876 3.93607 6.21939 3.65594Z" fill="black"/>
</g>
<defs>
<clipPath id="clip0_5795_155949">
<rect width="18" height="18" fill="white"/>
</clipPath>
</defs>
</svg>
