<svg width="18" height="18" viewBox="0 0 18 18" fill="none" xmlns="http://www.w3.org/2000/svg">
<mask id="mask0_5795_155957" style="mask-type:luminance" maskUnits="userSpaceOnUse" x="0" y="0" width="18" height="18">
<path d="M0 1.90735e-06H18V18H0V1.90735e-06Z" fill="white"/>
</mask>
<g mask="url(#mask0_5795_155957)">
<path fill-rule="evenodd" clip-rule="evenodd" d="M2.7164 16.688C2.81529 16.8273 2.97559 16.9102 3.14649 16.9102H14.8535C15.0244 16.9102 15.1847 16.8273 15.2836 16.688L17.9027 12.9966C18.0191 12.8325 18.0321 12.6166 17.9361 12.4398L11.9244 1.3656C11.8321 1.19566 11.6543 1.08984 11.4609 1.08984H6.53906C6.34571 1.08984 6.16785 1.19566 6.07561 1.3656L0.0638873 12.4398C-0.0320689 12.6166 -0.0191237 12.8325 0.0972614 12.9966L2.7164 16.688ZM3.41892 15.8555L1.14756 12.6542L6.85283 2.14453H11.1472L16.8524 12.6542L14.5811 15.8555H3.41892Z" fill="black"/>
<path fill-rule="evenodd" clip-rule="evenodd" d="M4.76172 12.6914C4.76172 12.9827 4.99782 13.2188 5.28906 13.2188H17.4714C17.7626 13.2188 17.9987 12.9827 17.9987 12.6914C17.9987 12.4002 17.7626 12.1641 17.4714 12.1641H5.28906C4.99782 12.1641 4.76172 12.4002 4.76172 12.6914Z" fill="black"/>
<path fill-rule="evenodd" clip-rule="evenodd" d="M12.9665 13.152C13.2209 13.0102 13.3122 12.689 13.1704 12.4346L6.99982 1.36041C6.85805 1.10599 6.53689 1.01467 6.28248 1.15643C6.02806 1.29819 5.93674 1.61936 6.0785 1.87377L12.2491 12.948C12.3909 13.2024 12.7121 13.2937 12.9665 13.152Z" fill="black"/>
<path fill-rule="evenodd" clip-rule="evenodd" d="M2.82232 16.7457C3.07697 16.887 3.39798 16.7951 3.53931 16.5405L9.34477 6.07998C9.4861 5.82532 9.39423 5.50431 9.13958 5.36298C8.88492 5.22165 8.56392 5.31352 8.42259 5.56817L2.61713 16.0287C2.4758 16.2833 2.56767 16.6043 2.82232 16.7457Z" fill="black"/>
</g>
</svg>
