<svg width="16" height="18" viewBox="0 0 16 18" fill="none" xmlns="http://www.w3.org/2000/svg">
<path fill-rule="evenodd" clip-rule="evenodd" d="M2.46484 13.5693C2.46484 13.3752 2.62224 13.2178 2.81641 13.2178H5.73568C5.92984 13.2178 6.08724 13.3752 6.08724 13.5693V15.5038C6.08724 15.698 5.92984 15.8554 5.73568 15.8554H2.81641C2.62224 15.8554 2.46484 15.698 2.46484 15.5038V13.5693ZM3.16797 13.9209V15.1523H5.38411V13.9209H3.16797Z" fill="black"/>
<path fill-rule="evenodd" clip-rule="evenodd" d="M10.5781 13.5693C10.5781 13.3752 10.7355 13.2178 10.9297 13.2178H13.849C14.0432 13.2178 14.2006 13.3752 14.2006 13.5693V15.5038C14.2006 15.698 14.0432 15.8554 13.849 15.8554H10.9297C10.7355 15.8554 10.5781 15.698 10.5781 15.5038V13.5693ZM11.2812 13.9209V15.1523H13.4974V13.9209H11.2812Z" fill="black"/>
<path fill-rule="evenodd" clip-rule="evenodd" d="M5.29906 10.2782C5.40003 10.2263 5.51988 10.2263 5.62085 10.2782L6.89765 10.9354L8.17447 10.2782C8.27544 10.2263 8.39528 10.2263 8.49624 10.2782L9.77311 10.9354L11.0499 10.2782C11.1509 10.2263 11.2707 10.2263 11.3717 10.2782L12.6487 10.9354L13.6525 10.4188C13.8252 10.33 14.0372 10.3979 14.126 10.5706C14.2148 10.7432 14.1469 10.9552 13.9743 11.044L12.8096 11.6434C12.7087 11.6953 12.5888 11.6953 12.4879 11.6434L11.2108 10.9862L9.93399 11.6434C9.83303 11.6953 9.71319 11.6953 9.61223 11.6434L8.33536 10.9862L7.05853 11.6434C6.95756 11.6953 6.83772 11.6953 6.73676 11.6434L5.45997 10.9862L4.18336 11.6434C4.08239 11.6953 3.96254 11.6953 3.86157 11.6434L2.67121 11.0307C2.49857 10.9418 2.43066 10.7298 2.51952 10.5572C2.60838 10.3846 2.82036 10.3166 2.993 10.4055L4.02245 10.9354L5.29906 10.2782Z" fill="black"/>
<path fill-rule="evenodd" clip-rule="evenodd" d="M13.8463 7.43604C13.3798 7.43604 12.9876 7.7574 12.8805 8.19128C12.8339 8.37979 12.6434 8.49488 12.4549 8.44834C12.2664 8.40181 12.1513 8.21127 12.1978 8.02277C12.3806 7.2823 13.0488 6.73291 13.8463 6.73291H13.8497C14.7874 6.73291 15.5475 7.49306 15.5475 8.43075V10.9305C15.5475 11.1247 15.3901 11.2821 15.196 11.2821H14.9997C14.536 11.2821 14.0971 11.1711 13.7093 10.974C13.5362 10.886 13.4672 10.6743 13.5552 10.5013C13.6432 10.3282 13.8548 10.2592 14.0279 10.3472C14.2759 10.4732 14.5517 10.5526 14.8444 10.5735V8.43075C14.8444 7.88139 14.3991 7.43604 13.8497 7.43604H13.8463Z" fill="black"/>
<path fill-rule="evenodd" clip-rule="evenodd" d="M4.4673 0.898926C4.4673 0.704763 4.6247 0.547363 4.81886 0.547363H4.99443C6.13205 0.547363 7.07744 1.36955 7.26728 2.45233C7.28952 2.49845 7.30198 2.55018 7.30198 2.60481V7.89347C7.30198 8.08764 7.14458 8.24504 6.95042 8.24504H1.65283C0.988524 8.24504 0.449219 7.70707 0.449219 7.04252V5.94307C0.449219 5.34224 0.89006 4.84488 1.46555 4.75503V4.18055C1.46555 3.11571 2.32973 2.25325 3.39486 2.25325H4.4673V0.898926ZM6.59886 2.70842C6.59297 2.6893 6.58866 2.66944 6.58607 2.64898C6.49352 1.91816 5.90688 1.34025 5.17042 1.26002V2.60481C5.17042 2.79897 5.01302 2.95637 4.81886 2.95637H3.39486C2.71722 2.95637 2.16868 3.50487 2.16868 4.18055V5.09212C2.16868 5.28628 2.01128 5.44368 1.81711 5.44368H1.65283C1.376 5.44368 1.15234 5.66769 1.15234 5.94307V7.04252C1.15234 7.3179 1.376 7.54191 1.65283 7.54191H6.59886V2.70842Z" fill="black"/>
<path fill-rule="evenodd" clip-rule="evenodd" d="M2.46484 7.89355C2.46484 7.69939 2.62224 7.54199 2.81641 7.54199H11.5289C13.0103 7.54199 14.2112 8.74286 14.2112 10.2242V13.5694C14.2112 13.7636 14.0538 13.921 13.8596 13.921H2.81641C2.62224 13.921 2.46484 13.7636 2.46484 13.5694V7.89355ZM3.16797 8.24512V13.2179H13.5081V10.2242C13.5081 9.13119 12.622 8.24512 11.5289 8.24512H3.16797Z" fill="black"/>
<path fill-rule="evenodd" clip-rule="evenodd" d="M2.46484 13.5693C2.46484 13.3752 2.62224 13.2178 2.81641 13.2178H5.73568C5.92984 13.2178 6.08724 13.3752 6.08724 13.5693V16.204C6.08724 17.1958 5.28324 17.9998 4.29146 17.9998H2.81641C2.62224 17.9998 2.46484 17.8424 2.46484 17.6482V13.5693ZM3.16797 13.9209V17.2967H4.29146C4.89492 17.2967 5.38411 16.8075 5.38411 16.204V13.9209H3.16797Z" fill="black"/>
<path fill-rule="evenodd" clip-rule="evenodd" d="M10.5781 13.5693C10.5781 13.3752 10.7355 13.2178 10.9297 13.2178H13.849C14.0431 13.2178 14.2005 13.3752 14.2005 13.5693V17.6482C14.2005 17.8424 14.0431 17.9998 13.849 17.9998H12.3739C11.3821 17.9998 10.5781 17.1958 10.5781 16.204V13.5693ZM11.2812 13.9209V16.204C11.2812 16.8075 11.7704 17.2967 12.3739 17.2967H13.4974V13.9209H11.2812Z" fill="black"/>
<path fill-rule="evenodd" clip-rule="evenodd" d="M3.875 4.2251C4.06916 4.2251 4.22656 4.3825 4.22656 4.57666V5.05844C4.22656 5.2526 4.06916 5.41 3.875 5.41C3.68084 5.41 3.52344 5.2526 3.52344 5.05844V4.57666C3.52344 4.3825 3.68084 4.2251 3.875 4.2251Z" fill="black"/>
<path d="M5.75781 12.2002C5.75781 12.3944 5.60041 12.5518 5.40625 12.5518C5.21209 12.5518 5.05469 12.3944 5.05469 12.2002C5.05469 12.006 5.21209 11.8486 5.40625 11.8486C5.60041 11.8486 5.75781 12.006 5.75781 12.2002Z" fill="black"/>
<path d="M8.6875 12.2002C8.6875 12.3944 8.5301 12.5518 8.33594 12.5518C8.14177 12.5518 7.98438 12.3944 7.98438 12.2002C7.98438 12.006 8.14177 11.8486 8.33594 11.8486C8.5301 11.8486 8.6875 12.006 8.6875 12.2002Z" fill="black"/>
<path d="M11.6719 12.2002C11.6719 12.3944 11.5145 12.5518 11.3203 12.5518C11.1261 12.5518 10.9688 12.3944 10.9688 12.2002C10.9688 12.006 11.1261 11.8486 11.3203 11.8486C11.5145 11.8486 11.6719 12.006 11.6719 12.2002Z" fill="black"/>
<path fill-rule="evenodd" clip-rule="evenodd" d="M4.82031 1.41113C5.01448 1.41113 5.17188 1.56853 5.17188 1.7627V3.53995C5.17188 3.73411 5.01448 3.89151 4.82031 3.89151C4.62615 3.89151 4.46875 3.73411 4.46875 3.53995V1.7627C4.46875 1.56853 4.62615 1.41113 4.82031 1.41113Z" fill="black"/>
</svg>
