<svg width="2389" height="676" viewBox="0 0 2389 676" fill="none" xmlns="http://www.w3.org/2000/svg">
<path d="M481.8 10.1996C480.8 12.0996 483.7 220 483.7 220C457.9 219 432.1 218 406.3 217C399.2 214.6 392.1 212.1 385.1 209.7C400.3 174.4 415.5 139 430.7 103.7L448.6 40.9996L481.8 10.0996V10.1996Z" fill="url(#paint0_linear_1868_6584)"/>
<path d="M484.1 492.4C482.8 549.4 481.6 606.4 480.3 663.4C460 655 439.6 646.5 419.3 638.1C411.2 590.2 403.2 542.4 395.1 494.5C424.8 493.8 454.4 493.1 484.1 492.4C482.8 549.4 481.6 606.4 480.3 663.4C501.3 655.3 522.3 647.2 543.3 639.1C551.4 591.2 559.4 543.4 567.5 495.5C539.7 494.5 511.9 493.4 484.1 492.4Z" fill="url(#paint1_linear_1868_6584)"/>
<path d="M321.4 356.5L340 348.4L395.1 494.4L336.4 532.9L330.1 432.9L283 420.5L321.4 356.5Z" fill="url(#paint2_linear_1868_6584)"/>
<path d="M261.6 442.1C265.4 438.2 269.3 434.3 273.1 430.4C278.2 425.2 283.2 420.1 288.3 414.9C318.8 426.8 334 432.8 334.1 432.9L336.5 532.9C333.6 536.4 330.6 539.9 327.5 543.5C323.3 548.4 319.1 553.1 314.9 557.6C297.1 519.1 279.4 480.6 261.6 442V442.1Z" fill="url(#paint3_linear_1868_6584)"/>
<path d="M154.7 528.4L288.7 584C292.6 580.3 296.6 576.4 300.7 572.4C305.7 567.5 310.4 562.6 314.8 557.7C297 519.2 279.3 480.7 261.5 442.1C246.7 455.8 230.7 469.8 213.3 483.9C193.1 500.3 173.4 515.1 154.6 528.4H154.7Z" fill="url(#paint4_linear_1868_6584)"/>
<path d="M488 249.6C464.2 249.7 440.4 249.8 416.7 249.9C417.6 239.7 418.5 229.6 419.4 219.4C424.3 209.1 428 200.6 430.4 194.7C436.9 179.4 443.5 161.9 443.5 161.8L482 156.9C484 187.8 486 218.6 488 249.5V249.6Z" fill="url(#paint5_linear_1868_6584)"/>
<path d="M417.5 246C418 243.7 419.3 219.4 419.3 219.4L387.2 205.9C381.9 214.8 376 224.1 369.6 233.6C363.2 243 356.9 251.8 350.6 259.9L390.7 281.3L417.5 246Z" fill="url(#paint6_linear_1868_6584)"/>
<path d="M350.6 259.9L390.7 281.3L339.9 348.3L321.4 356.5L307.7 310C314.9 302 322.2 294 329.4 286C336.5 277.3 343.6 268.6 350.6 260V259.9Z" fill="url(#paint7_linear_1868_6584)"/>
<path d="M448.6 47.7L466.4 29.6L480 27.5L486.3 59.7L448.6 47.7Z" fill="url(#paint8_linear_1868_6584)"/>
<path d="M448.6 47.7002L481.8 77.9002L479.1 99.1002C462.3 105.3 445.6 111.5 428.8 117.7C433 104.1 437.3 90.5002 441.5 77.0002C443.9 67.3002 446.2 57.5002 448.6 47.8002V47.7002Z" fill="url(#paint9_linear_1868_6584)"/>
<path d="M241.2 253C257 252.3 272.8 251.7 288.7 251C272.5 264.5 252.4 279.3 228.1 293.4C208.9 304.5 190.6 313 174.3 319.5C196.6 297.3 219 275.2 241.3 253H241.2Z" fill="url(#paint10_linear_1868_6584)"/>
<path d="M315.4 179.4L322 220C317 225.1 311.7 230.4 305.9 235.8C300 241.3 294.3 246.3 288.6 251C272.8 251.7 257 252.3 241.1 253L315.3 179.4H315.4Z" fill="url(#paint11_linear_1868_6584)"/>
<path d="M29.2 463.4L152.6 340.9L144 421.8C128.9 429.6 111.7 437.4 92.4 444.6C69.5 453.1 48.1999 459.1 29.2999 463.3L29.2 463.4Z" fill="url(#paint12_linear_1868_6584)"/>
<path d="M227.7 308.5L211.1 383C200.5 390.2 188.8 397.5 176.2 404.8C165.1 411.2 154.3 416.9 143.9 422L152.5 341.1C163.9 337.5 176.2 333.1 189.2 327.5C203.5 321.4 216.3 314.9 227.6 308.6L227.7 308.5Z" fill="url(#paint13_linear_1868_6584)"/>
<path d="M238 302.599C238.6 302.299 297.5 311.199 297.5 311.199C284.9 323.999 270.4 337.399 254 350.999C239.2 363.199 224.8 373.799 211.2 382.999L227.8 308.499L238.1 302.699L238 302.599Z" fill="url(#paint14_linear_1868_6584)"/>
<path d="M238 302.6C252 294.2 267.1 284.1 282.8 272.1C297.7 260.7 310.7 249.4 322 238.6L343.9 258C337.7 266.2 330.9 274.8 323.3 283.6C314.5 293.8 305.8 302.9 297.5 311.1L238 302.5V302.6Z" fill="url(#paint15_linear_1868_6584)"/>
<path d="M322 238.6C327.5 232.9 333 227.3 338.5 221.6C343.8 215.5 349.1 209.4 354.3 203.3C371.4 187.8 388.6 172.4 405.7 156.9C397.8 173.7 388.2 192 376.3 211.2C365.4 228.8 354.4 244.4 343.8 258L321.9 238.6H322Z" fill="url(#paint16_linear_1868_6584)"/>
<path d="M404.1 123L414.2 137.5C412.7 141.1 411.2 144.7 409.6 148.4C408.3 151.3 407 154.2 405.7 157L354.3 203.4C362.9 192.8 371.9 180.5 380.8 166.3C390.4 150.9 398.1 136.3 404.1 123Z" fill="url(#paint17_linear_1868_6584)"/>
<path d="M423.5 72.0996L440.1 55.5996C436.9 69.5996 432.9 84.5996 427.8 100.4C423.5 113.7 418.9 126 414.2 137.4L404.1 122.9C407.6 115.2 411.1 107 414.5 98.0996C418 88.9996 420.9 80.1996 423.5 71.9996V72.0996Z" fill="url(#paint18_linear_1868_6584)"/>
<path d="M403.2 92.2998L315.5 179.4L322.1 220C336.1 205.6 352.2 186.8 367.5 163.2C384.4 137.1 395.7 112.4 403.3 92.2998H403.2Z" fill="url(#paint19_linear_1868_6584)"/>
<path d="M20 472.5C42.3 467.8 60.2 462.2 73 457.8C100.5 448.3 132 434.3 132.1 434.7C131.8 435.3 150.3 515.6 150.3 515.6L140.2 522.3L20 472.5Z" fill="url(#paint20_linear_1868_6584)"/>
<path d="M132.1 434.7C142.1 430.1 152.5 425 163.3 419.3C173.2 414 182.5 408.7 191.1 403.4L252.2 432.8C237.1 447.5 219.9 462.9 200.6 478.4C183.2 492.4 166.3 504.7 150.2 515.5L132 434.6L132.1 434.7Z" fill="url(#paint21_linear_1868_6584)"/>
<path d="M191.1 403.501C203.4 396.001 216.4 387.501 229.8 377.801C243.3 368.001 255.6 358.201 266.6 348.801L273.2 411.601L252.2 432.901L191.1 403.501Z" fill="url(#paint22_linear_1868_6584)"/>
<path d="M266.6 348.8C272.4 343.8 278.3 338.6 284.3 333C292.7 325.2 300.4 317.5 307.7 310C312.3 325.5 316.9 341 321.4 356.5C312.8 366.5 304.3 376.6 295.7 386.6C281.9 402.1 273.3 411.7 273.1 411.5C273.2 410.7 266.5 348.7 266.5 348.7L266.6 348.8Z" fill="url(#paint23_linear_1868_6584)"/>
<path d="M359.1 613.1L407 632.9L419.8 613.4L374.7 503.5L301.9 589.4L359.1 613.1Z" fill="url(#paint24_linear_1868_6584)"/>
<path d="M374.7 503.5L380.9 494.4L421.9 518.4L419.8 613.4L374.7 503.5Z" fill="url(#paint25_linear_1868_6584)"/>
<path d="M480.8 11.2C481.8 13.1 478.9 221 478.9 221C502.4 220.8 526 220.6 549.5 220.4C558.9 217.1 568.2 213.9 577.6 210.6C562.4 175.3 547.2 139.9 532 104.6L514.1 41.9L480.9 11L480.8 11.2Z" fill="url(#paint26_linear_1868_6584)"/>
<path d="M641.1 357.6L622.6 349.4L567.5 495.5L626.2 534L632.5 433.9L679.5 421.5L641.1 357.6Z" fill="url(#paint27_linear_1868_6584)"/>
<path d="M701 443.1C697.2 439.2 693.3 435.3 689.5 431.4C684.4 426.2 679.4 421.1 674.3 415.9C643.8 427.8 628.6 433.8 628.5 433.9L626.1 533.9C629 537.4 632 540.9 635.1 544.5C639.3 549.4 643.5 554.1 647.7 558.6C665.5 520.1 683.2 481.6 701 443V443.1Z" fill="url(#paint28_linear_1868_6584)"/>
<path d="M807.9 529.4L673.9 585C670 581.3 666 577.4 661.9 573.4C656.9 568.5 652.2 563.6 647.8 558.7C665.6 520.2 683.3 481.7 701.1 443.1C715.9 456.8 731.9 470.8 749.3 484.9C769.5 501.3 789.2 516.1 808 529.4H807.9Z" fill="url(#paint29_linear_1868_6584)"/>
<path d="M474.6 250.6C498.4 250.7 522.2 250.8 545.9 250.9C545 240.7 544.1 230.6 543.2 220.4C538.3 210.1 534.6 201.6 532.2 195.7C525.7 180.4 519.1 162.9 519.1 162.8L480.6 157.9C478.6 188.8 476.6 219.6 474.6 250.5V250.6Z" fill="url(#paint30_linear_1868_6584)"/>
<path d="M545 247C544.5 244.7 543.2 220.4 543.2 220.4L575.3 206.9C580.6 215.8 586.5 225.1 592.9 234.6C599.3 244 605.6 252.8 611.9 260.9L571.8 282.3L545 247Z" fill="url(#paint31_linear_1868_6584)"/>
<path d="M611.9 261L571.8 282.4L622.6 349.4L641.1 357.6L654.8 311.1C647.6 303.1 640.3 295.1 633.1 287.1C626 278.4 618.9 269.7 611.9 261.1V261Z" fill="url(#paint32_linear_1868_6584)"/>
<path d="M514 48.6996L496.2 30.5996L482.6 28.5996L476.2 60.7996L514 48.6996Z" fill="url(#paint33_linear_1868_6584)"/>
<path d="M514 48.7002L480.8 78.9002L483.5 100.1C500.3 106.3 517 112.5 533.8 118.7C529.6 105.1 525.3 91.5002 521.1 78.0002C518.7 68.3002 516.4 58.5002 514 48.8002V48.7002Z" fill="url(#paint34_linear_1868_6584)"/>
<path d="M722.9 253.5C706.6 253 690.2 252.5 673.9 252.1C689.9 265.6 710 280.4 734.5 294.5C754.7 306.1 773.9 314.7 790.8 321.2C768.2 298.7 745.6 276.1 722.9 253.6V253.5Z" fill="url(#paint35_linear_1868_6584)"/>
<path d="M647.1 180.4L640.5 221C645.5 226.1 650.8 231.4 656.6 236.8C662.5 242.3 668.2 247.3 673.9 252C690.3 252.8 706.7 253.5 723.1 254.3C697.8 229.7 672.5 205 647.2 180.4H647.1Z" fill="url(#paint36_linear_1868_6584)"/>
<path d="M936.3 464.7C894.2 423.1 852.1 381.5 809.9 339.9C812.8 367.6 815.7 395.3 818.5 422.9C833.5 430.7 850.7 438.5 870.1 445.7C894.2 454.6 916.6 460.6 936.2 464.7H936.3Z" fill="url(#paint37_linear_1868_6584)"/>
<path d="M734.8 309C740.3 334.1 745.9 359.1 751.4 384.2C762.1 391.3 773.7 398.6 786.3 405.8C797.4 412.2 808.2 417.9 818.6 423C816 395.3 813.4 367.6 810.8 339.9C798.9 336.2 786.3 331.7 773.1 326.4C759.2 320.8 746.4 314.9 734.8 309.1V309Z" fill="url(#paint38_linear_1868_6584)"/>
<path d="M724.9 303.5C705 306.4 685 309.3 665.1 312.2C664.9 312.3 664.7 312.4 664.5 312.5C670.1 318.3 677 325.1 685.1 332.5C687.9 335.1 696.3 342.7 708.3 352.4C719.1 361.2 733.5 372.2 751.4 384.2C748.7 372 737.9 322.4 735.2 310.2L735 309.1C731.6 307.2 728.2 305.4 724.9 303.5Z" fill="url(#paint39_linear_1868_6584)"/>
<path d="M725 303.6C710.9 295.3 695.7 285.2 679.8 273.1C664.9 261.7 651.9 250.4 640.6 239.6C633.1 246.2 625.5 252.9 618 259.5C626.5 270.4 633.8 279.1 639.2 285.4C642.5 289.1 645 292 646 293C653.5 301.2 660 307.9 664.8 312.7C684.9 309.7 704.9 306.6 725 303.6Z" fill="url(#paint40_linear_1868_6584)"/>
<path d="M640.6 239.7C635.3 234.6 629.7 229 624.1 222.7C618.6 216.6 613.7 210.7 609.3 205C609.1 204.8 609 204.6 608.8 204.4C590.7 188.2 572.5 172 554.4 155.8C562.6 173.5 572.9 193 585.6 213.4C596.5 230.8 607.5 246.3 618.1 259.8C625.6 253.1 633.1 246.4 640.7 239.7H640.6Z" fill="url(#paint41_linear_1868_6584)"/>
<path d="M558.4 124C554.6 129.1 550.9 134.2 547.1 139.3C548.7 142.9 550.2 146.5 551.8 150.1C552.7 152.1 553.6 154.1 554.5 156C572.4 172.1 590.2 188.2 608.1 204.3C608.3 204.3 608.5 204.3 608.6 204.3C600 193.5 591.1 181.1 582.2 167.1C572.6 151.8 564.7 137.2 558.4 123.9V124Z" fill="url(#paint42_linear_1868_6584)"/>
<path d="M539 73.1C532.9 67.2 526.8 61.4 520.7 55.5C523.3 69.5 527.1 85.2 532.7 102.1C537.3 115.9 542.3 128.2 547.4 139.2C551.1 134.1 554.8 129.1 558.4 124C554.9 116.3 551.4 108.1 548 99.2C544.5 90.1 541.6 81.3 539 73.1Z" fill="url(#paint43_linear_1868_6584)"/>
<path d="M559.4 93.2998L647.1 180.4L640.5 221C626.5 206.6 610.4 187.8 595.1 164.2C578.2 138.1 566.9 113.4 559.3 93.2998H559.4Z" fill="url(#paint44_linear_1868_6584)"/>
<path d="M943.9 472.5C927.1 468.8 909 464 889.9 457.7C867.6 450.5 847.6 442.5 829.8 434.4C824 461.8 818.1 489.2 812.3 516.6L822.4 523.3C862.9 506.4 903.4 489.4 943.9 472.5Z" fill="url(#paint45_linear_1868_6584)"/>
<path d="M830.7 435C820.8 430.9 810.3 426.1 799.3 420.4C789.2 415.2 779.9 409.8 771.5 404.5L710.4 433.9C725.5 448.6 742.7 464 762 479.5C779.4 493.5 796.3 505.8 812.4 516.6C818.5 489.4 824.7 462.1 830.8 434.9L830.7 435Z" fill="url(#paint46_linear_1868_6584)"/>
<path d="M771.5 404.501C759.2 397.001 746.2 388.501 732.8 378.801C719.3 369.001 707 359.201 696 349.801L689.4 412.601L710.4 433.901L771.5 404.501Z" fill="url(#paint47_linear_1868_6584)"/>
<path d="M695.9 349.8C690.1 344.8 684.2 339.6 678.2 334C669.8 326.2 662.1 318.5 654.8 311C650.2 326.5 645.6 342 641.1 357.5C649.7 367.5 658.2 377.6 666.8 387.6C680.6 403.1 689.2 412.7 689.4 412.5C689.3 411.7 696 349.7 696 349.7L695.9 349.8Z" fill="url(#paint48_linear_1868_6584)"/>
<path d="M603.5 614.1L555.6 633.9L542.8 614.4L587.8 504.6L660.7 590.4L603.5 614.1Z" fill="url(#paint49_linear_1868_6584)"/>
<path d="M587.8 504.6L581.7 495.4L540.7 519.5L542.8 614.4L587.8 504.6Z" fill="url(#paint50_linear_1868_6584)"/>
<path d="M568.6 497.8C515.4 535.1 444.8 534.3 394.6 496.6C349.7 462.9 328.3 404.9 339.9 348.3C341.5 340.1 355 277.4 416.6 244.9C481.7 210.6 544.6 239.6 551.3 242.8C559.8 248 613.4 282.4 624.8 350.3C639.2 436.4 571.9 494.9 568.6 497.7V497.8Z" fill="url(#paint51_linear_1868_6584)"/>
<path opacity="0.2" d="M82.5999 407.9L99.3999 443.1L22.2 467.9L82.5999 407.9Z" fill="white"/>
<path opacity="0.2" d="M152.6 340.199C165.9 359.099 179.1 377.899 192.4 396.799C176.3 404.899 160.1 412.999 144 421.099L152.6 340.199Z" fill="white"/>
<path opacity="0.2" d="M417.9 243.1C443.2 289.7 468.4 336.2 493.7 382.8C487.9 429 482.1 475.1 476.3 521.3C460.8 521.4 428.4 519.5 397.7 498.8C348.3 465.5 329.6 401.4 340.4 347.7C353.8 281.2 408.6 248.5 417.9 243.2V243.1Z" fill="white"/>
<path d="M337.4 364.5C333.5 272.8 420.1 198.6 510.2 216.9C572.5 228.9 622.5 284.8 626.5 348.1C626.7 352.1 626.9 358.2 626.7 362.2C626.2 358.3 625.3 352.3 624.5 348.4C607.2 259.9 514.5 202.2 429.2 238.1C385.5 256.1 352.4 296.1 341.4 342.1C340.9 344.7 340.1 348 339.6 350.6C339.2 352.9 338.8 355.2 338.5 357.5C338.2 359.8 337.9 362.1 337.6 364.5H337.5H337.4Z" fill="white"/>
<path d="M454.3 205.8C460 188.1 465.4 168.6 470.2 147.5C475.8 122.5 479.5 99.2004 481.9 77.9004C484.5 99.3004 488.4 122.5 494 147.3C498.8 168.4 504.2 187.9 509.9 205.8C509.9 205.8 502.4 206.4 502.4 205.8C502.4 205.2 487.2 145.2 487.2 145.2L492.8 205H473.3L478.4 146.1L463.5 206.2L454.5 205.9L454.3 205.8Z" fill="url(#paint52_radial_1868_6584)"/>
<path d="M480.3 0.5C320.5 159.1 160.6 317.7 0.800049 476.3L478.2 674.2L480.3 675.1L963.2 476.4C802.2 317.8 641.2 159.2 480.3 0.599998V0.5ZM935.6 464.3C891.9 454 849.5 438.5 809.6 418.2C759.8 392.9 713.9 360.1 673.2 320.7C606.8 256.6 571.2 191.4 555.8 158.3C540.6 125.5 528.8 90.9 520.8 55.5L538 72.5C549.3 108.4 565.4 142.4 586.1 173.7C605.3 202.9 639.7 245.6 694 283.8C729.7 308.9 769.1 328.3 811 341.5L935.6 464.2V464.3ZM789.3 320.2C758.2 308.1 728.7 292.4 701.5 273.3C660.4 244.4 623.3 206.6 597 166.7C581.8 143.7 569.1 119.1 559.1 93.4L789.3 320.2ZM152.6 340.9C177 333 211.7 319.3 249.5 295.6C322.2 250 361.2 195.4 370.6 181.8C386.8 158.4 408.4 121.7 423.5 72.1C429 66.6 434.6 61.1 440.1 55.6C432 91 420.3 125.5 405.1 158.3C389.8 191.4 354.2 256.6 287.7 320.7C247 360 201 392.8 151.3 418.2C112.5 437.9 71.5 453.1 29.2001 463.4C70.3 422.6 111.5 381.8 152.6 340.9ZM174.2 319.5L403.2 92.3C392.1 121.5 377.6 149 359.9 174.4C346.4 193.8 308.1 243.3 242.5 284.6C220.9 298.2 197.9 309.9 174.2 319.5ZM20 472.5C55.6 464.5 102.7 450.3 154.3 423.9C187.3 407 239.3 376.5 292.3 325.3C359.5 260.5 395.5 194.5 411 161C427.7 124.9 440.3 86.7 448.5 47.6C454.4 41.6 460.4 35.5 466.3 29.5C461.5 56.1 455.2 82.5 447.6 108.3C436.9 144.3 423.4 179.8 407.5 213.9L419.3 219.4C435.6 184.8 449.3 148.7 460.1 112C468.3 84.3 474.9 56 479.9 27.5C484.9 56 491.5 84.4 499.7 112C510.5 148.7 524.3 184.8 540.5 219.4L552.3 213.9C536.3 179.9 522.8 144.4 512.2 108.3C504.5 82.2 498.2 55.5 493.3 28.6C499.6 34.9 505.9 41.3 512.2 47.6C520.4 86.7 533 124.8 549.7 161C565.2 194.5 601.3 260.5 668.4 325.3C724.5 379.5 778.8 409.9 806.4 423.9C859.5 450.8 908 464.8 943.7 472.5L821.9 522.6C790.4 502.2 760.3 479.2 732.3 454.2C698.7 424.2 667.7 391 640.2 355.3H640.1C640.1 356.4 640.1 357.5 640.1 358.6C640.1 359.4 640.1 360.2 640.1 361C639.1 402.1 622.6 442.2 593.9 471.6C540.2 527.3 455.5 536.7 391.8 492.2C347.5 461.7 320.6 409.2 321.4 355.2C321.4 355.6 321.4 356 321.3 356.4C321.3 356 321.3 355.6 321.3 355.2C293.7 390.9 262.7 424.2 229.1 454.2C201.3 479 171.3 501.9 140 522.3C99.9 505.7 59.9 489.1 19.8 472.5H20ZM539.8 518.4C548.3 534.3 557.5 550 567.4 565.1C578.2 581.6 590 597.7 602.5 613.1L554.6 632.8C542.7 615.8 532.1 597.8 523.2 579.2C515.4 562.8 508.7 545.8 503.3 528.4C515.8 526.6 528.1 523.2 539.8 518.5V518.4ZM572.9 561.5C563.2 546.8 554.1 531.4 545.8 515.8C558.3 510.2 570.1 503 580.8 494.4C592.7 512.5 605.8 530.1 619.8 546.7C632.3 561.6 645.8 575.9 659.9 589.4L608.8 610.4C596 594.8 583.9 578.3 572.8 561.5H572.9ZM629.8 538.3C615.8 521.7 602.7 504 590.7 485.8C604 473.2 615.4 458.3 624 441.3C641.1 462.8 659.4 483.7 678.4 503.5C696.7 522.5 716.1 540.8 736.2 558.1L673.1 584.1C657.8 569.8 643.3 554.4 629.8 538.4V538.3ZM683.6 498.4C662.2 476.2 643.5 454.5 627.4 434C629.4 429.5 631.3 424.8 632.9 420C637.5 406.3 640.2 392.1 640.9 377.8C662.8 404.4 690.1 434 723.8 463.9C753.1 489.9 781.6 511.2 807.5 528.6L743.6 554.9C724.4 538.5 704.2 519.7 683.6 498.4ZM320.9 377.8C321.8 397.2 326.6 416.3 334.5 433.9C318.4 454.4 299.7 476.2 278.2 498.5C257.7 519.8 237.5 538.5 218.4 554.8L154.8 528.4C180.6 511.1 208.9 489.9 238.1 464C271.8 434.1 299.2 404.4 321.1 377.8H320.9ZM283.3 503.4C302.4 483.6 320.8 462.6 337.9 441C346.3 457.6 357.6 472.7 371.1 485.6C359.2 503.8 346 521.5 332 538.2C318.5 554.2 304 569.5 288.8 583.8L225.9 557.7C245.8 540.5 265.2 522.2 283.4 503.3L283.3 503.4ZM341.9 546.7C355.9 530.1 369 512.5 380.9 494.4C391.5 503 403.3 510.3 415.9 515.9C407.6 531.5 398.5 546.8 388.9 561.5C377.8 578.4 365.7 594.9 352.9 610.5L301.9 589.4C316 575.9 329.4 561.6 341.9 546.7ZM394.3 565C404.2 550 413.4 534.3 421.9 518.4C433.9 523.3 446.2 526.6 458.4 528.3C453 545.6 446.3 562.7 438.5 579C429.5 597.7 418.9 615.8 406.9 632.8L359 613C371.5 597.6 383.3 581.5 394.2 565H394.3ZM419.3 638C431 621.1 441.4 603.2 450.3 584.7C458.8 567 466 548.5 471.7 529.7C477.9 530.1 484.1 530 490.2 529.7C495.9 548.5 503.1 567 511.6 584.7C520.4 603.1 530.8 621 542.4 637.8L480.4 663.3L419.4 638H419.3Z" fill="url(#paint53_radial_1868_6584)"/>
<path d="M321.7 354.301C320.9 405.601 345.1 455.701 385.8 486.801C449.6 536.301 538.9 529.001 594.6 470.901C624.6 440.001 641.4 397.601 640.9 354.301C643.4 375.601 640.5 398.301 633.6 419.101C598.7 521.301 475.2 562.701 387.4 498.201C342.5 465.801 315.8 409.401 321.8 354.301H321.7Z" fill="white"/>
<g filter="url(#filter0_d_1868_6584)">
<path d="M396.7 269.8H467.1L446.3 290V447.5H447.5L452.8 447.9H454.1V291.4L470 275.3L472.1 278.5L457.8 293.1V447.8C462.2 448.2 466.4 448.4 470.5 448.4C486.1 448.4 497.9 444.9 505.9 438C513.9 431.1 519.3 419.7 522 403.7C531.2 430.5 540.7 448.8 550.4 458.7H396.6L416.9 442.1V288.4L396.6 269.7L396.7 269.8ZM564.9 457.6L558.3 470.9H404.5L400.8 466.9H556.7L561 457.6C550.2 444.3 541.6 429.6 535.1 413.3L534.5 411.7L539.2 413.5L540.2 416C546.8 430.5 554.6 443.9 563.8 456.2L565 457.7L564.9 457.6Z" fill="white"/>
</g>
<path d="M1089 398.353V285H1112.03V398.353C1112.03 411.455 1122.55 422.373 1135.65 422.969H1200.37V445.997H1136.64C1110.44 445.997 1089.2 424.557 1089.2 398.551L1089 398.353Z" fill="url(#paint54_linear_1868_6584)"/>
<path d="M1236.5 285.201H1259.53V306.442C1259.53 332.647 1280.97 354.086 1307.17 354.086C1333.37 354.086 1354.81 332.647 1354.81 306.442V285.201H1377.84V306.442C1377.84 341.381 1352.03 370.563 1318.68 376.122V446H1295.66V376.122C1262.3 370.563 1236.5 341.381 1236.5 306.442V285.201Z" fill="url(#paint55_linear_1868_6584)"/>
<path d="M1413.77 308.028V285H1444.54C1488.81 285 1524.94 321.13 1524.94 365.399C1524.94 409.668 1488.81 445.798 1444.54 445.798H1413.77V422.77H1444.54C1476.11 422.77 1501.91 396.765 1501.91 365.399C1501.91 334.034 1475.91 308.028 1444.54 308.028H1413.77Z" fill="url(#paint56_linear_1868_6584)"/>
<path d="M1584.1 285.201V446H1561.07V285.201H1584.1Z" fill="url(#paint57_linear_1868_6584)"/>
<path d="M1620.43 446L1672.24 313.788C1679.19 296.318 1695.27 285.201 1713.93 285.201C1732.59 285.201 1748.87 296.12 1755.62 313.788L1807.43 446H1782.82L1734.38 322.125C1731 313.391 1723.46 308.229 1713.93 308.229C1704.4 308.229 1696.86 313.391 1693.48 322.125L1645.04 446H1620.43ZM1696.66 394.187C1696.66 403.716 1704.4 411.458 1713.93 411.458C1723.46 411.458 1731.2 403.716 1731.2 394.187C1731.2 384.658 1723.46 376.916 1713.93 376.916C1704.4 376.916 1696.66 384.658 1696.66 394.187Z" fill="url(#paint58_linear_1868_6584)"/>
<path d="M1923.96 285.201H1954.73V308.229H1923.96C1892.4 308.229 1866.59 334.235 1866.59 365.6C1866.59 396.966 1892.6 422.972 1923.96 422.972H1954.73V446H1923.96C1879.69 446 1843.56 409.87 1843.56 365.6C1843.56 321.331 1879.69 285.201 1923.96 285.201Z" fill="url(#paint59_linear_1868_6584)"/>
<path d="M2071.46 445.798C2026.99 445.798 1991.06 409.867 1991.06 365.399C1991.06 320.931 2026.99 285 2071.46 285C2115.93 285 2151.86 320.931 2151.86 365.399C2151.86 409.867 2115.93 445.798 2071.46 445.798ZM2071.46 422.969C2103.22 422.969 2128.83 397.36 2128.83 365.598C2128.83 333.835 2103.22 308.226 2071.46 308.226C2039.7 308.226 2014.09 333.835 2014.09 365.598C2014.09 397.36 2039.7 422.969 2071.46 422.969Z" fill="url(#paint60_linear_1868_6584)"/>
<path d="M2210.82 285.201V446H2187.79V285.201H2210.82Z" fill="url(#paint61_linear_1868_6584)"/>
<path d="M2247.15 446V355.873C2247.15 316.964 2278.91 285.201 2317.82 285.201C2356.73 285.201 2388.49 316.964 2388.49 355.873V446H2365.46V355.873C2365.46 329.669 2344.02 308.229 2317.82 308.229C2291.61 308.229 2270.17 329.669 2270.17 355.873V446H2247.15Z" fill="url(#paint62_linear_1868_6584)"/>
<defs>
<filter id="filter0_d_1868_6584" x="396.6" y="269.7" width="170.3" height="203.1" filterUnits="userSpaceOnUse" color-interpolation-filters="sRGB">
<feFlood flood-opacity="0" result="BackgroundImageFix"/>
<feColorMatrix in="SourceAlpha" type="matrix" values="0 0 0 0 0 0 0 0 0 0 0 0 0 0 0 0 0 0 127 0" result="hardAlpha"/>
<feOffset dx="1.9" dy="1.9"/>
<feColorMatrix type="matrix" values="0 0 0 0 0 0 0 0 0 0 0 0 0 0 0 0 0 0 0.8 0"/>
<feBlend mode="normal" in2="BackgroundImageFix" result="effect1_dropShadow_1868_6584"/>
<feBlend mode="normal" in="SourceGraphic" in2="effect1_dropShadow_1868_6584" result="shape"/>
</filter>
<linearGradient id="paint0_linear_1868_6584" x1="385" y1="115.1" x2="483.7" y2="115.1" gradientUnits="userSpaceOnUse">
<stop/>
<stop offset="1" stop-color="#FF0000"/>
</linearGradient>
<linearGradient id="paint1_linear_1868_6584" x1="395.1" y1="577.8" x2="567.5" y2="577.8" gradientUnits="userSpaceOnUse">
<stop/>
<stop offset="1" stop-color="#FF0000"/>
</linearGradient>
<linearGradient id="paint2_linear_1868_6584" x1="283" y1="440.7" x2="395.1" y2="440.7" gradientUnits="userSpaceOnUse">
<stop/>
<stop offset="1" stop-color="#FF0000"/>
</linearGradient>
<linearGradient id="paint3_linear_1868_6584" x1="261.6" y1="486.3" x2="336.4" y2="486.3" gradientUnits="userSpaceOnUse">
<stop/>
<stop offset="0.2" stop-color="#060000"/>
<stop offset="0.3" stop-color="#1A0000"/>
<stop offset="0.5" stop-color="#3A0000"/>
<stop offset="0.6" stop-color="#680000" stop-opacity="0.9"/>
<stop offset="0.8" stop-color="#A20000" stop-opacity="0.9"/>
<stop offset="0.9" stop-color="#E80000" stop-opacity="0.8"/>
<stop offset="1" stop-color="#FF0000" stop-opacity="0.8"/>
</linearGradient>
<linearGradient id="paint4_linear_1868_6584" x1="154.7" y1="513" x2="314.8" y2="513" gradientUnits="userSpaceOnUse">
<stop/>
<stop offset="0.2" stop-color="#060000"/>
<stop offset="0.3" stop-color="#1A0000"/>
<stop offset="0.5" stop-color="#3A0000"/>
<stop offset="0.6" stop-color="#680000" stop-opacity="0.9"/>
<stop offset="0.8" stop-color="#A20000" stop-opacity="0.9"/>
<stop offset="0.9" stop-color="#E80000" stop-opacity="0.8"/>
<stop offset="1" stop-color="#FF0000" stop-opacity="0.8"/>
</linearGradient>
<linearGradient id="paint5_linear_1868_6584" x1="416.7" y1="203.5" x2="488" y2="203.5" gradientUnits="userSpaceOnUse">
<stop/>
<stop offset="1" stop-color="#FF0000"/>
</linearGradient>
<linearGradient id="paint6_linear_1868_6584" x1="350.6" y1="243.6" x2="419.3" y2="243.6" gradientUnits="userSpaceOnUse">
<stop/>
<stop offset="1" stop-color="#FF0000"/>
</linearGradient>
<linearGradient id="paint7_linear_1868_6584" x1="307.7" y1="308.2" x2="390.8" y2="308.2" gradientUnits="userSpaceOnUse">
<stop/>
<stop offset="1" stop-color="#FF0000"/>
</linearGradient>
<linearGradient id="paint8_linear_1868_6584" x1="448.6" y1="43.6" x2="486.3" y2="43.6" gradientUnits="userSpaceOnUse">
<stop/>
<stop offset="0.2" stop-color="#060000"/>
<stop offset="0.3" stop-color="#1A0000"/>
<stop offset="0.5" stop-color="#3A0000"/>
<stop offset="0.6" stop-color="#680000" stop-opacity="0.9"/>
<stop offset="0.8" stop-color="#A20000" stop-opacity="0.9"/>
<stop offset="0.9" stop-color="#E80000" stop-opacity="0.8"/>
<stop offset="1" stop-color="#FF0000" stop-opacity="0.8"/>
</linearGradient>
<linearGradient id="paint9_linear_1868_6584" x1="428.8" y1="82.7002" x2="481.8" y2="82.7002" gradientUnits="userSpaceOnUse">
<stop/>
<stop offset="0.2" stop-color="#060000"/>
<stop offset="0.3" stop-color="#1A0000"/>
<stop offset="0.5" stop-color="#3A0000"/>
<stop offset="0.6" stop-color="#680000" stop-opacity="0.9"/>
<stop offset="0.8" stop-color="#A20000" stop-opacity="0.9"/>
<stop offset="0.9" stop-color="#E80000" stop-opacity="0.8"/>
<stop offset="1" stop-color="#FF0000" stop-opacity="0.8"/>
</linearGradient>
<linearGradient id="paint10_linear_1868_6584" x1="174.2" y1="285.3" x2="288.7" y2="285.3" gradientUnits="userSpaceOnUse">
<stop/>
<stop offset="0.2" stop-color="#060000"/>
<stop offset="0.3" stop-color="#1A0000"/>
<stop offset="0.5" stop-color="#3A0000"/>
<stop offset="0.6" stop-color="#680000" stop-opacity="0.9"/>
<stop offset="0.8" stop-color="#A20000" stop-opacity="0.9"/>
<stop offset="0.9" stop-color="#E80000" stop-opacity="0.8"/>
<stop offset="1" stop-color="#FF0000" stop-opacity="0.8"/>
</linearGradient>
<linearGradient id="paint11_linear_1868_6584" x1="241.2" y1="216.2" x2="322" y2="216.2" gradientUnits="userSpaceOnUse">
<stop/>
<stop offset="0.2" stop-color="#060000"/>
<stop offset="0.3" stop-color="#1A0000"/>
<stop offset="0.5" stop-color="#3A0000"/>
<stop offset="0.6" stop-color="#680000" stop-opacity="0.9"/>
<stop offset="0.8" stop-color="#A20000" stop-opacity="0.9"/>
<stop offset="0.9" stop-color="#E80000" stop-opacity="0.8"/>
<stop offset="1" stop-color="#FF0000" stop-opacity="0.8"/>
</linearGradient>
<linearGradient id="paint12_linear_1868_6584" x1="29.2" y1="402.2" x2="152.6" y2="402.2" gradientUnits="userSpaceOnUse">
<stop/>
<stop offset="0.2" stop-color="#060000"/>
<stop offset="0.3" stop-color="#1A0000"/>
<stop offset="0.5" stop-color="#3A0000"/>
<stop offset="0.6" stop-color="#680000" stop-opacity="0.9"/>
<stop offset="0.8" stop-color="#A20000" stop-opacity="0.9"/>
<stop offset="0.9" stop-color="#E80000" stop-opacity="0.8"/>
<stop offset="1" stop-color="#FF0000" stop-opacity="0.8"/>
</linearGradient>
<linearGradient id="paint13_linear_1868_6584" x1="144" y1="365.2" x2="227.7" y2="365.2" gradientUnits="userSpaceOnUse">
<stop/>
<stop offset="0.2" stop-color="#060000"/>
<stop offset="0.3" stop-color="#1A0000"/>
<stop offset="0.5" stop-color="#3A0000"/>
<stop offset="0.6" stop-color="#680000" stop-opacity="0.9"/>
<stop offset="0.8" stop-color="#A20000" stop-opacity="0.9"/>
<stop offset="0.9" stop-color="#E80000" stop-opacity="0.8"/>
<stop offset="1" stop-color="#FF0000" stop-opacity="0.8"/>
</linearGradient>
<linearGradient id="paint14_linear_1868_6584" x1="211.1" y1="342.799" x2="297.5" y2="342.799" gradientUnits="userSpaceOnUse">
<stop/>
<stop offset="0.2" stop-color="#060000"/>
<stop offset="0.3" stop-color="#1A0000"/>
<stop offset="0.5" stop-color="#3A0000"/>
<stop offset="0.6" stop-color="#680000" stop-opacity="0.9"/>
<stop offset="0.8" stop-color="#A20000" stop-opacity="0.9"/>
<stop offset="0.9" stop-color="#E80000" stop-opacity="0.8"/>
<stop offset="1" stop-color="#FF0000" stop-opacity="0.8"/>
</linearGradient>
<linearGradient id="paint15_linear_1868_6584" x1="238" y1="274.9" x2="343.9" y2="274.9" gradientUnits="userSpaceOnUse">
<stop/>
<stop offset="0.2" stop-color="#060000"/>
<stop offset="0.3" stop-color="#1A0000"/>
<stop offset="0.5" stop-color="#3A0000"/>
<stop offset="0.6" stop-color="#680000" stop-opacity="0.9"/>
<stop offset="0.8" stop-color="#A20000" stop-opacity="0.9"/>
<stop offset="0.9" stop-color="#E80000" stop-opacity="0.8"/>
<stop offset="1" stop-color="#FF0000" stop-opacity="0.8"/>
</linearGradient>
<linearGradient id="paint16_linear_1868_6584" x1="322" y1="207.5" x2="405.8" y2="207.5" gradientUnits="userSpaceOnUse">
<stop/>
<stop offset="0.2" stop-color="#060000"/>
<stop offset="0.3" stop-color="#1A0000"/>
<stop offset="0.5" stop-color="#3A0000"/>
<stop offset="0.6" stop-color="#680000" stop-opacity="0.9"/>
<stop offset="0.8" stop-color="#A20000" stop-opacity="0.9"/>
<stop offset="0.9" stop-color="#E80000" stop-opacity="0.8"/>
<stop offset="1" stop-color="#FF0000" stop-opacity="0.8"/>
</linearGradient>
<linearGradient id="paint17_linear_1868_6584" x1="354.3" y1="163.2" x2="414.2" y2="163.2" gradientUnits="userSpaceOnUse">
<stop/>
<stop offset="0.2" stop-color="#060000"/>
<stop offset="0.3" stop-color="#1A0000"/>
<stop offset="0.5" stop-color="#3A0000"/>
<stop offset="0.6" stop-color="#680000" stop-opacity="0.9"/>
<stop offset="0.8" stop-color="#A20000" stop-opacity="0.9"/>
<stop offset="0.9" stop-color="#E80000" stop-opacity="0.8"/>
<stop offset="1" stop-color="#FF0000" stop-opacity="0.8"/>
</linearGradient>
<linearGradient id="paint18_linear_1868_6584" x1="404.1" y1="96.5996" x2="440.2" y2="96.5996" gradientUnits="userSpaceOnUse">
<stop/>
<stop offset="0.2" stop-color="#060000"/>
<stop offset="0.3" stop-color="#1A0000"/>
<stop offset="0.5" stop-color="#3A0000"/>
<stop offset="0.6" stop-color="#680000" stop-opacity="0.9"/>
<stop offset="0.8" stop-color="#A20000" stop-opacity="0.9"/>
<stop offset="0.9" stop-color="#E80000" stop-opacity="0.8"/>
<stop offset="1" stop-color="#FF0000" stop-opacity="0.8"/>
</linearGradient>
<linearGradient id="paint19_linear_1868_6584" x1="315.4" y1="156.2" x2="403.2" y2="156.2" gradientUnits="userSpaceOnUse">
<stop/>
<stop offset="0.2" stop-color="#060000"/>
<stop offset="0.3" stop-color="#1A0000"/>
<stop offset="0.5" stop-color="#3A0000"/>
<stop offset="0.6" stop-color="#680000" stop-opacity="0.9"/>
<stop offset="0.8" stop-color="#A20000" stop-opacity="0.9"/>
<stop offset="0.9" stop-color="#E80000" stop-opacity="0.8"/>
<stop offset="1" stop-color="#FF0000" stop-opacity="0.8"/>
</linearGradient>
<linearGradient id="paint20_linear_1868_6584" x1="20" y1="478.5" x2="150.3" y2="478.5" gradientUnits="userSpaceOnUse">
<stop/>
<stop offset="0.2" stop-color="#060000"/>
<stop offset="0.3" stop-color="#1A0000"/>
<stop offset="0.5" stop-color="#3A0000"/>
<stop offset="0.6" stop-color="#680000" stop-opacity="0.9"/>
<stop offset="0.8" stop-color="#A20000" stop-opacity="0.9"/>
<stop offset="0.9" stop-color="#E80000" stop-opacity="0.8"/>
<stop offset="1" stop-color="#FF0000" stop-opacity="0.8"/>
</linearGradient>
<linearGradient id="paint21_linear_1868_6584" x1="132.1" y1="459.6" x2="252.2" y2="459.6" gradientUnits="userSpaceOnUse">
<stop/>
<stop offset="0.2" stop-color="#060000"/>
<stop offset="0.3" stop-color="#1A0000"/>
<stop offset="0.5" stop-color="#3A0000"/>
<stop offset="0.6" stop-color="#680000" stop-opacity="0.9"/>
<stop offset="0.8" stop-color="#A20000" stop-opacity="0.9"/>
<stop offset="0.9" stop-color="#E80000" stop-opacity="0.8"/>
<stop offset="1" stop-color="#FF0000" stop-opacity="0.8"/>
</linearGradient>
<linearGradient id="paint22_linear_1868_6584" x1="191.1" y1="390.801" x2="273.2" y2="390.801" gradientUnits="userSpaceOnUse">
<stop/>
<stop offset="0.2" stop-color="#060000"/>
<stop offset="0.3" stop-color="#1A0000"/>
<stop offset="0.5" stop-color="#3A0000"/>
<stop offset="0.6" stop-color="#680000" stop-opacity="0.9"/>
<stop offset="0.8" stop-color="#A20000" stop-opacity="0.9"/>
<stop offset="0.9" stop-color="#E80000" stop-opacity="0.8"/>
<stop offset="1" stop-color="#FF0000" stop-opacity="0.8"/>
</linearGradient>
<linearGradient id="paint23_linear_1868_6584" x1="266.6" y1="360.8" x2="321.4" y2="360.8" gradientUnits="userSpaceOnUse">
<stop/>
<stop offset="0.2" stop-color="#060000"/>
<stop offset="0.3" stop-color="#1A0000"/>
<stop offset="0.5" stop-color="#3A0000"/>
<stop offset="0.6" stop-color="#680000" stop-opacity="0.9"/>
<stop offset="0.8" stop-color="#A20000" stop-opacity="0.9"/>
<stop offset="0.9" stop-color="#E80000" stop-opacity="0.8"/>
<stop offset="1" stop-color="#FF0000" stop-opacity="0.8"/>
</linearGradient>
<linearGradient id="paint24_linear_1868_6584" x1="301.9" y1="568.2" x2="419.8" y2="568.2" gradientUnits="userSpaceOnUse">
<stop/>
<stop offset="1" stop-color="#FF0000"/>
</linearGradient>
<linearGradient id="paint25_linear_1868_6584" x1="374.7" y1="553.9" x2="421.9" y2="553.9" gradientUnits="userSpaceOnUse">
<stop/>
<stop offset="1" stop-color="#FF0000"/>
</linearGradient>
<linearGradient id="paint26_linear_1868_6584" x1="577.6" y1="116.1" x2="478.9" y2="116.1" gradientUnits="userSpaceOnUse">
<stop/>
<stop offset="1" stop-color="#FF0000"/>
</linearGradient>
<linearGradient id="paint27_linear_1868_6584" x1="679.6" y1="441.7" x2="567.5" y2="441.7" gradientUnits="userSpaceOnUse">
<stop/>
<stop offset="1" stop-color="#FF0000"/>
</linearGradient>
<linearGradient id="paint28_linear_1868_6584" x1="701.1" y1="487.3" x2="626.2" y2="487.3" gradientUnits="userSpaceOnUse">
<stop/>
<stop offset="0.2" stop-color="#060000"/>
<stop offset="0.3" stop-color="#1A0000"/>
<stop offset="0.5" stop-color="#3A0000"/>
<stop offset="0.6" stop-color="#680000" stop-opacity="0.9"/>
<stop offset="0.8" stop-color="#A20000" stop-opacity="0.9"/>
<stop offset="0.9" stop-color="#E80000" stop-opacity="0.8"/>
<stop offset="1" stop-color="#FF0000" stop-opacity="0.8"/>
</linearGradient>
<linearGradient id="paint29_linear_1868_6584" x1="808" y1="514" x2="647.8" y2="514" gradientUnits="userSpaceOnUse">
<stop/>
<stop offset="0.2" stop-color="#060000"/>
<stop offset="0.3" stop-color="#1A0000"/>
<stop offset="0.5" stop-color="#3A0000"/>
<stop offset="0.6" stop-color="#680000" stop-opacity="0.9"/>
<stop offset="0.8" stop-color="#A20000" stop-opacity="0.9"/>
<stop offset="0.9" stop-color="#E80000" stop-opacity="0.8"/>
<stop offset="1" stop-color="#FF0000" stop-opacity="0.8"/>
</linearGradient>
<linearGradient id="paint30_linear_1868_6584" x1="546" y1="204.5" x2="474.6" y2="204.5" gradientUnits="userSpaceOnUse">
<stop/>
<stop offset="1" stop-color="#FF0000"/>
</linearGradient>
<linearGradient id="paint31_linear_1868_6584" x1="612" y1="244.7" x2="543.3" y2="244.7" gradientUnits="userSpaceOnUse">
<stop/>
<stop offset="1" stop-color="#FF0000"/>
</linearGradient>
<linearGradient id="paint32_linear_1868_6584" x1="654.9" y1="309.3" x2="571.9" y2="309.3" gradientUnits="userSpaceOnUse">
<stop/>
<stop offset="1" stop-color="#FF0000"/>
</linearGradient>
<linearGradient id="paint33_linear_1868_6584" x1="514.1" y1="44.6996" x2="476.3" y2="44.6996" gradientUnits="userSpaceOnUse">
<stop/>
<stop offset="0.2" stop-color="#060000"/>
<stop offset="0.3" stop-color="#1A0000"/>
<stop offset="0.5" stop-color="#3A0000"/>
<stop offset="0.6" stop-color="#680000" stop-opacity="0.9"/>
<stop offset="0.8" stop-color="#A20000" stop-opacity="0.9"/>
<stop offset="0.9" stop-color="#E80000" stop-opacity="0.8"/>
<stop offset="1" stop-color="#FF0000" stop-opacity="0.8"/>
</linearGradient>
<linearGradient id="paint34_linear_1868_6584" x1="533.8" y1="83.7002" x2="480.8" y2="83.7002" gradientUnits="userSpaceOnUse">
<stop/>
<stop offset="0.2" stop-color="#060000"/>
<stop offset="0.3" stop-color="#1A0000"/>
<stop offset="0.5" stop-color="#3A0000"/>
<stop offset="0.6" stop-color="#680000" stop-opacity="0.9"/>
<stop offset="0.8" stop-color="#A20000" stop-opacity="0.9"/>
<stop offset="0.9" stop-color="#E80000" stop-opacity="0.8"/>
<stop offset="1" stop-color="#FF0000" stop-opacity="0.8"/>
</linearGradient>
<linearGradient id="paint35_linear_1868_6584" x1="790.8" y1="286.6" x2="673.9" y2="286.6" gradientUnits="userSpaceOnUse">
<stop/>
<stop offset="0.2" stop-color="#060000"/>
<stop offset="0.3" stop-color="#1A0000"/>
<stop offset="0.5" stop-color="#3A0000"/>
<stop offset="0.6" stop-color="#680000" stop-opacity="0.9"/>
<stop offset="0.8" stop-color="#A20000" stop-opacity="0.9"/>
<stop offset="0.9" stop-color="#E80000" stop-opacity="0.8"/>
<stop offset="1" stop-color="#FF0000" stop-opacity="0.8"/>
</linearGradient>
<linearGradient id="paint36_linear_1868_6584" x1="723.1" y1="217.4" x2="640.6" y2="217.4" gradientUnits="userSpaceOnUse">
<stop/>
<stop offset="0.2" stop-color="#060000"/>
<stop offset="0.3" stop-color="#1A0000"/>
<stop offset="0.5" stop-color="#3A0000"/>
<stop offset="0.6" stop-color="#680000" stop-opacity="0.9"/>
<stop offset="0.8" stop-color="#A20000" stop-opacity="0.9"/>
<stop offset="0.9" stop-color="#E80000" stop-opacity="0.8"/>
<stop offset="1" stop-color="#FF0000" stop-opacity="0.8"/>
</linearGradient>
<linearGradient id="paint37_linear_1868_6584" x1="936.4" y1="402.3" x2="810" y2="402.3" gradientUnits="userSpaceOnUse">
<stop/>
<stop offset="0.2" stop-color="#060000"/>
<stop offset="0.3" stop-color="#1A0000"/>
<stop offset="0.5" stop-color="#3A0000"/>
<stop offset="0.6" stop-color="#680000" stop-opacity="0.9"/>
<stop offset="0.8" stop-color="#A20000" stop-opacity="0.9"/>
<stop offset="0.9" stop-color="#E80000" stop-opacity="0.8"/>
<stop offset="1" stop-color="#FF0000" stop-opacity="0.8"/>
</linearGradient>
<linearGradient id="paint38_linear_1868_6584" x1="818.6" y1="366" x2="734.9" y2="366" gradientUnits="userSpaceOnUse">
<stop/>
<stop offset="0.2" stop-color="#060000"/>
<stop offset="0.3" stop-color="#1A0000"/>
<stop offset="0.5" stop-color="#3A0000"/>
<stop offset="0.6" stop-color="#680000" stop-opacity="0.9"/>
<stop offset="0.8" stop-color="#A20000" stop-opacity="0.9"/>
<stop offset="0.9" stop-color="#E80000" stop-opacity="0.8"/>
<stop offset="1" stop-color="#FF0000" stop-opacity="0.8"/>
</linearGradient>
<linearGradient id="paint39_linear_1868_6584" x1="751.5" y1="343.9" x2="664.6" y2="343.9" gradientUnits="userSpaceOnUse">
<stop/>
<stop offset="0.2" stop-color="#060000"/>
<stop offset="0.3" stop-color="#1A0000"/>
<stop offset="0.5" stop-color="#3A0000"/>
<stop offset="0.6" stop-color="#680000" stop-opacity="0.9"/>
<stop offset="0.8" stop-color="#A20000" stop-opacity="0.9"/>
<stop offset="0.9" stop-color="#E80000" stop-opacity="0.8"/>
<stop offset="1" stop-color="#FF0000" stop-opacity="0.8"/>
</linearGradient>
<linearGradient id="paint40_linear_1868_6584" x1="725" y1="276.2" x2="618" y2="276.2" gradientUnits="userSpaceOnUse">
<stop/>
<stop offset="0.2" stop-color="#060000"/>
<stop offset="0.3" stop-color="#1A0000"/>
<stop offset="0.5" stop-color="#3A0000"/>
<stop offset="0.6" stop-color="#680000" stop-opacity="0.9"/>
<stop offset="0.8" stop-color="#A20000" stop-opacity="0.9"/>
<stop offset="0.9" stop-color="#E80000" stop-opacity="0.8"/>
<stop offset="1" stop-color="#FF0000" stop-opacity="0.8"/>
</linearGradient>
<linearGradient id="paint41_linear_1868_6584" x1="640.6" y1="207.7" x2="554.4" y2="207.7" gradientUnits="userSpaceOnUse">
<stop/>
<stop offset="0.2" stop-color="#060000"/>
<stop offset="0.3" stop-color="#1A0000"/>
<stop offset="0.5" stop-color="#3A0000"/>
<stop offset="0.6" stop-color="#680000" stop-opacity="0.9"/>
<stop offset="0.8" stop-color="#A20000" stop-opacity="0.9"/>
<stop offset="0.9" stop-color="#E80000" stop-opacity="0.8"/>
<stop offset="1" stop-color="#FF0000" stop-opacity="0.8"/>
</linearGradient>
<linearGradient id="paint42_linear_1868_6584" x1="608.6" y1="164.3" x2="547.2" y2="164.3" gradientUnits="userSpaceOnUse">
<stop/>
<stop offset="0.2" stop-color="#060000"/>
<stop offset="0.3" stop-color="#1A0000"/>
<stop offset="0.5" stop-color="#3A0000"/>
<stop offset="0.6" stop-color="#680000" stop-opacity="0.9"/>
<stop offset="0.8" stop-color="#A20000" stop-opacity="0.9"/>
<stop offset="0.9" stop-color="#E80000" stop-opacity="0.8"/>
<stop offset="1" stop-color="#FF0000" stop-opacity="0.8"/>
</linearGradient>
<linearGradient id="paint43_linear_1868_6584" x1="558.5" y1="97.4" x2="520.8" y2="97.4" gradientUnits="userSpaceOnUse">
<stop/>
<stop offset="0.2" stop-color="#060000"/>
<stop offset="0.3" stop-color="#1A0000"/>
<stop offset="0.5" stop-color="#3A0000"/>
<stop offset="0.6" stop-color="#680000" stop-opacity="0.9"/>
<stop offset="0.8" stop-color="#A20000" stop-opacity="0.9"/>
<stop offset="0.9" stop-color="#E80000" stop-opacity="0.8"/>
<stop offset="1" stop-color="#FF0000" stop-opacity="0.8"/>
</linearGradient>
<linearGradient id="paint44_linear_1868_6584" x1="647.2" y1="157.2" x2="559.4" y2="157.2" gradientUnits="userSpaceOnUse">
<stop/>
<stop offset="0.2" stop-color="#060000"/>
<stop offset="0.3" stop-color="#1A0000"/>
<stop offset="0.5" stop-color="#3A0000"/>
<stop offset="0.6" stop-color="#680000" stop-opacity="0.9"/>
<stop offset="0.8" stop-color="#A20000" stop-opacity="0.9"/>
<stop offset="0.9" stop-color="#E80000" stop-opacity="0.8"/>
<stop offset="1" stop-color="#FF0000" stop-opacity="0.8"/>
</linearGradient>
<linearGradient id="paint45_linear_1868_6584" x1="944" y1="478.9" x2="812.3" y2="478.9" gradientUnits="userSpaceOnUse">
<stop/>
<stop offset="0.2" stop-color="#060000"/>
<stop offset="0.3" stop-color="#1A0000"/>
<stop offset="0.5" stop-color="#3A0000"/>
<stop offset="0.6" stop-color="#680000" stop-opacity="0.9"/>
<stop offset="0.8" stop-color="#A20000" stop-opacity="0.9"/>
<stop offset="0.9" stop-color="#E80000" stop-opacity="0.8"/>
<stop offset="1" stop-color="#FF0000" stop-opacity="0.8"/>
</linearGradient>
<linearGradient id="paint46_linear_1868_6584" x1="830.8" y1="460.6" x2="710.4" y2="460.6" gradientUnits="userSpaceOnUse">
<stop/>
<stop offset="0.2" stop-color="#060000"/>
<stop offset="0.3" stop-color="#1A0000"/>
<stop offset="0.5" stop-color="#3A0000"/>
<stop offset="0.6" stop-color="#680000" stop-opacity="0.9"/>
<stop offset="0.8" stop-color="#A20000" stop-opacity="0.9"/>
<stop offset="0.9" stop-color="#E80000" stop-opacity="0.8"/>
<stop offset="1" stop-color="#FF0000" stop-opacity="0.8"/>
</linearGradient>
<linearGradient id="paint47_linear_1868_6584" x1="771.5" y1="391.901" x2="689.4" y2="391.901" gradientUnits="userSpaceOnUse">
<stop/>
<stop offset="0.2" stop-color="#060000"/>
<stop offset="0.3" stop-color="#1A0000"/>
<stop offset="0.5" stop-color="#3A0000"/>
<stop offset="0.6" stop-color="#680000" stop-opacity="0.9"/>
<stop offset="0.8" stop-color="#A20000" stop-opacity="0.9"/>
<stop offset="0.9" stop-color="#E80000" stop-opacity="0.8"/>
<stop offset="1" stop-color="#FF0000" stop-opacity="0.8"/>
</linearGradient>
<linearGradient id="paint48_linear_1868_6584" x1="696" y1="361.8" x2="641.2" y2="361.8" gradientUnits="userSpaceOnUse">
<stop/>
<stop offset="0.2" stop-color="#060000"/>
<stop offset="0.3" stop-color="#1A0000"/>
<stop offset="0.5" stop-color="#3A0000"/>
<stop offset="0.6" stop-color="#680000" stop-opacity="0.9"/>
<stop offset="0.8" stop-color="#A20000" stop-opacity="0.9"/>
<stop offset="0.9" stop-color="#E80000" stop-opacity="0.8"/>
<stop offset="1" stop-color="#FF0000" stop-opacity="0.8"/>
</linearGradient>
<linearGradient id="paint49_linear_1868_6584" x1="660.7" y1="569.3" x2="542.8" y2="569.3" gradientUnits="userSpaceOnUse">
<stop/>
<stop offset="1" stop-color="#FF0000"/>
</linearGradient>
<linearGradient id="paint50_linear_1868_6584" x1="587.9" y1="554.9" x2="540.7" y2="554.9" gradientUnits="userSpaceOnUse">
<stop/>
<stop offset="1" stop-color="#FF0000"/>
</linearGradient>
<linearGradient id="paint51_linear_1868_6584" x1="336.9" y1="376.8" x2="626.8" y2="376.8" gradientUnits="userSpaceOnUse">
<stop/>
<stop offset="1" stop-color="#FF0000"/>
</linearGradient>
<radialGradient id="paint52_radial_1868_6584" cx="0" cy="0" r="1" gradientUnits="userSpaceOnUse" gradientTransform="translate(482 142) scale(49.4 49.4)">
<stop stop-color="#050000"/>
<stop offset="0.2" stop-color="#160000"/>
<stop offset="0.4" stop-color="#310000"/>
<stop offset="0.5" stop-color="#560000"/>
<stop offset="0.7" stop-color="#870000"/>
<stop offset="0.8" stop-color="#C10000"/>
<stop offset="1" stop-color="#FF0000"/>
</radialGradient>
<radialGradient id="paint53_radial_1868_6584" cx="0" cy="0" r="1" gradientUnits="userSpaceOnUse" gradientTransform="translate(-29.4999 337.8) scale(415.5 415.5)">
<stop stop-color="#050000"/>
<stop offset="0.2" stop-color="#160000"/>
<stop offset="0.4" stop-color="#310000"/>
<stop offset="0.5" stop-color="#560000"/>
<stop offset="0.7" stop-color="#870000"/>
<stop offset="0.8" stop-color="#C10000"/>
<stop offset="1" stop-color="#FF0000"/>
</radialGradient>
<linearGradient id="paint54_linear_1868_6584" x1="1144.78" y1="445.997" x2="1144.78" y2="285.199" gradientUnits="userSpaceOnUse">
<stop/>
<stop offset="1" stop-color="#FF0000" stop-opacity="0.8"/>
</linearGradient>
<linearGradient id="paint55_linear_1868_6584" x1="1307.17" y1="-1228.09" x2="1307.17" y2="285.201" gradientUnits="userSpaceOnUse">
<stop/>
<stop offset="1" stop-color="#FF0000" stop-opacity="0.8"/>
</linearGradient>
<linearGradient id="paint56_linear_1868_6584" x1="1469.56" y1="-1228.09" x2="1469.56" y2="285.199" gradientUnits="userSpaceOnUse">
<stop/>
<stop offset="1" stop-color="#FF0000" stop-opacity="0.8"/>
</linearGradient>
<linearGradient id="paint57_linear_1868_6584" x1="1572.78" y1="-1228.09" x2="1572.78" y2="285.201" gradientUnits="userSpaceOnUse">
<stop/>
<stop offset="1" stop-color="#FF0000" stop-opacity="0.8"/>
</linearGradient>
<linearGradient id="paint58_linear_1868_6584" x1="1713.93" y1="-1228.09" x2="1713.93" y2="285.201" gradientUnits="userSpaceOnUse">
<stop/>
<stop offset="1" stop-color="#FF0000" stop-opacity="0.8"/>
</linearGradient>
<linearGradient id="paint59_linear_1868_6584" x1="1899.34" y1="-1228.09" x2="1899.34" y2="285.201" gradientUnits="userSpaceOnUse">
<stop/>
<stop offset="1" stop-color="#FF0000" stop-opacity="0.8"/>
</linearGradient>
<linearGradient id="paint60_linear_1868_6584" x1="2071.46" y1="445.798" x2="2071.46" y2="285.199" gradientUnits="userSpaceOnUse">
<stop/>
<stop offset="1" stop-color="#FF0000" stop-opacity="0.8"/>
</linearGradient>
<linearGradient id="paint61_linear_1868_6584" x1="2199.5" y1="-1228.09" x2="2199.5" y2="285.201" gradientUnits="userSpaceOnUse">
<stop/>
<stop offset="1" stop-color="#FF0000" stop-opacity="0.8"/>
</linearGradient>
<linearGradient id="paint62_linear_1868_6584" x1="2317.82" y1="-1228.09" x2="2317.82" y2="285.201" gradientUnits="userSpaceOnUse">
<stop/>
<stop offset="1" stop-color="#FF0000" stop-opacity="0.8"/>
</linearGradient>
</defs>
</svg>
