<?xml version="1.0" encoding="UTF-8"?>
<svg id="Layer_2" data-name="Layer 2" xmlns="http://www.w3.org/2000/svg" viewBox="0 0 550 606.94">
  <defs>
    <style>
      .cls-1 {
        fill: #2aff89;
      }

      .cls-1, .cls-2, .cls-3 {
        stroke-width: 0px;
      }

      .cls-2 {
        fill: #000;
      }

      .cls-3 {
        fill: #2ac8ff;
      }
    </style>
  </defs>
  <g id="Layer_1-2" data-name="Layer 1">
    <g>
      <path class="cls-3" d="M501.16,75.35c-1.79-1.62-3.63-3.2-5.47-4.76,15.39,27.46,20.89,59.03,18.85,93.3-8.35,113.97-85.09,249.64-160.24,333.61-43.6,47.89-95.98,89.27-157.52,55.51l-.15-.08c-21.36-10.89-45.13-32.14-66.34-54.95,2.61,3.38,5.25,6.74,7.93,10.07,25.99,32.66,62.3,70.62,93.47,86.51l.15.08c61.54,33.76,113.92-7.62,157.52-55.51,75.15-83.97,151.89-219.64,160.24-333.61,3.02-50.87-10.53-95.8-48.43-130.17Z"/>
      <g>
        <path class="cls-1" d="M495.69,70.58c-9.82-8.31-20.43-15.8-31.62-22.55,6,19.99,8.01,41.58,6.65,64.37-8.35,113.97-85.09,249.64-160.24,333.61-43.6,47.89-95.98,89.27-157.52,55.51l-.15-.08c-13.97-7.12-28.96-18.69-43.6-32.21,6.79,9.76,13.81,19.35,21.07,28.74,21.21,22.81,44.98,44.06,66.34,54.95l.15.08c61.54,33.76,113.92-7.62,157.52-55.51,75.15-83.97,151.89-219.64,160.24-333.61,2.04-34.27-3.47-65.84-18.85-93.3Z"/>
        <path class="cls-2" d="M152.96,501.52c61.54,33.76,113.92-7.62,157.52-55.51,75.15-83.97,151.89-219.64,160.24-333.61,1.35-22.79-.65-44.38-6.65-64.37-25.98-15.66-55.11-27.22-85-35.08C280.65-12.36,160.71-1.56,76.04,54.1c-26.89,17.58-50.72,41.14-63.39,70.88-32.25,79.51,3.11,170.86,39.31,246.77,16.7,33.96,35.79,66.62,57.24,97.48,14.64,13.52,29.63,25.08,43.6,32.21l.15.08Z"/>
      </g>
    </g>
  </g>
</svg>