<svg width="88" height="89" viewBox="0 0 88 89" fill="none" xmlns="http://www.w3.org/2000/svg">
<g filter="url(#filter0_d_2288_25165)">
<circle cx="44" cy="43.5" r="40" fill="#DDF5E5"/>
<circle cx="44" cy="43.5" r="41.6667" stroke="white" stroke-width="3.33333"/>
</g>
<g opacity="0.93">
<path d="M44 29.5C35.72 29.5 29 36.22 29 44.5C29 52.78 35.72 59.5 44 59.5C52.28 59.5 59 52.78 59 44.5C59 36.22 52.28 29.5 44 29.5ZM50.555 48.025L47.225 51.355C46.415 52.165 45.365 52.555 44.315 52.555C43.265 52.555 42.2 52.15 41.405 51.355C40.625 50.575 40.19 49.54 40.19 48.445C40.19 47.35 40.625 46.3 41.405 45.535L43.52 43.42C43.955 42.985 44.675 42.985 45.11 43.42C45.545 43.855 45.545 44.575 45.11 45.01L42.995 47.125C42.635 47.485 42.44 47.95 42.44 48.445C42.44 48.94 42.635 49.42 42.995 49.765C43.73 50.5 44.915 50.5 45.65 49.765L48.98 46.435C50.885 44.53 50.885 41.44 48.98 39.535C47.075 37.63 43.985 37.63 42.08 39.535L38.45 43.165C37.685 43.93 37.265 44.935 37.265 46C37.265 47.065 37.685 48.085 38.45 48.835C38.885 49.27 38.885 49.99 38.45 50.425C38.015 50.86 37.295 50.86 36.86 50.425C35.66 49.27 35 47.695 35 46.015C35 44.335 35.645 42.76 36.83 41.575L40.46 37.945C43.235 35.17 47.765 35.17 50.54 37.945C53.33 40.72 53.33 45.25 50.555 48.025Z" fill="#137536"/>
<path d="M44 29.5C35.72 29.5 29 36.22 29 44.5C29 52.78 35.72 59.5 44 59.5C52.28 59.5 59 52.78 59 44.5C59 36.22 52.28 29.5 44 29.5ZM50.555 48.025L47.225 51.355C46.415 52.165 45.365 52.555 44.315 52.555C43.265 52.555 42.2 52.15 41.405 51.355C40.625 50.575 40.19 49.54 40.19 48.445C40.19 47.35 40.625 46.3 41.405 45.535L43.52 43.42C43.955 42.985 44.675 42.985 45.11 43.42C45.545 43.855 45.545 44.575 45.11 45.01L42.995 47.125C42.635 47.485 42.44 47.95 42.44 48.445C42.44 48.94 42.635 49.42 42.995 49.765C43.73 50.5 44.915 50.5 45.65 49.765L48.98 46.435C50.885 44.53 50.885 41.44 48.98 39.535C47.075 37.63 43.985 37.63 42.08 39.535L38.45 43.165C37.685 43.93 37.265 44.935 37.265 46C37.265 47.065 37.685 48.085 38.45 48.835C38.885 49.27 38.885 49.99 38.45 50.425C38.015 50.86 37.295 50.86 36.86 50.425C35.66 49.27 35 47.695 35 46.015C35 44.335 35.645 42.76 36.83 41.575L40.46 37.945C43.235 35.17 47.765 35.17 50.54 37.945C53.33 40.72 53.33 45.25 50.555 48.025Z" fill="url(#paint0_linear_2288_25165)"/>
</g>
<defs>
<filter id="filter0_d_2288_25165" x="0.666992" y="0.166992" width="86.666" height="88.3327" filterUnits="userSpaceOnUse" color-interpolation-filters="sRGB">
<feFlood flood-opacity="0" result="BackgroundImageFix"/>
<feColorMatrix in="SourceAlpha" type="matrix" values="0 0 0 0 0 0 0 0 0 0 0 0 0 0 0 0 0 0 127 0" result="hardAlpha"/>
<feOffset dy="1.66667"/>
<feColorMatrix type="matrix" values="0 0 0 0 0 0 0 0 0 0 0 0 0 0 0 0 0 0 0.05 0"/>
<feBlend mode="normal" in2="BackgroundImageFix" result="effect1_dropShadow_2288_25165"/>
<feBlend mode="normal" in="SourceGraphic" in2="effect1_dropShadow_2288_25165" result="shape"/>
</filter>
<linearGradient id="paint0_linear_2288_25165" x1="44" y1="29.5" x2="44" y2="59.5" gradientUnits="userSpaceOnUse">
<stop stop-color="#1DB954"/>
<stop offset="1" stop-color="#0D5326"/>
</linearGradient>
</defs>
</svg>
