<svg width="26" height="28" viewBox="0 0 26 28" fill="none" xmlns="http://www.w3.org/2000/svg">
<path d="M24.334 11.587H20.4806C17.3207 11.587 14.7473 9.01366 14.7473 5.85366V2.00033C14.7473 1.26699 14.1473 0.666992 13.414 0.666992L7.76065 0.666992C3.65398 0.666992 0.333984 3.33366 0.333984 8.09366L0.333984 19.907C0.333984 24.667 3.65398 27.3337 7.76065 27.3337L18.2407 27.3337C22.3473 27.3337 25.6673 24.667 25.6673 19.907V12.9203C25.6673 12.187 25.0673 11.587 24.334 11.587ZM12.374 16.0403C12.174 16.2403 11.9207 16.3337 11.6673 16.3337C11.414 16.3337 11.1607 16.2403 10.9607 16.0403L10.0007 15.0803L10.0007 20.667C10.0007 21.2137 9.54732 21.667 9.00065 21.667C8.45398 21.667 8.00065 21.2137 8.00065 20.667V15.0803L7.04065 16.0403C6.65398 16.427 6.01398 16.427 5.62732 16.0403C5.24065 15.6537 5.24065 15.0137 5.62732 14.627L8.29398 11.9603C8.38732 11.8803 8.48065 11.8137 8.58732 11.7603C8.61398 11.747 8.65398 11.7337 8.68065 11.7203C8.76065 11.6937 8.84065 11.6803 8.93398 11.667C8.97398 11.667 9.00065 11.667 9.04065 11.667C9.14732 11.667 9.25398 11.6937 9.36065 11.7337C9.37398 11.7337 9.37398 11.7337 9.38732 11.7337C9.49398 11.7737 9.60065 11.8537 9.68065 11.9337C9.69398 11.947 9.70732 11.947 9.70732 11.9603L12.374 14.627C12.7606 15.0137 12.7606 15.6537 12.374 16.0403Z" fill="#7D8592"/>
<path d="M24.334 11.587H20.4806C17.3207 11.587 14.7473 9.01366 14.7473 5.85366V2.00033C14.7473 1.26699 14.1473 0.666992 13.414 0.666992L7.76065 0.666992C3.65398 0.666992 0.333984 3.33366 0.333984 8.09366L0.333984 19.907C0.333984 24.667 3.65398 27.3337 7.76065 27.3337L18.2407 27.3337C22.3473 27.3337 25.6673 24.667 25.6673 19.907V12.9203C25.6673 12.187 25.0673 11.587 24.334 11.587ZM12.374 16.0403C12.174 16.2403 11.9207 16.3337 11.6673 16.3337C11.414 16.3337 11.1607 16.2403 10.9607 16.0403L10.0007 15.0803L10.0007 20.667C10.0007 21.2137 9.54732 21.667 9.00065 21.667C8.45398 21.667 8.00065 21.2137 8.00065 20.667V15.0803L7.04065 16.0403C6.65398 16.427 6.01398 16.427 5.62732 16.0403C5.24065 15.6537 5.24065 15.0137 5.62732 14.627L8.29398 11.9603C8.38732 11.8803 8.48065 11.8137 8.58732 11.7603C8.61398 11.747 8.65398 11.7337 8.68065 11.7203C8.76065 11.6937 8.84065 11.6803 8.93398 11.667C8.97398 11.667 9.00065 11.667 9.04065 11.667C9.14732 11.667 9.25398 11.6937 9.36065 11.7337C9.37398 11.7337 9.37398 11.7337 9.38732 11.7337C9.49398 11.7737 9.60065 11.8537 9.68065 11.9337C9.69398 11.947 9.70732 11.947 9.70732 11.9603L12.374 14.627C12.7606 15.0137 12.7606 15.6537 12.374 16.0403Z" fill="url(#paint0_linear_1919_18574)"/>
<defs>
<linearGradient id="paint0_linear_1919_18574" x1="13.0007" y1="0.666992" x2="13.0007" y2="27.3337" gradientUnits="userSpaceOnUse">
<stop stop-color="#1DB954"/>
<stop offset="1" stop-color="#0D5326"/>
</linearGradient>
</defs>
</svg>
