<svg width="364" height="73" viewBox="0 0 364 73" fill="none" xmlns="http://www.w3.org/2000/svg">
<rect y="24.5" width="4" height="24" rx="2" fill="#7D8592"/>
<rect y="24.5" width="4" height="24" rx="2" fill="url(#paint0_linear_1907_67758)"/>
<rect x="8" y="22.5" width="4" height="28" rx="2" fill="#7D8592"/>
<rect x="8" y="22.5" width="4" height="28" rx="2" fill="url(#paint1_linear_1907_67758)"/>
<rect x="16" y="24.5" width="4" height="24" rx="2" fill="#7D8592"/>
<rect x="16" y="24.5" width="4" height="24" rx="2" fill="url(#paint2_linear_1907_67758)"/>
<rect x="24" y="28.5" width="4" height="16" rx="2" fill="#7D8592"/>
<rect x="24" y="28.5" width="4" height="16" rx="2" fill="url(#paint3_linear_1907_67758)"/>
<rect x="32" y="28.5" width="4" height="16" rx="2" fill="#7D8592"/>
<rect x="32" y="28.5" width="4" height="16" rx="2" fill="url(#paint4_linear_1907_67758)"/>
<rect x="40" y="22.5" width="4" height="28" rx="2" fill="#7D8592"/>
<rect x="40" y="22.5" width="4" height="28" rx="2" fill="url(#paint5_linear_1907_67758)"/>
<rect x="48" y="22.5" width="4" height="28" rx="2" fill="#7D8592"/>
<rect x="48" y="22.5" width="4" height="28" rx="2" fill="url(#paint6_linear_1907_67758)"/>
<rect x="56" y="26.5" width="4" height="20" rx="2" fill="#7D8592"/>
<rect x="56" y="26.5" width="4" height="20" rx="2" fill="url(#paint7_linear_1907_67758)"/>
<rect x="64" y="24.5" width="4" height="24" rx="2" fill="#7D8592"/>
<rect x="64" y="24.5" width="4" height="24" rx="2" fill="url(#paint8_linear_1907_67758)"/>
<rect x="72" y="24.5" width="4" height="24" rx="2" fill="#7D8592"/>
<rect x="72" y="24.5" width="4" height="24" rx="2" fill="url(#paint9_linear_1907_67758)"/>
<rect x="80" y="20.5" width="4" height="32" rx="2" fill="#7D8592"/>
<rect x="80" y="20.5" width="4" height="32" rx="2" fill="url(#paint10_linear_1907_67758)"/>
<rect x="88" y="24.5" width="4" height="24" rx="2" fill="#7D8592"/>
<rect x="88" y="24.5" width="4" height="24" rx="2" fill="url(#paint11_linear_1907_67758)"/>
<rect x="96" y="20.5" width="4" height="32" rx="2" fill="#7D8592"/>
<rect x="96" y="20.5" width="4" height="32" rx="2" fill="url(#paint12_linear_1907_67758)"/>
<rect x="104" y="24.5" width="4" height="24" rx="2" fill="#7D8592"/>
<rect x="104" y="24.5" width="4" height="24" rx="2" fill="url(#paint13_linear_1907_67758)"/>
<rect x="112" y="16.5" width="4" height="40" rx="2" fill="#7D8592"/>
<rect x="112" y="16.5" width="4" height="40" rx="2" fill="url(#paint14_linear_1907_67758)"/>
<rect x="120" y="20.5" width="4" height="32" rx="2" fill="#7D8592"/>
<rect x="120" y="20.5" width="4" height="32" rx="2" fill="url(#paint15_linear_1907_67758)"/>
<rect x="128" y="24.5" width="4" height="24" rx="2" fill="#7D8592"/>
<rect x="128" y="24.5" width="4" height="24" rx="2" fill="url(#paint16_linear_1907_67758)"/>
<rect x="136" y="20.5" width="4" height="32" rx="2" fill="#7D8592"/>
<rect x="136" y="20.5" width="4" height="32" rx="2" fill="url(#paint17_linear_1907_67758)"/>
<rect x="144" y="24.5" width="4" height="24" rx="2" fill="#7D8592"/>
<rect x="144" y="24.5" width="4" height="24" rx="2" fill="url(#paint18_linear_1907_67758)"/>
<rect x="152" y="22.5" width="4" height="28" rx="2" fill="#7D8592"/>
<rect x="152" y="22.5" width="4" height="28" rx="2" fill="url(#paint19_linear_1907_67758)"/>
<rect x="160" y="24.5" width="4" height="24" rx="2" fill="#7D8592"/>
<rect x="160" y="24.5" width="4" height="24" rx="2" fill="url(#paint20_linear_1907_67758)"/>
<rect x="168" y="16.5" width="4" height="40" rx="2" fill="#7D8592"/>
<rect x="168" y="16.5" width="4" height="40" rx="2" fill="url(#paint21_linear_1907_67758)"/>
<rect x="176" y="22.5" width="4" height="28" rx="2" fill="#7D8592"/>
<rect x="176" y="22.5" width="4" height="28" rx="2" fill="url(#paint22_linear_1907_67758)"/>
<rect x="184" y="24.5" width="4" height="24" rx="2" fill="#7D8592"/>
<rect x="184" y="24.5" width="4" height="24" rx="2" fill="url(#paint23_linear_1907_67758)"/>
<rect x="192" y="22.5" width="4" height="28" rx="2" fill="#7D8592"/>
<rect x="192" y="22.5" width="4" height="28" rx="2" fill="url(#paint24_linear_1907_67758)"/>
<rect x="200" y="24.5" width="4" height="24" rx="2" fill="#7D8592"/>
<rect x="200" y="24.5" width="4" height="24" rx="2" fill="url(#paint25_linear_1907_67758)"/>
<rect x="208" y="22.5" width="4" height="28" rx="2" fill="#7D8592"/>
<rect x="208" y="22.5" width="4" height="28" rx="2" fill="url(#paint26_linear_1907_67758)"/>
<rect x="216" y="24.5" width="4" height="24" rx="2" fill="#7D8592"/>
<rect x="216" y="24.5" width="4" height="24" rx="2" fill="url(#paint27_linear_1907_67758)"/>
<rect x="224" y="16.5" width="4" height="40" rx="2" fill="#7D8592"/>
<rect x="224" y="16.5" width="4" height="40" rx="2" fill="url(#paint28_linear_1907_67758)"/>
<rect x="232" y="22.5" width="4" height="28" rx="2" fill="#7D8592"/>
<rect x="232" y="22.5" width="4" height="28" rx="2" fill="url(#paint29_linear_1907_67758)"/>
<rect x="240" y="24.5" width="4" height="24" rx="2" fill="#7D8592"/>
<rect x="240" y="24.5" width="4" height="24" rx="2" fill="url(#paint30_linear_1907_67758)"/>
<rect x="248" y="16.5" width="4" height="40" rx="2" fill="#7D8592"/>
<rect x="248" y="16.5" width="4" height="40" rx="2" fill="url(#paint31_linear_1907_67758)"/>
<rect x="256" y="24.5" width="4" height="24" rx="2" fill="#7D8592"/>
<rect x="256" y="24.5" width="4" height="24" rx="2" fill="url(#paint32_linear_1907_67758)"/>
<rect x="264" y="23.5" width="4" height="26" rx="2" fill="#7D8592"/>
<rect x="264" y="23.5" width="4" height="26" rx="2" fill="url(#paint33_linear_1907_67758)"/>
<rect x="272" y="24.5" width="4" height="24" rx="2" fill="#7D8592"/>
<rect x="272" y="24.5" width="4" height="24" rx="2" fill="url(#paint34_linear_1907_67758)"/>
<rect x="280" y="16.5" width="4" height="40" rx="2" fill="#7D8592"/>
<rect x="280" y="16.5" width="4" height="40" rx="2" fill="url(#paint35_linear_1907_67758)"/>
<rect x="288" y="23.5" width="4" height="26" rx="2" fill="#7D8592"/>
<rect x="288" y="23.5" width="4" height="26" rx="2" fill="url(#paint36_linear_1907_67758)"/>
<rect x="296" y="24.5" width="4" height="24" rx="2" fill="#7D8592"/>
<rect x="296" y="24.5" width="4" height="24" rx="2" fill="url(#paint37_linear_1907_67758)"/>
<rect x="304" y="16.5" width="4" height="40" rx="2" fill="#7D8592"/>
<rect x="304" y="16.5" width="4" height="40" rx="2" fill="url(#paint38_linear_1907_67758)"/>
<rect x="312" y="24.5" width="4" height="24" rx="2" fill="#7D8592"/>
<rect x="312" y="24.5" width="4" height="24" rx="2" fill="url(#paint39_linear_1907_67758)"/>
<rect x="320" y="23.5" width="4" height="26" rx="2" fill="#7D8592"/>
<rect x="320" y="23.5" width="4" height="26" rx="2" fill="url(#paint40_linear_1907_67758)"/>
<rect x="328" y="24.5" width="4" height="24" rx="2" fill="#7D8592"/>
<rect x="328" y="24.5" width="4" height="24" rx="2" fill="url(#paint41_linear_1907_67758)"/>
<rect x="336" y="16.5" width="4" height="40" rx="2" fill="#7D8592"/>
<rect x="336" y="16.5" width="4" height="40" rx="2" fill="url(#paint42_linear_1907_67758)"/>
<rect x="344" y="23.5" width="4" height="26" rx="2" fill="#7D8592"/>
<rect x="344" y="23.5" width="4" height="26" rx="2" fill="url(#paint43_linear_1907_67758)"/>
<rect x="352" y="24.5" width="4" height="24" rx="2" fill="#7D8592"/>
<rect x="352" y="24.5" width="4" height="24" rx="2" fill="url(#paint44_linear_1907_67758)"/>
<rect x="360" y="23.5" width="4" height="26" rx="2" fill="#7D8592"/>
<rect x="360" y="23.5" width="4" height="26" rx="2" fill="url(#paint45_linear_1907_67758)"/>
<defs>
<linearGradient id="paint0_linear_1907_67758" x1="2" y1="24.5" x2="2" y2="48.5" gradientUnits="userSpaceOnUse">
<stop stop-color="#1DB954"/>
<stop offset="1" stop-color="#0D5326"/>
</linearGradient>
<linearGradient id="paint1_linear_1907_67758" x1="10" y1="22.5" x2="10" y2="50.5" gradientUnits="userSpaceOnUse">
<stop stop-color="#1DB954"/>
<stop offset="1" stop-color="#0D5326"/>
</linearGradient>
<linearGradient id="paint2_linear_1907_67758" x1="18" y1="24.5" x2="18" y2="48.5" gradientUnits="userSpaceOnUse">
<stop stop-color="#1DB954"/>
<stop offset="1" stop-color="#0D5326"/>
</linearGradient>
<linearGradient id="paint3_linear_1907_67758" x1="26" y1="28.5" x2="26" y2="44.5" gradientUnits="userSpaceOnUse">
<stop stop-color="#1DB954"/>
<stop offset="1" stop-color="#0D5326"/>
</linearGradient>
<linearGradient id="paint4_linear_1907_67758" x1="34" y1="28.5" x2="34" y2="44.5" gradientUnits="userSpaceOnUse">
<stop stop-color="#1DB954"/>
<stop offset="1" stop-color="#0D5326"/>
</linearGradient>
<linearGradient id="paint5_linear_1907_67758" x1="42" y1="22.5" x2="42" y2="50.5" gradientUnits="userSpaceOnUse">
<stop stop-color="#1DB954"/>
<stop offset="1" stop-color="#0D5326"/>
</linearGradient>
<linearGradient id="paint6_linear_1907_67758" x1="50" y1="22.5" x2="50" y2="50.5" gradientUnits="userSpaceOnUse">
<stop stop-color="#1DB954"/>
<stop offset="1" stop-color="#0D5326"/>
</linearGradient>
<linearGradient id="paint7_linear_1907_67758" x1="58" y1="26.5" x2="58" y2="46.5" gradientUnits="userSpaceOnUse">
<stop stop-color="#1DB954"/>
<stop offset="1" stop-color="#0D5326"/>
</linearGradient>
<linearGradient id="paint8_linear_1907_67758" x1="66" y1="24.5" x2="66" y2="48.5" gradientUnits="userSpaceOnUse">
<stop stop-color="#1DB954"/>
<stop offset="1" stop-color="#0D5326"/>
</linearGradient>
<linearGradient id="paint9_linear_1907_67758" x1="74" y1="24.5" x2="74" y2="48.5" gradientUnits="userSpaceOnUse">
<stop stop-color="#1DB954"/>
<stop offset="1" stop-color="#0D5326"/>
</linearGradient>
<linearGradient id="paint10_linear_1907_67758" x1="82" y1="20.5" x2="82" y2="52.5" gradientUnits="userSpaceOnUse">
<stop stop-color="#1DB954"/>
<stop offset="1" stop-color="#0D5326"/>
</linearGradient>
<linearGradient id="paint11_linear_1907_67758" x1="90" y1="24.5" x2="90" y2="48.5" gradientUnits="userSpaceOnUse">
<stop stop-color="#1DB954"/>
<stop offset="1" stop-color="#0D5326"/>
</linearGradient>
<linearGradient id="paint12_linear_1907_67758" x1="98" y1="20.5" x2="98" y2="52.5" gradientUnits="userSpaceOnUse">
<stop stop-color="#1DB954"/>
<stop offset="1" stop-color="#0D5326"/>
</linearGradient>
<linearGradient id="paint13_linear_1907_67758" x1="106" y1="24.5" x2="106" y2="48.5" gradientUnits="userSpaceOnUse">
<stop stop-color="#1DB954"/>
<stop offset="1" stop-color="#0D5326"/>
</linearGradient>
<linearGradient id="paint14_linear_1907_67758" x1="114" y1="16.5" x2="114" y2="56.5" gradientUnits="userSpaceOnUse">
<stop stop-color="#1DB954"/>
<stop offset="1" stop-color="#0D5326"/>
</linearGradient>
<linearGradient id="paint15_linear_1907_67758" x1="122" y1="20.5" x2="122" y2="52.5" gradientUnits="userSpaceOnUse">
<stop stop-color="#1DB954"/>
<stop offset="1" stop-color="#0D5326"/>
</linearGradient>
<linearGradient id="paint16_linear_1907_67758" x1="130" y1="24.5" x2="130" y2="48.5" gradientUnits="userSpaceOnUse">
<stop stop-color="#1DB954"/>
<stop offset="1" stop-color="#0D5326"/>
</linearGradient>
<linearGradient id="paint17_linear_1907_67758" x1="138" y1="20.5" x2="138" y2="52.5" gradientUnits="userSpaceOnUse">
<stop stop-color="#1DB954"/>
<stop offset="1" stop-color="#0D5326"/>
</linearGradient>
<linearGradient id="paint18_linear_1907_67758" x1="146" y1="24.5" x2="146" y2="48.5" gradientUnits="userSpaceOnUse">
<stop stop-color="#1DB954"/>
<stop offset="1" stop-color="#0D5326"/>
</linearGradient>
<linearGradient id="paint19_linear_1907_67758" x1="154" y1="22.5" x2="154" y2="50.5" gradientUnits="userSpaceOnUse">
<stop stop-color="#1DB954"/>
<stop offset="1" stop-color="#0D5326"/>
</linearGradient>
<linearGradient id="paint20_linear_1907_67758" x1="162" y1="24.5" x2="162" y2="48.5" gradientUnits="userSpaceOnUse">
<stop stop-color="#1DB954"/>
<stop offset="1" stop-color="#0D5326"/>
</linearGradient>
<linearGradient id="paint21_linear_1907_67758" x1="170" y1="16.5" x2="170" y2="56.5" gradientUnits="userSpaceOnUse">
<stop stop-color="#1DB954"/>
<stop offset="1" stop-color="#0D5326"/>
</linearGradient>
<linearGradient id="paint22_linear_1907_67758" x1="178" y1="22.5" x2="178" y2="50.5" gradientUnits="userSpaceOnUse">
<stop stop-color="#1DB954"/>
<stop offset="1" stop-color="#0D5326"/>
</linearGradient>
<linearGradient id="paint23_linear_1907_67758" x1="186" y1="24.5" x2="186" y2="48.5" gradientUnits="userSpaceOnUse">
<stop stop-color="#1DB954"/>
<stop offset="1" stop-color="#0D5326"/>
</linearGradient>
<linearGradient id="paint24_linear_1907_67758" x1="194" y1="22.5" x2="194" y2="50.5" gradientUnits="userSpaceOnUse">
<stop stop-color="#1DB954"/>
<stop offset="1" stop-color="#0D5326"/>
</linearGradient>
<linearGradient id="paint25_linear_1907_67758" x1="202" y1="24.5" x2="202" y2="48.5" gradientUnits="userSpaceOnUse">
<stop stop-color="#1DB954"/>
<stop offset="1" stop-color="#0D5326"/>
</linearGradient>
<linearGradient id="paint26_linear_1907_67758" x1="210" y1="22.5" x2="210" y2="50.5" gradientUnits="userSpaceOnUse">
<stop stop-color="#1DB954"/>
<stop offset="1" stop-color="#0D5326"/>
</linearGradient>
<linearGradient id="paint27_linear_1907_67758" x1="218" y1="24.5" x2="218" y2="48.5" gradientUnits="userSpaceOnUse">
<stop stop-color="#1DB954"/>
<stop offset="1" stop-color="#0D5326"/>
</linearGradient>
<linearGradient id="paint28_linear_1907_67758" x1="226" y1="16.5" x2="226" y2="56.5" gradientUnits="userSpaceOnUse">
<stop stop-color="#1DB954"/>
<stop offset="1" stop-color="#0D5326"/>
</linearGradient>
<linearGradient id="paint29_linear_1907_67758" x1="234" y1="22.5" x2="234" y2="50.5" gradientUnits="userSpaceOnUse">
<stop stop-color="#1DB954"/>
<stop offset="1" stop-color="#0D5326"/>
</linearGradient>
<linearGradient id="paint30_linear_1907_67758" x1="242" y1="24.5" x2="242" y2="48.5" gradientUnits="userSpaceOnUse">
<stop stop-color="#1DB954"/>
<stop offset="1" stop-color="#0D5326"/>
</linearGradient>
<linearGradient id="paint31_linear_1907_67758" x1="250" y1="16.5" x2="250" y2="56.5" gradientUnits="userSpaceOnUse">
<stop stop-color="#1DB954"/>
<stop offset="1" stop-color="#0D5326"/>
</linearGradient>
<linearGradient id="paint32_linear_1907_67758" x1="258" y1="24.5" x2="258" y2="48.5" gradientUnits="userSpaceOnUse">
<stop stop-color="#1DB954"/>
<stop offset="1" stop-color="#0D5326"/>
</linearGradient>
<linearGradient id="paint33_linear_1907_67758" x1="266" y1="23.5" x2="266" y2="49.5" gradientUnits="userSpaceOnUse">
<stop stop-color="#1DB954"/>
<stop offset="1" stop-color="#0D5326"/>
</linearGradient>
<linearGradient id="paint34_linear_1907_67758" x1="274" y1="24.5" x2="274" y2="48.5" gradientUnits="userSpaceOnUse">
<stop stop-color="#1DB954"/>
<stop offset="1" stop-color="#0D5326"/>
</linearGradient>
<linearGradient id="paint35_linear_1907_67758" x1="282" y1="16.5" x2="282" y2="56.5" gradientUnits="userSpaceOnUse">
<stop stop-color="#1DB954"/>
<stop offset="1" stop-color="#0D5326"/>
</linearGradient>
<linearGradient id="paint36_linear_1907_67758" x1="290" y1="23.5" x2="290" y2="49.5" gradientUnits="userSpaceOnUse">
<stop stop-color="#1DB954"/>
<stop offset="1" stop-color="#0D5326"/>
</linearGradient>
<linearGradient id="paint37_linear_1907_67758" x1="298" y1="24.5" x2="298" y2="48.5" gradientUnits="userSpaceOnUse">
<stop stop-color="#1DB954"/>
<stop offset="1" stop-color="#0D5326"/>
</linearGradient>
<linearGradient id="paint38_linear_1907_67758" x1="306" y1="16.5" x2="306" y2="56.5" gradientUnits="userSpaceOnUse">
<stop stop-color="#1DB954"/>
<stop offset="1" stop-color="#0D5326"/>
</linearGradient>
<linearGradient id="paint39_linear_1907_67758" x1="314" y1="24.5" x2="314" y2="48.5" gradientUnits="userSpaceOnUse">
<stop stop-color="#1DB954"/>
<stop offset="1" stop-color="#0D5326"/>
</linearGradient>
<linearGradient id="paint40_linear_1907_67758" x1="322" y1="23.5" x2="322" y2="49.5" gradientUnits="userSpaceOnUse">
<stop stop-color="#1DB954"/>
<stop offset="1" stop-color="#0D5326"/>
</linearGradient>
<linearGradient id="paint41_linear_1907_67758" x1="330" y1="24.5" x2="330" y2="48.5" gradientUnits="userSpaceOnUse">
<stop stop-color="#1DB954"/>
<stop offset="1" stop-color="#0D5326"/>
</linearGradient>
<linearGradient id="paint42_linear_1907_67758" x1="338" y1="16.5" x2="338" y2="56.5" gradientUnits="userSpaceOnUse">
<stop stop-color="#1DB954"/>
<stop offset="1" stop-color="#0D5326"/>
</linearGradient>
<linearGradient id="paint43_linear_1907_67758" x1="346" y1="23.5" x2="346" y2="49.5" gradientUnits="userSpaceOnUse">
<stop stop-color="#1DB954"/>
<stop offset="1" stop-color="#0D5326"/>
</linearGradient>
<linearGradient id="paint44_linear_1907_67758" x1="354" y1="24.5" x2="354" y2="48.5" gradientUnits="userSpaceOnUse">
<stop stop-color="#1DB954"/>
<stop offset="1" stop-color="#0D5326"/>
</linearGradient>
<linearGradient id="paint45_linear_1907_67758" x1="362" y1="23.5" x2="362" y2="49.5" gradientUnits="userSpaceOnUse">
<stop stop-color="#1DB954"/>
<stop offset="1" stop-color="#0D5326"/>
</linearGradient>
</defs>
</svg>
