<svg width="42" height="42" viewBox="0 0 42 42" fill="none" xmlns="http://www.w3.org/2000/svg">
<path d="M35.4375 0H6.5625C2.93813 0 0 2.93813 0 6.5625V35.4375C0 39.0619 2.93813 42 6.5625 42H35.4375C39.0619 42 42 39.0619 42 35.4375V6.5625C42 2.93813 39.0619 0 35.4375 0Z" fill="#F00073"/>
<path d="M21.0002 12.0742C23.8877 12.0742 24.2814 12.0742 25.4627 12.0742C26.5127 12.0742 27.0377 12.3367 27.4314 12.468C27.9564 12.7305 28.3502 12.8617 28.7439 13.2555C29.1377 13.6492 29.4002 14.043 29.5314 14.568C29.6627 14.9617 29.7939 15.4867 29.9252 16.5367C29.9252 17.718 29.9252 17.9805 29.9252 20.9992C29.9252 24.018 29.9252 24.2805 29.9252 25.4617C29.9252 26.5117 29.6627 27.0367 29.5314 27.4305C29.2689 27.9555 29.1377 28.3492 28.7439 28.743C28.3502 29.1367 27.9564 29.3992 27.4314 29.5305C27.0377 29.6617 26.5127 29.793 25.4627 29.9242C24.2814 29.9242 24.0189 29.9242 21.0002 29.9242C17.9814 29.9242 17.7189 29.9242 16.5377 29.9242C15.4877 29.9242 14.9627 29.6617 14.5689 29.5305C14.0439 29.268 13.6502 29.1367 13.2564 28.743C12.8627 28.3492 12.6002 27.9555 12.4689 27.4305C12.3377 27.0367 12.2064 26.5117 12.0752 25.4617C12.0752 24.2805 12.0752 24.018 12.0752 20.9992C12.0752 17.9805 12.0752 17.718 12.0752 16.5367C12.0752 15.4867 12.3377 14.9617 12.4689 14.568C12.7314 14.043 12.8627 13.6492 13.2564 13.2555C13.6502 12.8617 14.0439 12.5992 14.5689 12.468C14.9627 12.3367 15.4877 12.2055 16.5377 12.0742C17.7189 12.0742 18.1127 12.0742 21.0002 12.0742ZM21.0002 10.1055C17.9814 10.1055 17.7189 10.1055 16.5377 10.1055C15.3564 10.1055 14.5689 10.368 13.9127 10.6305C13.2564 10.893 12.6002 11.2867 11.9439 11.943C11.2877 12.5992 11.0252 13.1242 10.6314 13.9117C10.3689 14.568 10.2377 15.3555 10.1064 16.5367C10.1064 17.718 10.1064 18.1117 10.1064 20.9992C10.1064 24.018 10.1064 24.2805 10.1064 25.4617C10.1064 26.643 10.3689 27.4305 10.6314 28.0867C10.8939 28.743 11.2877 29.3992 11.9439 30.0555C12.6002 30.7117 13.1252 30.9742 13.9127 31.368C14.5689 31.6305 15.3564 31.7617 16.5377 31.893C17.7189 31.893 18.1127 31.893 21.0002 31.893C23.8877 31.893 24.2814 31.893 25.4627 31.893C26.6439 31.893 27.4314 31.6305 28.0877 31.368C28.7439 31.1055 29.4002 30.7117 30.0564 30.0555C30.7127 29.3992 30.9752 28.8742 31.3689 28.0867C31.6314 27.4305 31.7627 26.643 31.8939 25.4617C31.8939 24.2805 31.8939 23.8867 31.8939 20.9992C31.8939 18.1117 31.8939 17.718 31.8939 16.5367C31.8939 15.3555 31.6314 14.568 31.3689 13.9117C31.1064 13.2555 30.7127 12.5992 30.0564 11.943C29.4002 11.2867 28.8752 11.0242 28.0877 10.6305C27.4314 10.368 26.6439 10.2367 25.4627 10.1055C24.2814 10.1055 24.0189 10.1055 21.0002 10.1055Z" fill="white"/>
<path d="M21.0002 15.3555C17.8502 15.3555 15.3564 17.8492 15.3564 20.9992C15.3564 24.1492 17.8502 26.643 21.0002 26.643C24.1502 26.643 26.6439 24.1492 26.6439 20.9992C26.6439 17.8492 24.1502 15.3555 21.0002 15.3555ZM21.0002 24.6742C19.0314 24.6742 17.3252 23.0992 17.3252 20.9992C17.3252 19.0305 18.9002 17.3242 21.0002 17.3242C22.9689 17.3242 24.6752 18.8992 24.6752 20.9992C24.6752 22.968 22.9689 24.6742 21.0002 24.6742Z" fill="white"/>
<path d="M26.7752 16.5367C27.5001 16.5367 28.0877 15.9491 28.0877 15.2242C28.0877 14.4993 27.5001 13.9117 26.7752 13.9117C26.0503 13.9117 25.4627 14.4993 25.4627 15.2242C25.4627 15.9491 26.0503 16.5367 26.7752 16.5367Z" fill="white"/>
</svg>
