<svg width="28" height="28" viewBox="0 0 28 28" fill="none" xmlns="http://www.w3.org/2000/svg">
<path d="M27.3307 4.66667C27.3307 3.60001 26.9174 2.58667 26.1574 1.84001C25.3974 1.08001 24.3974 0.666672 23.3307 0.666672H4.66406C3.5974 0.666672 2.58406 1.08001 1.8374 1.84001C1.0774 2.60001 0.664062 3.60001 0.664062 4.66667V18.0133C0.664062 19.08 1.09073 20.0933 1.85073 20.84C2.61073 21.6 3.61073 22.0133 4.6774 22.0133H5.9974V26C5.9974 26.5067 6.29073 26.9733 6.7574 27.2C6.94406 27.2933 7.14406 27.3333 7.33073 27.3333C7.62406 27.3333 7.91739 27.24 8.15739 27.04L14.4641 22.0133H23.3441C24.4107 22.0133 25.4107 21.6 26.1707 20.84C26.9307 20.08 27.3441 19.08 27.3441 18.0133V4.66667H27.3307ZM24.2907 18.96C24.0374 19.2133 23.7041 19.3467 23.3441 19.3467H13.9974C13.6907 19.3467 13.3974 19.4533 13.1707 19.64L8.66406 23.2267V20.68C8.66406 19.9467 8.06406 19.3467 7.33073 19.3467H4.6774C4.3174 19.3467 3.98406 19.2133 3.73073 18.96C3.4774 18.7067 3.34406 18.3733 3.34406 18.0133V4.66667C3.34406 4.32001 3.4774 3.97334 3.7174 3.72001C3.97073 3.46667 4.30406 3.33334 4.66406 3.33334H23.3307C23.6907 3.33334 24.0241 3.46667 24.2774 3.72001C24.5307 3.97334 24.6641 4.30667 24.6641 4.66667V18.0133C24.6641 18.36 24.5307 18.7067 24.2907 18.96ZM9.65073 8.32001C9.02406 8.94667 8.67739 9.78667 8.67739 10.68V14.4533C8.67739 15.1867 9.2774 15.7867 10.0107 15.7867C10.7441 15.7867 11.3441 15.1867 11.3441 14.4533V14.0533H12.6774V14.4533C12.6774 15.1867 13.2774 15.7867 14.0107 15.7867C14.7441 15.7867 15.3441 15.1867 15.3441 14.4533V10.68C15.3441 9.78667 14.9974 8.94667 14.3707 8.32001C13.1307 7.06667 10.9041 7.06667 9.65073 8.32001ZM11.3441 11.3867V10.68C11.3441 10.5067 11.4107 10.3333 11.5441 10.2133C11.7841 9.97334 12.2241 9.96001 12.4907 10.2133C12.6107 10.3333 12.6774 10.5067 12.6774 10.68V11.3867H11.3441ZM19.3441 8.68001V14.4533C19.3441 15.1867 18.7441 15.7867 18.0107 15.7867C17.2774 15.7867 16.6774 15.1867 16.6774 14.4533V8.68001C16.6774 7.94667 17.2774 7.34667 18.0107 7.34667C18.7441 7.34667 19.3441 7.94667 19.3441 8.68001Z" fill="url(#paint0_linear_8675_106223)"/>
<defs>
<linearGradient id="paint0_linear_8675_106223" x1="14.0041" y1="0.666672" x2="14.0041" y2="27.3333" gradientUnits="userSpaceOnUse">
<stop stop-color="white"/>
<stop offset="1" stop-color="#9E9E9E"/>
</linearGradient>
</defs>
</svg>
