<svg width="21" height="19" viewBox="0 0 21 19" fill="none" xmlns="http://www.w3.org/2000/svg">
<path d="M5.25 4.49886H8.98125C9.25406 4.48292 14.0081 4.14823 18.5353 0.351359C18.7539 0.167752 19.0204 0.0503474 19.3034 0.0129358C19.5865 -0.0244758 19.8743 0.01966 20.1331 0.140159C20.3919 0.260657 20.611 0.452513 20.7645 0.69319C20.9181 0.933867 20.9998 1.21337 21 1.49886L21 16.4989C21 16.7844 20.9184 17.0641 20.7649 17.3049C20.6114 17.5457 20.3924 17.7377 20.1335 17.8583C19.8747 17.9789 19.5868 18.0231 19.3037 17.9858C19.0206 17.9484 18.754 17.831 18.5353 17.6473C14.9944 14.6773 11.3166 13.826 9.75 13.5879V16.5617C9.75031 16.8088 9.68954 17.0523 9.57309 17.2703C9.45664 17.4883 9.28811 17.6742 9.0825 17.8114L8.05125 18.4985C7.85192 18.6316 7.62362 18.7149 7.38546 18.7416C7.1473 18.7683 6.90622 18.7375 6.68241 18.6518C6.45859 18.5662 6.25855 18.4282 6.09904 18.2493C5.93954 18.0704 5.82521 17.856 5.76562 17.6239L4.66219 13.4651C3.5215 13.325 2.47765 12.7537 1.74473 11.8685C1.01181 10.9832 0.645365 9.85112 0.720547 8.70431C0.795731 7.5575 1.30684 6.48292 2.14906 5.70095C2.99128 4.91897 4.10077 4.48888 5.25 4.49886ZM7.21875 17.2385V17.2489L8.25 16.5617V13.4989H6.225L7.21875 17.2385ZM5.25 11.9989H8.25L8.25 5.99886H5.25C4.45435 5.99886 3.69129 6.31493 3.12868 6.87754C2.56607 7.44015 2.25 8.20321 2.25 8.99886C2.25 9.79451 2.56607 10.5576 3.12868 11.1202C3.69129 11.6828 4.45435 11.9989 5.25 11.9989Z" fill="black"/>
</svg>
