<svg width="19" height="19" viewBox="0 0 19 19" fill="none" xmlns="http://www.w3.org/2000/svg">
<path d="M7.29751 14.9201C6.8747 15.8444 5.46376 18.0007 1.49908 18.0007C1.30016 18.0007 1.1094 17.9217 0.968746 17.781C0.828094 17.6404 0.749076 17.4496 0.749076 17.2507C0.749076 13.286 2.90533 11.8751 3.8297 11.4523C3.91933 11.4114 4.01613 11.3886 4.11458 11.3851C4.21302 11.3816 4.31119 11.3976 4.40346 11.4321C4.49574 11.4665 4.58033 11.5189 4.65239 11.586C4.72445 11.6532 4.78258 11.7339 4.82345 11.8235C4.86432 11.9131 4.88715 12.0099 4.89061 12.1084C4.89407 12.2068 4.87811 12.305 4.84364 12.3973C4.80916 12.4896 4.75685 12.5741 4.68969 12.6462C4.62253 12.7183 4.54183 12.7764 4.4522 12.8173C3.84939 13.0919 2.51908 13.976 2.2847 16.4651C4.77376 16.2307 5.6597 14.9004 5.93251 14.2976C5.97339 14.2079 6.03151 14.1272 6.10358 14.0601C6.17564 13.9929 6.26022 13.9406 6.3525 13.9061C6.44478 13.8717 6.54294 13.8557 6.64139 13.8592C6.73984 13.8626 6.83664 13.8854 6.92626 13.9263C7.01589 13.9672 7.09659 14.0253 7.16375 14.0974C7.23092 14.1694 7.28323 14.254 7.3177 14.3463C7.35217 14.4386 7.36814 14.5368 7.36467 14.6352C7.36121 14.7336 7.33839 14.8304 7.29751 14.9201ZM18.735 1.42007C18.7128 1.05438 18.5575 0.709462 18.2984 0.450401C18.0394 0.191339 17.6945 0.0360463 17.3288 0.0138229C16.1494 -0.0564896 13.1353 0.0513228 10.635 2.55164L5.99908 7.19132C5.92945 7.26107 5.84678 7.31642 5.75577 7.35421C5.66476 7.392 5.56719 7.4115 5.46865 7.41158C5.26962 7.41176 5.07868 7.33287 4.93783 7.19226C4.79697 7.05165 4.71774 6.86085 4.71757 6.66183C4.71739 6.46281 4.79628 6.27187 4.93689 6.13101L7.42689 3.64007C7.47902 3.58764 7.51448 3.52096 7.52882 3.44842C7.54316 3.37589 7.53574 3.30073 7.50748 3.2324C7.47923 3.16407 7.43141 3.10562 7.37003 3.0644C7.30865 3.02317 7.23645 3.00101 7.16251 3.0007H4.71939C4.5218 2.99966 4.32597 3.03791 4.1433 3.11323C3.96063 3.18855 3.79476 3.29944 3.65533 3.43945L0.439701 6.65695C0.242496 6.85402 0.104115 7.10215 0.0400901 7.37349C-0.0239351 7.64484 -0.0110716 7.92866 0.0772373 8.1931C0.165546 8.45754 0.325805 8.69213 0.540029 8.87056C0.754253 9.04898 1.01396 9.16417 1.29001 9.2032L4.89658 9.70664L9.04126 13.8513L9.5447 17.4598C9.58342 17.7358 9.69858 17.9956 9.87717 18.2096C10.0558 18.4236 10.2907 18.5835 10.5553 18.671C10.7095 18.7225 10.8709 18.7488 11.0335 18.7488C11.2302 18.7492 11.4252 18.7106 11.607 18.6353C11.7888 18.56 11.9539 18.4495 12.0928 18.3101L15.3103 15.0944C15.4499 14.9547 15.5605 14.7888 15.6358 14.6062C15.7111 14.4236 15.7496 14.2279 15.7491 14.0304V11.5873C15.7489 11.5131 15.7269 11.4407 15.6856 11.3791C15.6443 11.3175 15.5857 11.2696 15.5172 11.2413C15.4487 11.213 15.3733 11.2056 15.3006 11.2202C15.2279 11.2347 15.1612 11.2704 15.1088 11.3229L12.6178 13.8129C12.545 13.8858 12.4579 13.9429 12.3619 13.9807C12.266 14.0185 12.1634 14.036 12.0603 14.0323C11.9573 14.0287 11.8562 14.0038 11.7632 13.9592C11.6702 13.9147 11.5875 13.8515 11.52 13.7735C11.397 13.6247 11.3345 13.435 11.3449 13.2422C11.3553 13.0494 11.4379 12.8676 11.5763 12.7329L16.1953 8.11382C18.6975 5.61257 18.8053 2.59851 18.735 1.4182V1.42007Z" fill="black"/>
</svg>
