<svg width="32" height="32" viewBox="0 0 32 32" fill="none" xmlns="http://www.w3.org/2000/svg">
<path d="M25.4932 12.1598C24.9732 12.1598 24.5599 12.5732 24.5599 13.0932V15.1998C24.5599 19.9198 20.7199 23.7598 15.9999 23.7598C11.2799 23.7598 7.43991 19.9198 7.43991 15.1998V13.0798C7.43991 12.5598 7.02658 12.1465 6.50658 12.1465C5.98658 12.1465 5.57324 12.5598 5.57324 13.0798V15.1865C5.57324 20.6132 9.74658 25.0798 15.0666 25.5598V28.3998C15.0666 28.9198 15.4799 29.3332 15.9999 29.3332C16.5199 29.3332 16.9332 28.9198 16.9332 28.3998V25.5598C22.2399 25.0932 26.4266 20.6132 26.4266 15.1865V13.0798C26.4132 12.5732 25.9999 12.1598 25.4932 12.1598Z" fill="#045C44"/>
<path d="M25.4932 12.1598C24.9732 12.1598 24.5599 12.5732 24.5599 13.0932V15.1998C24.5599 19.9198 20.7199 23.7598 15.9999 23.7598C11.2799 23.7598 7.43991 19.9198 7.43991 15.1998V13.0798C7.43991 12.5598 7.02658 12.1465 6.50658 12.1465C5.98658 12.1465 5.57324 12.5598 5.57324 13.0798V15.1865C5.57324 20.6132 9.74658 25.0798 15.0666 25.5598V28.3998C15.0666 28.9198 15.4799 29.3332 15.9999 29.3332C16.5199 29.3332 16.9332 28.9198 16.9332 28.3998V25.5598C22.2399 25.0932 26.4266 20.6132 26.4266 15.1865V13.0798C26.4132 12.5732 25.9999 12.1598 25.4932 12.1598Z" fill="url(#paint0_linear_977_22484)"/>
<path d="M15.9998 2.6665C12.7464 2.6665 10.1064 5.3065 10.1064 8.55984V15.3865C10.1064 18.6398 12.7464 21.2798 15.9998 21.2798C19.2531 21.2798 21.8931 18.6398 21.8931 15.3865V8.55984C21.8931 5.3065 19.2531 2.6665 15.9998 2.6665ZM17.7464 11.9332C17.6531 12.2798 17.3464 12.5065 16.9998 12.5065C16.9331 12.5065 16.8664 12.4932 16.7998 12.4798C16.2798 12.3332 15.7331 12.3332 15.2131 12.4798C14.7864 12.5998 14.3731 12.3465 14.2664 11.9332C14.1464 11.5198 14.3998 11.0932 14.8131 10.9865C15.5998 10.7732 16.4264 10.7732 17.2131 10.9865C17.6131 11.0932 17.8531 11.5198 17.7464 11.9332ZM18.4531 9.3465C18.3331 9.6665 18.0398 9.85317 17.7198 9.85317C17.6264 9.85317 17.5464 9.83984 17.4531 9.81317C16.5198 9.4665 15.4798 9.4665 14.5464 9.81317C14.1464 9.95984 13.6931 9.7465 13.5464 9.3465C13.3998 8.9465 13.6131 8.49317 14.0131 8.35984C15.2931 7.89317 16.7064 7.89317 17.9864 8.35984C18.3864 8.5065 18.5998 8.9465 18.4531 9.3465Z" fill="#045C44"/>
<path d="M15.9998 2.6665C12.7464 2.6665 10.1064 5.3065 10.1064 8.55984V15.3865C10.1064 18.6398 12.7464 21.2798 15.9998 21.2798C19.2531 21.2798 21.8931 18.6398 21.8931 15.3865V8.55984C21.8931 5.3065 19.2531 2.6665 15.9998 2.6665ZM17.7464 11.9332C17.6531 12.2798 17.3464 12.5065 16.9998 12.5065C16.9331 12.5065 16.8664 12.4932 16.7998 12.4798C16.2798 12.3332 15.7331 12.3332 15.2131 12.4798C14.7864 12.5998 14.3731 12.3465 14.2664 11.9332C14.1464 11.5198 14.3998 11.0932 14.8131 10.9865C15.5998 10.7732 16.4264 10.7732 17.2131 10.9865C17.6131 11.0932 17.8531 11.5198 17.7464 11.9332ZM18.4531 9.3465C18.3331 9.6665 18.0398 9.85317 17.7198 9.85317C17.6264 9.85317 17.5464 9.83984 17.4531 9.81317C16.5198 9.4665 15.4798 9.4665 14.5464 9.81317C14.1464 9.95984 13.6931 9.7465 13.5464 9.3465C13.3998 8.9465 13.6131 8.49317 14.0131 8.35984C15.2931 7.89317 16.7064 7.89317 17.9864 8.35984C18.3864 8.5065 18.5998 8.9465 18.4531 9.3465Z" fill="url(#paint1_linear_977_22484)"/>
<defs>
<linearGradient id="paint0_linear_977_22484" x1="15.9999" y1="12.1465" x2="15.9999" y2="29.3332" gradientUnits="userSpaceOnUse">
<stop stop-color="#1DB954"/>
<stop offset="1" stop-color="#0D5326"/>
</linearGradient>
<linearGradient id="paint1_linear_977_22484" x1="15.9998" y1="2.6665" x2="15.9998" y2="21.2798" gradientUnits="userSpaceOnUse">
<stop stop-color="#1DB954"/>
<stop offset="1" stop-color="#0D5326"/>
</linearGradient>
</defs>
</svg>
