<svg width="32" height="32" viewBox="0 0 32 32" fill="none" xmlns="http://www.w3.org/2000/svg">
<path opacity="0.4" d="M23.653 10.0933C23.6663 10.1866 23.6663 10.2933 23.653 10.3866C23.653 10.2933 23.6396 10.1999 23.6396 10.1066L23.653 10.0933Z" fill="white"/>
<path d="M23.0402 8.74683L5.10684 26.6802C3.24017 25.4935 2.50684 23.3735 2.50684 21.3335V10.6668C2.50684 6.10683 4.28017 4.3335 8.84017 4.3335H16.8402C20.6935 4.3335 22.5468 5.60016 23.0402 8.74683Z" fill="white"/>
<path d="M28.5337 2.97334C28.1337 2.57334 27.4803 2.57334 27.0803 2.97334L2.46699 27.5867C2.06699 27.9867 2.06699 28.64 2.46699 29.04C2.66699 29.2267 2.93366 29.3333 3.18699 29.3333C3.45366 29.3333 3.70699 29.2267 3.90699 29.0267L28.5337 4.41334C28.9337 4.01334 28.9337 3.37334 28.5337 2.97334Z" fill="white"/>
<path d="M29.8399 11.1731V20.8265C29.8399 22.7331 28.9066 23.4931 28.3732 23.7731C28.1199 23.9065 27.7199 24.0531 27.2266 24.0531C26.6532 24.0531 25.9466 23.8665 25.1199 23.2798L23.1466 21.8931C23.0532 24.8398 22.1199 26.5198 19.9999 27.2265C19.1466 27.5331 18.0932 27.6665 16.8265 27.6665H8.82655C8.50655 27.6665 8.19988 27.6531 7.87988 27.6131L19.9999 15.5065L27.5332 7.97314C27.8799 7.99981 28.1599 8.10648 28.3732 8.22648C28.9066 8.50648 29.8399 9.26648 29.8399 11.1731Z" fill="white"/>
</svg>
