<svg width="52" height="52" viewBox="0 0 52 52" fill="none" xmlns="http://www.w3.org/2000/svg">
<path fill-rule="evenodd" clip-rule="evenodd" d="M9.66634 0.5C4.51168 0.5 0.333008 4.67867 0.333008 9.83333V42.5C0.333008 47.6546 4.51168 51.8333 9.66634 51.8333H42.333C47.4876 51.8333 51.6663 47.6546 51.6663 42.5V9.83333C51.6663 4.67867 47.4876 0.5 42.333 0.5H9.66634ZM8.88633 8.66667C8.47716 8.81896 8.13192 9.12188 7.93041 9.52603C7.63433 10.1199 7.6996 10.8301 8.09895 11.3601L21.1987 28.7441L7.39491 43.5467C7.35872 43.5857 7.32465 43.6256 7.29266 43.6667H12.0688L23.3376 31.5823L32.0019 43.0805C32.2052 43.35 32.4786 43.5514 32.7869 43.6667H43.1056C43.5134 43.5141 43.8578 43.2117 44.0587 42.8082C44.3548 42.2144 44.2897 41.5041 43.8903 40.9742L30.7905 23.5902L44.7067 8.66667H39.921L28.6515 20.7517L19.9871 9.25369C19.7835 8.98342 19.5089 8.78172 19.1996 8.66667H8.88633ZM34.2723 40.2775L13.0065 12.0569H17.717L38.9828 40.2775H34.2723Z" fill="black"/>
</svg>
