<svg width="14" height="16" viewBox="0 0 14 16" fill="none" xmlns="http://www.w3.org/2000/svg">
<path d="M13.4297 1.90139L7.17969 0.0263872C7.08638 -0.00162288 6.98781 -0.00743034 6.89185 0.00942847C6.79589 0.0262873 6.70521 0.0653454 6.62703 0.123485C6.54885 0.181624 6.48535 0.257235 6.44159 0.344281C6.39783 0.431328 6.37503 0.527398 6.375 0.624825V9.08264C5.73493 8.51014 4.91775 8.17467 4.06005 8.13229C3.20235 8.08992 2.35608 8.3432 1.6627 8.84982C0.969307 9.35644 0.470804 10.0857 0.250501 10.9157C0.0301978 11.7457 0.101443 12.6262 0.452328 13.41C0.803214 14.1938 1.41248 14.8334 2.1783 15.2219C2.94413 15.6105 3.8201 15.7244 4.65983 15.5447C5.49956 15.3649 6.25217 14.9025 6.79187 14.2345C7.33157 13.5665 7.62566 12.7336 7.625 11.8748V5.21467L13.0703 6.84826C13.1636 6.87627 13.2622 6.88208 13.3582 6.86522C13.4541 6.84836 13.5448 6.8093 13.623 6.75116C13.7011 6.69302 13.7647 6.61741 13.8084 6.53037C13.8522 6.44332 13.875 6.34725 13.875 6.24982V2.49982C13.875 2.36546 13.8316 2.23468 13.7514 2.12689C13.6712 2.01909 13.5584 1.94002 13.4297 1.90139Z" fill="url(#paint0_linear_875_22725)"/>
<defs>
<linearGradient id="paint0_linear_875_22725" x1="7" y1="0" x2="7" y2="15.6277" gradientUnits="userSpaceOnUse">
<stop stop-color="#1DB954"/>
<stop offset="1" stop-color="#0D5326"/>
</linearGradient>
</defs>
</svg>
