<svg width="28" height="28" viewBox="0 0 28 28" fill="none" xmlns="http://www.w3.org/2000/svg">
<path d="M26.0398 12.2797C26.5072 11.1357 26.6633 9.88848 26.4925 8.66464C26.3216 7.4408 25.8299 6.284 25.0672 5.31178C24.3044 4.33955 23.2979 3.58655 22.15 3.1293C21.002 2.67205 19.7534 2.52683 18.5311 2.70842C17.7736 1.73269 16.7714 0.974774 15.6263 0.511634C14.4812 0.0484932 13.2339 -0.103381 12.0111 0.0714332C10.7883 0.246247 9.63349 0.741523 8.664 1.50697C7.69451 2.27242 6.94484 3.28078 6.4911 4.42967C5.26677 4.59726 4.10862 5.08597 3.13435 5.84615C2.16008 6.60632 1.40441 7.61087 0.944125 8.7577C0.483845 9.90452 0.335361 11.1528 0.513763 12.3756C0.692164 13.5984 1.19109 14.7521 1.95985 15.7197C1.5847 16.639 1.40943 17.6276 1.44568 18.6199C1.48192 19.6121 1.72884 20.5853 2.17005 21.4748C2.61126 22.3644 3.23666 23.1498 4.00472 23.7791C4.77278 24.4084 5.66592 24.867 6.62485 25.1247C7.21922 25.2874 7.83237 25.3714 8.4486 25.3747C8.79042 25.3743 9.13176 25.3488 9.46985 25.2984C10.2275 26.2738 11.2297 27.0314 12.3747 27.4942C13.5198 27.9571 14.7669 28.1087 15.9895 27.9338C17.2121 27.7589 18.3667 27.2636 19.336 26.4982C20.3053 25.7328 21.0549 24.7246 21.5086 23.5759C22.7329 23.4083 23.8911 22.9196 24.8653 22.1594C25.8396 21.3993 26.5953 20.3947 27.0556 19.2479C27.5158 18.1011 27.6643 16.8528 27.4859 15.63C27.3075 14.4072 26.8086 13.2534 26.0398 12.2859V12.2797ZM15.9998 15.1547L13.9998 16.3097L11.9998 15.1547V12.8447L13.9998 11.6897L15.9998 12.8447V15.1547ZM20.8561 4.80342C22.1162 5.14027 23.1948 5.9562 23.8617 7.07714C24.5287 8.19807 24.7312 9.53526 24.4261 10.8034C24.3073 10.7247 24.1873 10.6484 24.0623 10.5772L18.4998 7.35966C18.3478 7.2719 18.1754 7.22569 17.9998 7.22569C17.8243 7.22569 17.6519 7.2719 17.4998 7.35966L11.9998 10.5359V8.22591L17.0623 5.30342C17.6303 4.97353 18.258 4.75949 18.9092 4.67367C19.5603 4.58784 20.2221 4.63194 20.8561 4.80342ZM3.1061 8.86592C3.74352 7.75451 4.78563 6.93228 6.01485 6.57092C6.0061 6.71342 5.99985 6.85592 5.99985 6.99967V13.4222C5.99981 13.5977 6.04599 13.7702 6.13376 13.9223C6.22154 14.0744 6.34779 14.2006 6.49985 14.2884L11.9998 17.4634L9.99985 18.6247L4.93735 15.6959C3.78898 15.0329 2.95104 13.9408 2.60785 12.6599C2.26466 11.379 2.44433 10.0143 3.10735 8.86592H3.1061ZM14.9998 25.9997C13.7198 26.0031 12.4877 25.5128 11.5598 24.6309C11.6848 24.5672 11.8098 24.4997 11.9348 24.4272L17.4998 21.2159C17.6517 21.1282 17.7779 21.0022 17.8656 20.8503C17.9534 20.6985 17.9997 20.5263 17.9998 20.3509V13.9997L19.9998 15.1547V20.9997C19.9998 22.3257 19.4731 23.5975 18.5354 24.5352C17.5977 25.4729 16.3259 25.9997 14.9998 25.9997Z" fill="#7D8592"/>
<path d="M26.0398 12.2797C26.5072 11.1357 26.6633 9.88848 26.4925 8.66464C26.3216 7.4408 25.8299 6.284 25.0672 5.31178C24.3044 4.33955 23.2979 3.58655 22.15 3.1293C21.002 2.67205 19.7534 2.52683 18.5311 2.70842C17.7736 1.73269 16.7714 0.974774 15.6263 0.511634C14.4812 0.0484932 13.2339 -0.103381 12.0111 0.0714332C10.7883 0.246247 9.63349 0.741523 8.664 1.50697C7.69451 2.27242 6.94484 3.28078 6.4911 4.42967C5.26677 4.59726 4.10862 5.08597 3.13435 5.84615C2.16008 6.60632 1.40441 7.61087 0.944125 8.7577C0.483845 9.90452 0.335361 11.1528 0.513763 12.3756C0.692164 13.5984 1.19109 14.7521 1.95985 15.7197C1.5847 16.639 1.40943 17.6276 1.44568 18.6199C1.48192 19.6121 1.72884 20.5853 2.17005 21.4748C2.61126 22.3644 3.23666 23.1498 4.00472 23.7791C4.77278 24.4084 5.66592 24.867 6.62485 25.1247C7.21922 25.2874 7.83237 25.3714 8.4486 25.3747C8.79042 25.3743 9.13176 25.3488 9.46985 25.2984C10.2275 26.2738 11.2297 27.0314 12.3747 27.4942C13.5198 27.9571 14.7669 28.1087 15.9895 27.9338C17.2121 27.7589 18.3667 27.2636 19.336 26.4982C20.3053 25.7328 21.0549 24.7246 21.5086 23.5759C22.7329 23.4083 23.8911 22.9196 24.8653 22.1594C25.8396 21.3993 26.5953 20.3947 27.0556 19.2479C27.5158 18.1011 27.6643 16.8528 27.4859 15.63C27.3075 14.4072 26.8086 13.2534 26.0398 12.2859V12.2797ZM15.9998 15.1547L13.9998 16.3097L11.9998 15.1547V12.8447L13.9998 11.6897L15.9998 12.8447V15.1547ZM20.8561 4.80342C22.1162 5.14027 23.1948 5.9562 23.8617 7.07714C24.5287 8.19807 24.7312 9.53526 24.4261 10.8034C24.3073 10.7247 24.1873 10.6484 24.0623 10.5772L18.4998 7.35966C18.3478 7.2719 18.1754 7.22569 17.9998 7.22569C17.8243 7.22569 17.6519 7.2719 17.4998 7.35966L11.9998 10.5359V8.22591L17.0623 5.30342C17.6303 4.97353 18.258 4.75949 18.9092 4.67367C19.5603 4.58784 20.2221 4.63194 20.8561 4.80342ZM3.1061 8.86592C3.74352 7.75451 4.78563 6.93228 6.01485 6.57092C6.0061 6.71342 5.99985 6.85592 5.99985 6.99967V13.4222C5.99981 13.5977 6.04599 13.7702 6.13376 13.9223C6.22154 14.0744 6.34779 14.2006 6.49985 14.2884L11.9998 17.4634L9.99985 18.6247L4.93735 15.6959C3.78898 15.0329 2.95104 13.9408 2.60785 12.6599C2.26466 11.379 2.44433 10.0143 3.10735 8.86592H3.1061ZM14.9998 25.9997C13.7198 26.0031 12.4877 25.5128 11.5598 24.6309C11.6848 24.5672 11.8098 24.4997 11.9348 24.4272L17.4998 21.2159C17.6517 21.1282 17.7779 21.0022 17.8656 20.8503C17.9534 20.6985 17.9997 20.5263 17.9998 20.3509V13.9997L19.9998 15.1547V20.9997C19.9998 22.3257 19.4731 23.5975 18.5354 24.5352C17.5977 25.4729 16.3259 25.9997 14.9998 25.9997Z" fill="url(#paint0_linear_973_27162)"/>
<defs>
<linearGradient id="paint0_linear_973_27162" x1="13.9998" y1="0.000976562" x2="13.9998" y2="28.0044" gradientUnits="userSpaceOnUse">
<stop stop-color="#1DB954"/>
<stop offset="1" stop-color="#0D5326"/>
</linearGradient>
</defs>
</svg>
