<svg width="14" height="14" viewBox="0 0 14 14" fill="none" xmlns="http://www.w3.org/2000/svg">
<path d="M13.0204 6.13935C13.2541 5.56738 13.3322 4.94375 13.2467 4.33183C13.1613 3.71991 12.9154 3.14151 12.5341 2.6554C12.1527 2.16929 11.6495 1.79279 11.0755 1.56416C10.5015 1.33554 9.87718 1.26293 9.26604 1.35372C8.8873 0.865855 8.3862 0.486899 7.81364 0.255329C7.24108 0.0237583 6.61743 -0.0521786 6.00603 0.0352283C5.39462 0.122635 4.81723 0.370273 4.33249 0.752997C3.84774 1.13572 3.47291 1.6399 3.24604 2.21434C2.63387 2.29814 2.0548 2.5425 1.56766 2.92259C1.08053 3.30267 0.702691 3.80495 0.472551 4.37836C0.242411 4.95177 0.168169 5.57589 0.25737 6.18729C0.34657 6.7987 0.596034 7.37559 0.980411 7.85934C0.79284 8.31901 0.705206 8.81332 0.723327 9.30945C0.741448 9.80558 0.86491 10.2922 1.08551 10.7369C1.30612 11.1817 1.61882 11.5744 2.00285 11.8891C2.38688 12.2037 2.83345 12.433 3.31291 12.5618C3.6101 12.6432 3.91667 12.6852 4.22479 12.6868C4.3957 12.6867 4.56637 12.6739 4.73541 12.6487C5.11423 13.1364 5.61533 13.5152 6.18785 13.7466C6.76038 13.978 7.38394 14.0539 7.99525 13.9664C8.60655 13.8789 9.18383 13.6313 9.66849 13.2486C10.1531 12.8659 10.5279 12.3618 10.7548 11.7875C11.367 11.7037 11.946 11.4593 12.4332 11.0792C12.9203 10.6991 13.2981 10.1969 13.5283 9.62346C13.7584 9.05004 13.8327 8.42592 13.7435 7.81452C13.6543 7.20312 13.4048 6.62623 13.0204 6.14247V6.13935ZM8.00041 7.57685L7.00041 8.15434L6.00041 7.57685V6.42185L7.00041 5.84434L8.00041 6.42185V7.57685ZM10.4285 2.40122C11.0586 2.56965 11.5979 2.97761 11.9314 3.53808C12.2648 4.09855 12.3661 4.76714 12.2135 5.40122C12.1542 5.36185 12.0942 5.32372 12.0317 5.28809L9.25041 3.67934C9.1744 3.63546 9.08818 3.61236 9.00041 3.61236C8.91264 3.61236 8.82642 3.63546 8.75041 3.67934L6.00041 5.26747V4.11247L8.53166 2.65122C8.81563 2.48628 9.12949 2.37926 9.45507 2.33634C9.78066 2.29343 10.1115 2.31548 10.4285 2.40122ZM1.55354 4.43247C1.87225 3.87677 2.39331 3.46565 3.00791 3.28497C3.00354 3.35622 3.00041 3.42747 3.00041 3.49934V6.7106C3.00039 6.79838 3.02349 6.88463 3.06737 6.96066C3.11126 7.03669 3.17439 7.09983 3.25041 7.14372L6.00041 8.73122L5.00041 9.31184L2.46916 7.84747C1.89498 7.51594 1.47601 6.9699 1.30441 6.32947C1.13282 5.68903 1.22266 5.00667 1.55416 4.43247H1.55354ZM7.50041 12.9993C6.86037 13.0011 6.24431 12.7559 5.78041 12.315C5.84291 12.2831 5.90541 12.2493 5.96791 12.2131L8.75041 10.6075C8.82634 10.5636 8.88941 10.5006 8.93329 10.4247C8.97717 10.3488 9.00032 10.2627 9.00041 10.175V6.99935L10.0004 7.57685V10.4993C10.0004 11.1624 9.73702 11.7983 9.26818 12.2671C8.79934 12.736 8.16345 12.9993 7.50041 12.9993Z" fill="#7D8592"/>
<path d="M13.0204 6.13935C13.2541 5.56738 13.3322 4.94375 13.2467 4.33183C13.1613 3.71991 12.9154 3.14151 12.5341 2.6554C12.1527 2.16929 11.6495 1.79279 11.0755 1.56416C10.5015 1.33554 9.87718 1.26293 9.26604 1.35372C8.8873 0.865855 8.3862 0.486899 7.81364 0.255329C7.24108 0.0237583 6.61743 -0.0521786 6.00603 0.0352283C5.39462 0.122635 4.81723 0.370273 4.33249 0.752997C3.84774 1.13572 3.47291 1.6399 3.24604 2.21434C2.63387 2.29814 2.0548 2.5425 1.56766 2.92259C1.08053 3.30267 0.702691 3.80495 0.472551 4.37836C0.242411 4.95177 0.168169 5.57589 0.25737 6.18729C0.34657 6.7987 0.596034 7.37559 0.980411 7.85934C0.79284 8.31901 0.705206 8.81332 0.723327 9.30945C0.741448 9.80558 0.86491 10.2922 1.08551 10.7369C1.30612 11.1817 1.61882 11.5744 2.00285 11.8891C2.38688 12.2037 2.83345 12.433 3.31291 12.5618C3.6101 12.6432 3.91667 12.6852 4.22479 12.6868C4.3957 12.6867 4.56637 12.6739 4.73541 12.6487C5.11423 13.1364 5.61533 13.5152 6.18785 13.7466C6.76038 13.978 7.38394 14.0539 7.99525 13.9664C8.60655 13.8789 9.18383 13.6313 9.66849 13.2486C10.1531 12.8659 10.5279 12.3618 10.7548 11.7875C11.367 11.7037 11.946 11.4593 12.4332 11.0792C12.9203 10.6991 13.2981 10.1969 13.5283 9.62346C13.7584 9.05004 13.8327 8.42592 13.7435 7.81452C13.6543 7.20312 13.4048 6.62623 13.0204 6.14247V6.13935ZM8.00041 7.57685L7.00041 8.15434L6.00041 7.57685V6.42185L7.00041 5.84434L8.00041 6.42185V7.57685ZM10.4285 2.40122C11.0586 2.56965 11.5979 2.97761 11.9314 3.53808C12.2648 4.09855 12.3661 4.76714 12.2135 5.40122C12.1542 5.36185 12.0942 5.32372 12.0317 5.28809L9.25041 3.67934C9.1744 3.63546 9.08818 3.61236 9.00041 3.61236C8.91264 3.61236 8.82642 3.63546 8.75041 3.67934L6.00041 5.26747V4.11247L8.53166 2.65122C8.81563 2.48628 9.12949 2.37926 9.45507 2.33634C9.78066 2.29343 10.1115 2.31548 10.4285 2.40122ZM1.55354 4.43247C1.87225 3.87677 2.39331 3.46565 3.00791 3.28497C3.00354 3.35622 3.00041 3.42747 3.00041 3.49934V6.7106C3.00039 6.79838 3.02349 6.88463 3.06737 6.96066C3.11126 7.03669 3.17439 7.09983 3.25041 7.14372L6.00041 8.73122L5.00041 9.31184L2.46916 7.84747C1.89498 7.51594 1.47601 6.9699 1.30441 6.32947C1.13282 5.68903 1.22266 5.00667 1.55416 4.43247H1.55354ZM7.50041 12.9993C6.86037 13.0011 6.24431 12.7559 5.78041 12.315C5.84291 12.2831 5.90541 12.2493 5.96791 12.2131L8.75041 10.6075C8.82634 10.5636 8.88941 10.5006 8.93329 10.4247C8.97717 10.3488 9.00032 10.2627 9.00041 10.175V6.99935L10.0004 7.57685V10.4993C10.0004 11.1624 9.73702 11.7983 9.26818 12.2671C8.79934 12.736 8.16345 12.9993 7.50041 12.9993Z" fill="url(#paint0_linear_639_13908)"/>
<defs>
<linearGradient id="paint0_linear_639_13908" x1="7.00041" y1="0" x2="7.00041" y2="14.0017" gradientUnits="userSpaceOnUse">
<stop stop-color="#1DB954"/>
<stop offset="1" stop-color="#0D5326"/>
</linearGradient>
</defs>
</svg>
