<svg width="28" height="28" viewBox="0 0 28 28" fill="none" xmlns="http://www.w3.org/2000/svg">
<path d="M26.2325 10.8525C25.7612 10.36 25.2738 9.8525 25.09 9.40625C24.92 8.9975 24.91 8.32 24.9 7.66375C24.8813 6.44375 24.8612 5.06125 23.9 4.1C22.9387 3.13875 21.5562 3.11875 20.3363 3.1C19.68 3.09 19.0025 3.08 18.5938 2.91C18.1488 2.72625 17.64 2.23875 17.1475 1.7675C16.285 0.93875 15.305 0 14 0C12.695 0 11.7162 0.93875 10.8525 1.7675C10.36 2.23875 9.8525 2.72625 9.40625 2.91C9 3.08 8.32 3.09 7.66375 3.1C6.44375 3.11875 5.06125 3.13875 4.1 4.1C3.13875 5.06125 3.125 6.44375 3.1 7.66375C3.09 8.32 3.08 8.9975 2.91 9.40625C2.72625 9.85125 2.23875 10.36 1.7675 10.8525C0.93875 11.7162 0 12.695 0 14C0 15.305 0.93875 16.2837 1.7675 17.1475C2.23875 17.64 2.72625 18.1475 2.91 18.5938C3.08 19.0025 3.09 19.68 3.1 20.3363C3.11875 21.5562 3.13875 22.9387 4.1 23.9C5.06125 24.8612 6.44375 24.8813 7.66375 24.9C8.32 24.91 8.9975 24.92 9.40625 25.09C9.85125 25.2738 10.36 25.7612 10.8525 26.2325C11.715 27.0613 12.695 28 14 28C15.305 28 16.2837 27.0613 17.1475 26.2325C17.64 25.7612 18.1475 25.2738 18.5938 25.09C19.0025 24.92 19.68 24.91 20.3363 24.9C21.5562 24.8813 22.9387 24.8612 23.9 23.9C24.8612 22.9387 24.8813 21.5562 24.9 20.3363C24.91 19.68 24.92 19.0025 25.09 18.5938C25.2738 18.1488 25.7612 17.64 26.2325 17.1475C27.0613 16.2837 28 15.305 28 14C28 12.695 27.0613 11.7162 26.2325 10.8525ZM24.7887 15.7638C24.19 16.3888 23.57 17.035 23.2412 17.8288C22.9262 18.5913 22.9125 19.4625 22.9 20.3062C22.8875 21.1812 22.8738 22.0975 22.485 22.485C22.0963 22.8725 21.1862 22.8875 20.3062 22.9C19.4625 22.9125 18.5913 22.9262 17.8288 23.2412C17.035 23.57 16.3888 24.19 15.7638 24.7887C15.1388 25.3875 14.5 26 14 26C13.5 26 12.8562 25.385 12.2362 24.7887C11.6163 24.1925 10.965 23.57 10.1713 23.2412C9.40875 22.9262 8.5375 22.9125 7.69375 22.9C6.81875 22.8875 5.9025 22.8738 5.515 22.485C5.1275 22.0963 5.1125 21.1862 5.1 20.3062C5.0875 19.4625 5.07375 18.5913 4.75875 17.8288C4.43 17.035 3.81 16.3888 3.21125 15.7638C2.6125 15.1388 2 14.5 2 14C2 13.5 2.615 12.8575 3.21125 12.2362C3.8075 11.615 4.43 10.965 4.75875 10.1713C5.07375 9.40875 5.0875 8.5375 5.1 7.69375C5.1125 6.81875 5.12625 5.9025 5.515 5.515C5.90375 5.1275 6.81375 5.1125 7.69375 5.1C8.5375 5.0875 9.40875 5.07375 10.1713 4.75875C10.965 4.43 11.6112 3.81 12.2362 3.21125C12.8612 2.6125 13.5 2 14 2C14.5 2 15.1438 2.615 15.7638 3.21125C16.3838 3.8075 17.035 4.43 17.8288 4.75875C18.5913 5.07375 19.4625 5.0875 20.3062 5.1C21.1812 5.1125 22.0975 5.12625 22.485 5.515C22.8725 5.90375 22.8875 6.81375 22.9 7.69375C22.9125 8.5375 22.9262 9.40875 23.2412 10.1713C23.57 10.965 24.19 11.6112 24.7887 12.2362C25.3875 12.8612 26 13.5 26 14C26 14.5 25.385 15.1425 24.7887 15.7638ZM13 10C13 9.40666 12.8241 8.82664 12.4944 8.33329C12.1648 7.83994 11.6962 7.45542 11.1481 7.22836C10.5999 7.0013 9.99667 6.94189 9.41473 7.05764C8.83279 7.1734 8.29824 7.45912 7.87868 7.87868C7.45912 8.29824 7.1734 8.83279 7.05764 9.41473C6.94189 9.99667 7.0013 10.5999 7.22836 11.1481C7.45542 11.6962 7.83994 12.1648 8.33329 12.4944C8.82664 12.8241 9.40666 13 10 13C10.7956 13 11.5587 12.6839 12.1213 12.1213C12.6839 11.5587 13 10.7956 13 10ZM9 10C9 9.80222 9.05865 9.60888 9.16853 9.44443C9.27841 9.27998 9.43459 9.15181 9.61732 9.07612C9.80004 9.00043 10.0011 8.98063 10.1951 9.01921C10.3891 9.0578 10.5673 9.15304 10.7071 9.29289C10.847 9.43275 10.9422 9.61093 10.9808 9.80491C11.0194 9.99889 10.9996 10.2 10.9239 10.3827C10.8482 10.5654 10.72 10.7216 10.5556 10.8315C10.3911 10.9414 10.1978 11 10 11C9.73478 11 9.48043 10.8946 9.29289 10.7071C9.10536 10.5196 9 10.2652 9 10ZM18 15C17.4067 15 16.8266 15.1759 16.3333 15.5056C15.8399 15.8352 15.4554 16.3038 15.2284 16.8519C15.0013 17.4001 14.9419 18.0033 15.0576 18.5853C15.1734 19.1672 15.4591 19.7018 15.8787 20.1213C16.2982 20.5409 16.8328 20.8266 17.4147 20.9424C17.9967 21.0581 18.5999 20.9987 19.1481 20.7716C19.6962 20.5446 20.1648 20.1601 20.4944 19.6667C20.8241 19.1734 21 18.5933 21 18C21 17.2044 20.6839 16.4413 20.1213 15.8787C19.5587 15.3161 18.7956 15 18 15ZM18 19C17.8022 19 17.6089 18.9414 17.4444 18.8315C17.28 18.7216 17.1518 18.5654 17.0761 18.3827C17.0004 18.2 16.9806 17.9989 17.0192 17.8049C17.0578 17.6109 17.153 17.4327 17.2929 17.2929C17.4327 17.153 17.6109 17.0578 17.8049 17.0192C17.9989 16.9806 18.2 17.0004 18.3827 17.0761C18.5654 17.1518 18.7216 17.28 18.8315 17.4444C18.9414 17.6089 19 17.8022 19 18C19 18.2652 18.8946 18.5196 18.7071 18.7071C18.5196 18.8946 18.2652 19 18 19ZM19.7075 9.7075L9.7075 19.7075C9.61459 19.8004 9.50429 19.8741 9.3829 19.9244C9.2615 19.9747 9.1314 20.0006 9 20.0006C8.8686 20.0006 8.7385 19.9747 8.6171 19.9244C8.49571 19.8741 8.38541 19.8004 8.2925 19.7075C8.19959 19.6146 8.12589 19.5043 8.07561 19.3829C8.02532 19.2615 7.99944 19.1314 7.99944 19C7.99944 18.8686 8.02532 18.7385 8.07561 18.6171C8.12589 18.4957 8.19959 18.3854 8.2925 18.2925L18.2925 8.2925C18.3854 8.19959 18.4957 8.12589 18.6171 8.07561C18.7385 8.02532 18.8686 7.99944 19 7.99944C19.1314 7.99944 19.2615 8.02532 19.3829 8.07561C19.5043 8.12589 19.6146 8.19959 19.7075 8.2925C19.8004 8.38541 19.8741 8.49571 19.9244 8.6171C19.9747 8.7385 20.0006 8.8686 20.0006 9C20.0006 9.1314 19.9747 9.2615 19.9244 9.3829C19.8741 9.50429 19.8004 9.61459 19.7075 9.7075Z" fill="black"/>
</svg>
