<svg width="30" height="22" viewBox="0 0 30 22" fill="none" xmlns="http://www.w3.org/2000/svg">
<path d="M16.0003 15.7101C17.5679 14.7337 18.7749 13.2734 19.4386 11.55C20.1023 9.82654 20.1867 7.93383 19.6789 6.15819C19.1712 4.38254 18.0989 2.82057 16.6244 1.70859C15.1499 0.596607 13.3533 -0.00488281 11.5065 -0.00488281C9.6597 -0.00488281 7.86312 0.596607 6.3886 1.70859C4.91407 2.82057 3.84182 4.38254 3.33407 6.15819C2.82632 7.93383 2.9107 9.82654 3.57443 11.55C4.23816 13.2734 5.44514 14.7337 7.01276 15.7101C4.43151 16.5551 2.10901 18.1339 0.241511 20.3564C0.0707784 20.5594 -0.0122982 20.822 0.0105578 21.0863C0.0334138 21.3506 0.16033 21.595 0.363387 21.7657C0.566443 21.9365 0.829006 22.0196 1.09332 21.9967C1.35762 21.9738 1.60203 21.8469 1.77276 21.6439C4.28151 18.6489 7.73901 17.0001 11.5003 17.0001C15.2615 17.0001 18.719 18.6489 21.234 21.6439C21.4047 21.8469 21.6491 21.9738 21.9135 21.9967C22.1778 22.0196 22.4403 21.9365 22.6434 21.7657C22.8464 21.595 22.9734 21.3506 22.9962 21.0863C23.0191 20.822 22.936 20.5594 22.7653 20.3564C20.8978 18.1339 18.5753 16.5551 16.0003 15.7101ZM5.00026 8.50012C5.00026 7.21454 5.38148 5.95783 6.09571 4.88891C6.80994 3.81999 7.8251 2.98687 9.01282 2.4949C10.2005 2.00293 11.5075 1.87421 12.7683 2.12501C14.0292 2.37582 15.1874 2.99488 16.0965 3.90392C17.0055 4.81296 17.6246 5.97115 17.8754 7.23203C18.1262 8.49291 17.9974 9.79984 17.5055 10.9876C17.0135 12.1753 16.1804 13.1904 15.1115 13.9047C14.0425 14.6189 12.7858 15.0001 11.5003 15.0001C9.77696 14.9981 8.12482 14.3127 6.90626 13.0941C5.6877 11.8756 5.00225 10.2234 5.00026 8.50012ZM29.7078 12.7076L25.7078 16.7076C25.6149 16.8006 25.5046 16.8744 25.3832 16.9247C25.2618 16.975 25.1317 17.0009 25.0003 17.0009C24.8688 17.0009 24.7387 16.975 24.6173 16.9247C24.4959 16.8744 24.3856 16.8006 24.2928 16.7076L22.2928 14.7076C22.1051 14.52 21.9997 14.2655 21.9997 14.0001C21.9997 13.7348 22.1051 13.4803 22.2928 13.2926C22.4804 13.105 22.7349 12.9996 23.0003 12.9996C23.2656 12.9996 23.5201 13.105 23.7078 13.2926L25.0003 14.5864L28.2928 11.2926C28.4804 11.105 28.7349 10.9996 29.0003 10.9996C29.2656 10.9996 29.5201 11.105 29.7078 11.2926C29.8954 11.4803 30.0008 11.7348 30.0008 12.0001C30.0008 12.2655 29.8954 12.52 29.7078 12.7076Z" fill="black"/>
</svg>
