<svg width="24" height="24" viewBox="0 0 24 24" fill="none" xmlns="http://www.w3.org/2000/svg">
<path d="M18.0003 16.7503C17.8403 16.7503 17.6903 16.7003 17.5503 16.6003C17.2203 16.3503 17.1503 15.8803 17.4003 15.5503C18.9703 13.4603 18.9703 10.5403 17.4003 8.45027C17.1503 8.12027 17.2203 7.65027 17.5503 7.40027C17.8803 7.15027 18.3503 7.22027 18.6003 7.55027C20.5603 10.1703 20.5603 13.8303 18.6003 16.4503C18.4503 16.6503 18.2303 16.7503 18.0003 16.7503Z" fill="#0D0D0D"/>
<path d="M19.8304 19.2503C19.6704 19.2503 19.5204 19.2003 19.3804 19.1003C19.0504 18.8503 18.9804 18.3803 19.2304 18.0503C21.9004 14.4903 21.9004 9.51027 19.2304 5.95027C18.9804 5.62027 19.0504 5.15027 19.3804 4.90027C19.7104 4.65027 20.1804 4.72027 20.4304 5.05027C23.5004 9.14027 23.5004 14.8603 20.4304 18.9503C20.2904 19.1503 20.0604 19.2503 19.8304 19.2503Z" fill="#0D0D0D"/>
<path opacity="0.4" d="M15.75 7.40972V16.5897C15.75 18.3097 15.13 19.5997 14.02 20.2197C13.57 20.4697 13.07 20.5897 12.55 20.5897C11.75 20.5897 10.89 20.3197 10.01 19.7697L7.09 17.9397C6.89 17.8197 6.66 17.7497 6.43 17.7497H5.5V6.24972H6.43C6.66 6.24972 6.89 6.17972 7.09 6.05972L10.01 4.22972C11.47 3.31972 12.9 3.15972 14.02 3.77972C15.13 4.39972 15.75 5.68972 15.75 7.40972Z" fill="#0D0D0D"/>
<path d="M5.5 6.25V17.75H5C2.58 17.75 1.25 16.42 1.25 14V10C1.25 7.58 2.58 6.25 5 6.25H5.5Z" fill="#0D0D0D"/>
</svg>
