<svg width="32" height="33" viewBox="0 0 32 33" fill="none" xmlns="http://www.w3.org/2000/svg">
<path d="M22.666 5.16699H9.33268C5.33268 5.16699 2.66602 7.16699 2.66602 11.8337V21.167C2.66602 25.8337 5.33268 27.8337 9.33268 27.8337H22.666C26.666 27.8337 29.3327 25.8337 29.3327 21.167V11.8337C29.3327 7.16699 26.666 5.16699 22.666 5.16699ZM23.2927 13.287L19.1194 16.6203C18.2393 17.327 17.1193 17.6737 15.9993 17.6737C14.8793 17.6737 13.746 17.327 12.8793 16.6203L8.70602 13.287C8.27935 12.9403 8.21268 12.3003 8.54602 11.8737C8.89268 11.447 9.51935 11.367 9.94602 11.7137L14.1193 15.047C15.1327 15.8603 16.8527 15.8603 17.866 15.047L22.0394 11.7137C22.466 11.367 23.106 11.4337 23.4394 11.8737C23.786 12.3003 23.7193 12.9403 23.2927 13.287Z" fill="#7D8592"/>
<path d="M22.666 5.16699H9.33268C5.33268 5.16699 2.66602 7.16699 2.66602 11.8337V21.167C2.66602 25.8337 5.33268 27.8337 9.33268 27.8337H22.666C26.666 27.8337 29.3327 25.8337 29.3327 21.167V11.8337C29.3327 7.16699 26.666 5.16699 22.666 5.16699ZM23.2927 13.287L19.1194 16.6203C18.2393 17.327 17.1193 17.6737 15.9993 17.6737C14.8793 17.6737 13.746 17.327 12.8793 16.6203L8.70602 13.287C8.27935 12.9403 8.21268 12.3003 8.54602 11.8737C8.89268 11.447 9.51935 11.367 9.94602 11.7137L14.1193 15.047C15.1327 15.8603 16.8527 15.8603 17.866 15.047L22.0394 11.7137C22.466 11.367 23.106 11.4337 23.4394 11.8737C23.786 12.3003 23.7193 12.9403 23.2927 13.287Z" fill="url(#paint0_linear_537_12397)"/>
<defs>
<linearGradient id="paint0_linear_537_12397" x1="15.9993" y1="5.16699" x2="15.9993" y2="27.8337" gradientUnits="userSpaceOnUse">
<stop stop-color="#1DB954"/>
<stop offset="1" stop-color="#0D5326"/>
</linearGradient>
</defs>
</svg>
