<svg width="32" height="32" viewBox="0 0 32 32" fill="none" xmlns="http://www.w3.org/2000/svg">
<path d="M17.586 8H9.05268C8.70602 8 8.37268 8.01333 8.05268 8.05333C4.46602 8.36 2.66602 10.48 2.66602 14.3867V19.72C2.66602 25.0533 4.79935 26.1067 9.05268 26.1067H9.58602C9.87935 26.1067 10.266 26.3067 10.4393 26.5333L12.0393 28.6667C12.746 29.6133 13.8927 29.6133 14.5993 28.6667L16.1993 26.5333C16.3993 26.2667 16.7193 26.1067 17.0527 26.1067H17.586C21.4927 26.1067 23.6127 24.32 23.9193 20.72C23.9594 20.4 23.9727 20.0667 23.9727 19.72V14.3867C23.9727 10.1333 21.8393 8 17.586 8ZM8.66602 18.6667C7.91935 18.6667 7.33268 18.0667 7.33268 17.3333C7.33268 16.6 7.93268 16 8.66602 16C9.39935 16 9.99935 16.6 9.99935 17.3333C9.99935 18.0667 9.39935 18.6667 8.66602 18.6667ZM13.3193 18.6667C12.5727 18.6667 11.986 18.0667 11.986 17.3333C11.986 16.6 12.586 16 13.3193 16C14.0527 16 14.6527 16.6 14.6527 17.3333C14.6527 18.0667 14.066 18.6667 13.3193 18.6667ZM17.986 18.6667C17.2393 18.6667 16.6527 18.0667 16.6527 17.3333C16.6527 16.6 17.2527 16 17.986 16C18.7193 16 19.3193 16.6 19.3193 17.3333C19.3193 18.0667 18.7193 18.6667 17.986 18.6667Z" fill="#7D8592"/>
<path d="M17.586 8H9.05268C8.70602 8 8.37268 8.01333 8.05268 8.05333C4.46602 8.36 2.66602 10.48 2.66602 14.3867V19.72C2.66602 25.0533 4.79935 26.1067 9.05268 26.1067H9.58602C9.87935 26.1067 10.266 26.3067 10.4393 26.5333L12.0393 28.6667C12.746 29.6133 13.8927 29.6133 14.5993 28.6667L16.1993 26.5333C16.3993 26.2667 16.7193 26.1067 17.0527 26.1067H17.586C21.4927 26.1067 23.6127 24.32 23.9193 20.72C23.9594 20.4 23.9727 20.0667 23.9727 19.72V14.3867C23.9727 10.1333 21.8393 8 17.586 8ZM8.66602 18.6667C7.91935 18.6667 7.33268 18.0667 7.33268 17.3333C7.33268 16.6 7.93268 16 8.66602 16C9.39935 16 9.99935 16.6 9.99935 17.3333C9.99935 18.0667 9.39935 18.6667 8.66602 18.6667ZM13.3193 18.6667C12.5727 18.6667 11.986 18.0667 11.986 17.3333C11.986 16.6 12.586 16 13.3193 16C14.0527 16 14.6527 16.6 14.6527 17.3333C14.6527 18.0667 14.066 18.6667 13.3193 18.6667ZM17.986 18.6667C17.2393 18.6667 16.6527 18.0667 16.6527 17.3333C16.6527 16.6 17.2527 16 17.986 16C18.7193 16 19.3193 16.6 19.3193 17.3333C19.3193 18.0667 18.7193 18.6667 17.986 18.6667Z" fill="url(#paint0_linear_3959_79939)"/>
<path d="M29.3063 9.05366V14.387C29.3063 17.0537 28.4797 18.867 26.8263 19.867C26.4263 20.107 25.9597 19.787 25.9597 19.3203L25.973 14.387C25.973 9.05366 22.9197 6.00033 17.5863 6.00033L9.46634 6.01366C8.99968 6.01366 8.67968 5.54699 8.91968 5.14699C9.91968 3.49366 11.733 2.66699 14.3863 2.66699H22.9197C27.173 2.66699 29.3063 4.80033 29.3063 9.05366Z" fill="#7D8592"/>
<path d="M29.3063 9.05366V14.387C29.3063 17.0537 28.4797 18.867 26.8263 19.867C26.4263 20.107 25.9597 19.787 25.9597 19.3203L25.973 14.387C25.973 9.05366 22.9197 6.00033 17.5863 6.00033L9.46634 6.01366C8.99968 6.01366 8.67968 5.54699 8.91968 5.14699C9.91968 3.49366 11.733 2.66699 14.3863 2.66699H22.9197C27.173 2.66699 29.3063 4.80033 29.3063 9.05366Z" fill="url(#paint1_linear_3959_79939)"/>
<defs>
<linearGradient id="paint0_linear_3959_79939" x1="13.3193" y1="8" x2="13.3193" y2="29.3767" gradientUnits="userSpaceOnUse">
<stop stop-color="#1DB954"/>
<stop offset="1" stop-color="#0D5326"/>
</linearGradient>
<linearGradient id="paint1_linear_3959_79939" x1="19.0721" y1="2.66699" x2="19.0721" y2="19.9488" gradientUnits="userSpaceOnUse">
<stop stop-color="#1DB954"/>
<stop offset="1" stop-color="#0D5326"/>
</linearGradient>
</defs>
</svg>
