<svg width="162" height="40" viewBox="0 0 162 40" fill="none" xmlns="http://www.w3.org/2000/svg">
<g clip-path="url(#clip0_323_3187)">
<path d="M66.0956 11.6457C65.1426 10.934 63.9485 10.5732 62.5454 10.5732C59.857 10.5732 57.7363 11.6051 56.2258 13.6427C55.7795 12.8904 55.1865 12.2354 54.4822 11.7166C53.4256 10.9424 52.1422 10.5402 50.8328 10.5732C49.2797 10.5732 47.9943 10.9057 46.9948 11.5585C46.4276 11.9322 45.9046 12.3689 45.4356 12.8601C45.4356 12.302 45.2139 11.7667 44.8192 11.372C44.4245 10.9773 43.8893 10.7556 43.3311 10.7556C43.0553 10.7505 42.7814 10.8033 42.5272 10.9105C42.2729 11.0177 42.044 11.177 41.8551 11.3781C41.6632 11.5736 41.512 11.8053 41.4104 12.0597C41.3087 12.3141 41.2587 12.5862 41.2631 12.8601V27.758C41.2601 28.0304 41.3116 28.3007 41.4144 28.5529C41.5173 28.8052 41.6695 29.0344 41.8621 29.227C42.0548 29.4196 42.2839 29.5718 42.5362 29.6747C42.7884 29.7776 43.0587 29.829 43.3311 29.826C43.6047 29.8302 43.8764 29.78 44.1305 29.6784C44.3845 29.5767 44.6159 29.4257 44.8112 29.234C45.0126 29.0453 45.1723 28.8165 45.2799 28.5622C45.3874 28.308 45.4405 28.034 45.4356 27.758V17.4767C45.9316 16.6542 46.5661 15.9237 47.311 15.3174C47.9902 14.7781 48.8722 14.5065 49.9305 14.5065C51.0517 14.5065 51.8404 14.7944 52.2682 15.3641C52.7305 15.9723 52.9656 16.9861 52.9656 18.3749V27.7519C52.9632 28.0244 53.0151 28.2945 53.1183 28.5467C53.2215 28.7988 53.3739 29.0279 53.5666 29.2204C53.7594 29.413 53.9886 29.5651 54.2408 29.6681C54.493 29.771 54.7633 29.8227 55.0357 29.82C55.3093 29.824 55.5809 29.7737 55.835 29.6721C56.089 29.5705 56.3204 29.4195 56.5158 29.2279C56.7168 29.0389 56.8762 28.81 56.9837 28.5558C57.0913 28.3017 57.1446 28.0279 57.1402 27.7519V17.4767C57.6349 16.6539 58.2688 15.9232 59.0136 15.3174C59.6928 14.7781 60.5747 14.5065 61.6331 14.5065C62.7563 14.5065 63.543 14.7944 63.9728 15.3621C64.433 15.9703 64.6682 16.984 64.6682 18.3749V27.7519C64.6652 28.0245 64.7167 28.2949 64.8197 28.5473C64.9227 28.7997 65.0751 29.029 65.268 29.2216C65.4608 29.4143 65.6902 29.5665 65.9427 29.6692C66.1952 29.772 66.4657 29.8232 66.7383 29.82C67.0118 29.824 67.2835 29.7737 67.5376 29.6721C67.7916 29.5705 68.023 29.4195 68.2183 29.2279C68.4194 29.0389 68.5788 28.81 68.6863 28.5558C68.7938 28.3017 68.8471 28.0279 68.8428 27.7519V17.7504C68.8445 16.5887 68.6193 15.4379 68.1798 14.3625C67.7485 13.2822 67.0272 12.3421 66.0956 11.6457Z" fill="#08101C"/>
<path d="M87.6192 10.7497C87.3456 10.7457 87.074 10.796 86.8199 10.8976C86.5659 10.9992 86.3345 11.1502 86.1392 11.3418C85.9381 11.5308 85.7787 11.7597 85.6712 12.0139C85.5636 12.268 85.5104 12.5418 85.5147 12.8178V23.0585C84.8437 23.902 84.0487 24.6389 83.1568 25.2441C82.314 25.7945 81.3246 26.0772 80.3183 26.0551C78.0577 26.0551 77.0054 24.8711 77.0054 22.3266V12.8178C77.0084 12.5452 76.9569 12.2748 76.8539 12.0224C76.7509 11.77 76.5985 11.5407 76.4056 11.3481C76.2128 11.1554 75.9834 11.0032 75.7309 10.9005C75.4784 10.7977 75.2079 10.7465 74.9354 10.7497C74.6618 10.7456 74.3901 10.7958 74.136 10.8974C73.8819 10.999 73.6506 11.1501 73.4553 11.3418C73.2542 11.5308 73.0948 11.7597 72.9873 12.0139C72.8798 12.268 72.8265 12.5418 72.8308 12.8178V22.6814C72.8197 23.9422 73.092 25.1894 73.6276 26.3309C74.1392 27.4248 74.9495 28.3519 75.9653 29.0051C77.0407 29.6744 78.2876 30.016 79.5539 29.9884C80.9009 30.0192 82.2324 29.697 83.4163 29.0538C84.1687 28.6218 84.8699 28.1063 85.5066 27.5169V27.7197C85.5077 28.2775 85.7297 28.8122 86.1242 29.2066C86.5186 29.6011 87.0533 29.8231 87.6111 29.8242C87.8874 29.8292 88.1618 29.7762 88.4163 29.6687C88.6709 29.5611 88.9001 29.4014 89.0891 29.1997C89.2808 29.0045 89.4319 28.7731 89.5335 28.519C89.6351 28.265 89.6853 27.9933 89.6812 27.7197V12.8178C89.6842 12.5452 89.6326 12.2748 89.5296 12.0224C89.4266 11.77 89.2743 11.5407 89.0814 11.3481C88.8886 11.1554 88.6591 11.0032 88.4067 10.9005C88.1542 10.7977 87.8837 10.7465 87.6111 10.7497H87.6192Z" fill="#08101C"/>
<path d="M104.161 19.4132C103.047 18.9962 101.908 18.6469 100.751 18.3671C99.4333 18.0751 98.456 17.775 97.8478 17.4689C97.6345 17.3845 97.453 17.2356 97.3287 17.0429C97.2044 16.8502 97.1434 16.6234 97.1544 16.3943C97.1544 15.851 97.418 15.4293 97.9816 15.0684C98.6 14.6629 99.4961 14.4723 100.642 14.4723C101.935 14.4818 103.219 14.6869 104.451 15.0805H104.478C104.665 15.1321 104.857 15.1607 105.051 15.1657C105.305 15.1698 105.556 15.1211 105.79 15.0226C106.023 14.9242 106.234 14.7782 106.408 14.5939C106.581 14.4196 106.718 14.2126 106.811 13.9851C106.904 13.7575 106.951 13.5138 106.949 13.268C106.946 12.8794 106.824 12.5009 106.6 12.1833C106.358 11.832 105.999 11.5778 105.587 11.4656C103.921 10.8657 102.163 10.5637 100.392 10.5735C98.1012 10.5735 96.3008 11.129 95.0418 12.2259C93.7827 13.3227 93.1137 14.8007 93.1137 16.5667C93.1137 17.848 93.4786 18.9043 94.2004 19.7011C94.8812 20.4605 95.7324 21.0476 96.684 21.4144C97.8086 21.8333 98.9601 22.1761 100.131 22.4403C101.092 22.6642 102.032 22.9673 102.943 23.3465C103.468 23.5939 103.537 23.8818 103.537 24.1028C103.537 24.9442 103.19 26.0613 100.19 26.0613C99.3891 26.071 98.5905 25.9832 97.8113 25.7998C97.0787 25.6135 96.3626 25.3673 95.6703 25.0638C95.4099 24.9451 95.1273 24.883 94.8411 24.8813C94.5883 24.8766 94.3375 24.9259 94.1053 25.0259C93.8732 25.1259 93.665 25.2743 93.4948 25.4612C93.1595 25.8167 92.9749 26.2883 92.9798 26.777C92.9728 27.0842 93.0435 27.3881 93.1853 27.6607C93.327 27.9332 93.5353 28.1656 93.7908 28.3361L93.8395 28.3666C95.8537 29.4563 98.1125 30.0145 100.402 29.9885C102.645 29.9885 104.419 29.4573 105.674 28.4132C106.287 27.9286 106.781 27.3094 107.117 26.6034C107.452 25.8974 107.621 25.1237 107.61 24.342C107.61 23.0201 107.259 21.9395 106.568 21.1305C105.921 20.3674 105.094 19.7772 104.161 19.4132Z" fill="#08101C"/>
<path d="M112.9 10.7499C112.624 10.7447 112.35 10.7975 112.096 10.9047C111.842 11.0119 111.613 11.1712 111.424 11.3723C111.232 11.5678 111.081 11.7995 110.979 12.0539C110.877 12.3083 110.827 12.5804 110.832 12.8544V27.7522C110.829 28.0246 110.88 28.2949 110.983 28.5472C111.086 28.7994 111.238 29.0286 111.431 29.2212C111.623 29.4138 111.853 29.566 112.105 29.6689C112.357 29.7718 112.627 29.8232 112.9 29.8203C113.173 29.8244 113.445 29.7742 113.699 29.6726C113.953 29.571 114.185 29.4199 114.38 29.2282C114.581 29.0395 114.741 28.8107 114.849 28.5564C114.956 28.3022 115.009 28.0282 115.004 27.7522V12.8625C115.012 12.584 114.963 12.3068 114.86 12.0479C114.757 11.7891 114.602 11.5539 114.405 11.3569C114.208 11.1599 113.973 11.0052 113.714 10.9022C113.455 10.7992 113.178 10.7501 112.9 10.758V10.7499Z" fill="#08101C"/>
<path d="M113.04 3.62939H112.837C112.233 3.63153 111.655 3.87231 111.228 4.29923C110.801 4.72614 110.56 5.30453 110.558 5.90827V6.04614C110.56 6.64988 110.801 7.22827 111.228 7.65518C111.655 8.08209 112.233 8.32288 112.837 8.32501H113.04C113.643 8.32287 114.221 8.08203 114.648 7.65506C115.075 7.22809 115.315 6.64969 115.317 6.04614V5.90827C115.315 5.30472 115.075 4.72632 114.648 4.29935C114.221 3.87238 113.643 3.63153 113.04 3.62939Z" fill="url(#paint0_linear_323_3187)"/>
<path d="M128.459 14.541C129.093 14.5249 129.726 14.6049 130.336 14.7783C130.982 14.9973 131.608 15.2685 132.209 15.5892C132.519 15.7636 132.868 15.8564 133.223 15.8589C133.469 15.8577 133.712 15.8037 133.935 15.7005C134.158 15.5973 134.357 15.4474 134.517 15.2608C134.855 14.9134 135.047 14.4484 135.05 13.9632C135.052 13.632 134.967 13.3062 134.804 13.0178C134.641 12.7295 134.406 12.4886 134.121 12.3189C133.309 11.805 132.44 11.3859 131.532 11.07C130.453 10.7187 129.323 10.5508 128.189 10.5733C126.496 10.5589 124.825 10.9606 123.323 11.7431C121.84 12.5182 120.601 13.6878 119.741 15.1229C118.85 16.5847 118.398 18.3202 118.398 20.2828C118.398 22.2454 118.85 23.9809 119.741 25.4427C120.601 26.8774 121.841 28.0469 123.323 28.8225C124.825 29.6055 126.496 30.0073 128.189 29.9924C129.324 30.0137 130.455 29.8458 131.534 29.4957C132.443 29.1788 133.313 28.7584 134.125 28.2427C134.371 28.0971 134.58 27.8979 134.737 27.6599C134.894 27.4219 134.996 27.1514 135.033 26.8686C135.071 26.5859 135.044 26.2983 134.954 26.0275C134.865 25.7566 134.715 25.5096 134.517 25.3049C134.357 25.1173 134.159 24.9659 133.936 24.8611C133.713 24.7562 133.47 24.7001 133.223 24.6966C132.874 24.6996 132.532 24.791 132.228 24.9622C131.623 25.2826 130.993 25.5538 130.344 25.7732C129.734 25.9468 129.101 26.0268 128.467 26.0104C126.599 26.0104 125.182 25.4975 124.138 24.4412C123.094 23.3849 122.583 22.0082 122.583 20.2666C122.583 18.525 123.092 17.1484 124.138 16.09C125.184 15.0317 126.591 14.541 128.459 14.541Z" fill="#08101C"/>
<path d="M149.741 11.6173C148.567 10.926 147.12 10.5752 145.439 10.5752C143.305 10.5828 141.195 11.0214 139.235 11.8647C138.869 11.9956 138.555 12.239 138.336 12.5599C138.117 12.8809 138.006 13.2628 138.018 13.6509C138.013 13.8915 138.058 14.1306 138.149 14.3534C138.24 14.5762 138.375 14.778 138.547 14.9464C138.71 15.1163 138.906 15.251 139.123 15.3424C139.34 15.4337 139.573 15.4798 139.808 15.4776C140.003 15.4735 140.197 15.4449 140.384 15.3925L140.421 15.3823C141.147 15.1359 141.887 14.9328 142.637 14.7741C143.376 14.6323 144.127 14.5643 144.879 14.5713C146.341 14.5713 147.413 14.8674 148.066 15.4492C148.675 15.9865 148.989 16.8908 149.023 18.1417H145.335C142.619 18.1417 140.512 18.6891 139.074 19.7637C138.364 20.2757 137.789 20.9536 137.401 21.7384C137.012 22.5233 136.821 23.3912 136.844 24.2667C136.825 25.3408 137.118 26.3973 137.688 27.3079C138.241 28.1786 139.03 28.8746 139.963 29.3151C140.912 29.7664 141.952 29.9972 143.004 29.9903C145.352 29.9903 147.375 29.3151 149.038 27.979C149.08 28.4487 149.289 28.8878 149.625 29.2178C149.817 29.4119 150.046 29.565 150.299 29.6678C150.552 29.7706 150.823 29.821 151.095 29.8159C151.369 29.8199 151.641 29.7697 151.895 29.6681C152.149 29.5665 152.38 29.4155 152.575 29.2239C152.777 29.0349 152.936 28.806 153.043 28.5518C153.151 28.2976 153.204 28.0238 153.2 27.7479V17.9309C153.208 16.6888 152.922 15.4624 152.365 14.3524C151.774 13.2055 150.862 12.2552 149.741 11.6173ZM149.029 21.6939V23.9099C148.419 24.5627 147.7 25.1052 146.905 25.5136C146.07 25.9616 145.137 26.1982 144.19 26.203C143.004 26.203 142.162 25.988 141.698 25.5684C141.47 25.363 141.29 25.1095 141.172 24.8262C141.054 24.5429 141 24.2368 141.015 23.9302C141.015 22.4461 142.608 21.6999 145.751 21.6999L149.029 21.6939Z" fill="#08101C"/>
<path d="M161.077 3.70836C160.88 3.51002 160.646 3.35379 160.387 3.24921C160.128 3.14463 159.851 3.09389 159.572 3.10012C159.296 3.09551 159.022 3.1487 158.768 3.25624C158.514 3.36378 158.285 3.52332 158.096 3.72459C157.904 3.91985 157.753 4.15122 157.652 4.40528C157.55 4.65934 157.5 4.93104 157.504 5.20464V27.7522C157.501 28.0246 157.553 28.2948 157.655 28.5471C157.758 28.7993 157.911 29.0285 158.103 29.2211C158.296 29.4138 158.525 29.566 158.777 29.6688C159.03 29.7717 159.3 29.8232 159.572 29.8202C159.846 29.8243 160.117 29.7741 160.372 29.6725C160.626 29.5709 160.857 29.4198 161.052 29.2282C161.254 29.0394 161.413 28.8106 161.521 28.5564C161.628 28.3021 161.682 28.0282 161.677 27.7522V5.21276C161.684 4.93438 161.635 4.65742 161.531 4.39877C161.428 4.14012 161.274 3.9052 161.077 3.70836Z" fill="#08101C"/>
<path d="M21.0249 31.7887C20.525 31.787 20.0372 31.6349 19.6249 31.3521C19.2127 31.0693 18.8951 30.669 18.7136 30.2033C18.541 29.7563 18.503 29.2685 18.6042 28.8002C18.7054 28.3318 18.9415 27.9034 19.2833 27.5675C19.7525 27.1049 20.3862 26.8474 21.0452 26.8518L27.8392 26.8741V22.5637L17.2153 22.584C16.5565 22.5866 15.9236 22.3277 15.4554 21.8643C15.2246 21.6361 15.0414 21.3644 14.9163 21.0649C14.7913 20.7655 14.7269 20.4442 14.7269 20.1196C14.7269 19.7951 14.7913 19.4738 14.9163 19.1743C15.0414 18.8748 15.2246 18.6031 15.4554 18.375C15.6861 18.144 15.9602 17.9608 16.2618 17.8359C16.5634 17.711 16.8868 17.6468 17.2132 17.6471L27.8473 17.6268V13.3894H21.0391C20.7131 13.3914 20.3899 13.3289 20.0882 13.2053C19.7865 13.0818 19.5122 12.8997 19.2813 12.6697C19.0491 12.4426 18.8647 12.1713 18.739 11.8719C18.6133 11.5724 18.5488 11.2508 18.5493 10.9261C18.547 10.6214 18.6035 10.3192 18.7156 10.036C18.8975 9.57033 19.2155 9.17034 19.6282 8.88822C20.0409 8.6061 20.529 8.45497 21.0289 8.45456H27.8372C27.7303 6.17657 26.7502 4.02725 25.1004 2.45289C23.4505 0.878532 21.2576 0.000101386 18.9771 0H8.87019C6.58969 0.000101386 4.39685 0.878532 2.74698 2.45289C1.09711 4.02725 0.116996 6.17657 0.010138 8.45456H6.05201C6.55213 8.45512 7.04049 8.60627 7.45348 8.88834C7.86646 9.17042 8.18492 9.57033 8.36738 10.036C8.51086 10.4116 8.56055 10.8165 8.51214 11.2156C8.46372 11.6147 8.31867 11.996 8.08956 12.3264C7.86045 12.6568 7.5542 12.9263 7.19737 13.1115C6.84054 13.2968 6.44391 13.3921 6.04187 13.3894H0V17.6268L10.3097 17.6451C10.8094 17.6463 11.2972 17.7975 11.71 18.0791C12.1228 18.3607 12.4416 18.7597 12.6251 19.2245C12.7963 19.6714 12.834 20.1584 12.7336 20.6263C12.6332 21.0943 12.399 21.5229 12.0594 21.8602C11.5933 22.3285 10.9603 22.5925 10.2996 22.5942L0 22.5739V26.8316H6.05606C6.38219 26.83 6.70542 26.8929 7.00711 27.0168C7.3088 27.1406 7.58299 27.323 7.81388 27.5534C8.1544 27.89 8.38886 28.319 8.4883 28.7874C8.58775 29.2558 8.54782 29.7431 8.37346 30.1891C8.19024 30.6543 7.87119 31.0535 7.45785 31.3349C7.04452 31.6162 6.55606 31.7666 6.05606 31.7664H0.0243287C0.183311 34.004 1.18434 36.0981 2.82575 37.6271C4.46717 39.156 6.62701 40.0061 8.87019 40.0061H18.969C21.2038 40.0064 23.3564 39.1628 24.9958 37.644C26.6352 36.1253 27.6407 34.0434 27.8108 31.8151L21.0249 31.7887Z" fill="url(#paint1_linear_323_3187)"/>
</g>
<defs>
<linearGradient id="paint0_linear_323_3187" x1="110.552" y1="5.9772" x2="115.317" y2="5.9772" gradientUnits="userSpaceOnUse">
<stop stop-color="#0575E6"/>
<stop offset="1" stop-color="#00F260"/>
</linearGradient>
<linearGradient id="paint1_linear_323_3187" x1="0" y1="20.001" x2="27.8392" y2="20.001" gradientUnits="userSpaceOnUse">
<stop stop-color="#0575E6"/>
<stop offset="1" stop-color="#00F260"/>
</linearGradient>
<clipPath id="clip0_323_3187">
<rect width="161.677" height="40" fill="white"/>
</clipPath>
</defs>
</svg>
