<svg width="14" height="15" viewBox="0 0 14 15" fill="none" xmlns="http://www.w3.org/2000/svg">
<path d="M7.00359 14.1685C3.32169 14.1685 0.336914 11.1837 0.336914 7.50181C0.336914 3.81994 3.32169 0.835175 7.00359 0.835175C10.6855 0.835175 13.6703 3.81994 13.6703 7.50181C13.6703 11.1837 10.6855 14.1685 7.00359 14.1685ZM7.00359 12.8351C9.94913 12.8351 12.3369 10.4473 12.3369 7.50181C12.3369 4.55632 9.94913 2.16851 7.00359 2.16851C4.05806 2.16851 1.67025 4.55632 1.67025 7.50181C1.67025 10.4473 4.05806 12.8351 7.00359 12.8351ZM7.00359 4.20201L10.3034 7.50181L7.00359 10.8017L3.70375 7.50181L7.00359 4.20201ZM7.00359 6.08763L5.58937 7.50181L7.00359 8.91607L8.41779 7.50181L7.00359 6.08763Z" fill="#1DB954"/>
</svg>
