<?xml version="1.0" encoding="UTF-8"?>
<svg id="Layer_2" data-name="Layer 2" xmlns="http://www.w3.org/2000/svg" viewBox="0 0 885 256.21">
  <defs>
    <style>
      .cls-1 {
        letter-spacing: -.04em;
      }

      .cls-2 {
        fill: #2aff89;
      }

      .cls-2, .cls-3, .cls-4 {
        stroke-width: 0px;
      }

      .cls-5 {
        font-family: SFPro-Bold, 'SF Pro';
        font-size: 48px;
        font-variation-settings: 'wdth' 100, 'opsz' 28, 'wght' 700;
        font-weight: 700;
      }

      .cls-5, .cls-3 {
        fill: #fff;
      }

      .cls-4 {
        fill: #2ac8ff;
      }
    </style>
  </defs>
  <g id="Layer_1-2" data-name="Layer 1">
    <g>
      <g>
        <path class="cls-4" d="M181.65,27.31c-.65-.59-1.31-1.16-1.98-1.73,5.58,9.95,7.57,21.4,6.83,33.82-3.03,41.31-30.84,90.48-58.08,120.92-15.8,17.36-34.79,32.36-57.09,20.12l-.06-.03c-7.74-3.95-16.36-11.65-24.05-19.92.95,1.22,1.9,2.44,2.87,3.65,9.42,11.84,22.58,25.6,33.88,31.36l.06.03c22.3,12.24,41.29-2.76,57.09-20.12,27.24-30.43,55.05-79.61,58.08-120.92,1.1-18.44-3.82-34.72-17.55-47.18Z"/>
        <g>
          <path class="cls-2" d="M179.66,25.58c-3.56-3.01-7.41-5.73-11.46-8.17,2.18,7.24,2.9,15.07,2.41,23.33-3.03,41.31-30.84,90.48-58.08,120.92-15.8,17.36-34.79,32.36-57.09,20.12l-.06-.03c-5.06-2.58-10.5-6.77-15.8-11.67,2.46,3.54,5.01,7.01,7.64,10.42,7.69,8.27,16.3,15.97,24.05,19.92l.06.03c22.3,12.24,41.29-2.76,57.09-20.12,27.24-30.43,55.05-79.61,58.08-120.92.74-12.42-1.26-23.86-6.83-33.82Z"/>
          <path class="cls-3" d="M55.44,181.77c22.3,12.24,41.29-2.76,57.09-20.12,27.24-30.43,55.05-79.61,58.08-120.92.49-8.26-.24-16.08-2.41-23.33-9.42-5.68-19.97-9.87-30.81-12.71C101.72-4.48,58.25-.57,27.56,19.61c-9.74,6.37-18.38,14.91-22.97,25.69-11.69,28.82,1.13,61.93,14.25,89.44,6.05,12.31,12.97,24.15,20.75,35.33,5.31,4.9,10.74,9.09,15.8,11.67l.06.03Z"/>
        </g>
      </g>
      <g>
        <polygon class="cls-3" points="307.74 141.36 305.5 141.36 271.95 61.97 234.6 61.97 285.59 174.02 326.97 174.02 378.19 61.97 341.51 61.97 307.74 141.36"/>
        <path class="cls-3" d="M478.05,65.99c-9.17-4.17-19.87-6.26-32.09-6.26s-23.23,2.39-32.54,7.16c-9.32,4.77-16.59,11.52-21.81,20.24-5.22,8.72-7.83,19.05-7.83,30.98,0,13.12,2.61,24.01,7.83,32.65,5.22,8.65,12.6,15.06,22.14,19.24,9.54,4.17,20.5,6.26,32.88,6.26s22.33-1.75,31.2-5.26c8.87-3.5,15.77-8.39,20.69-14.65,4.92-6.26,7.38-13.42,7.38-21.47v-2.46h-33.55v2.24c0,4.77-2.01,8.43-6.04,10.96-4.02,2.54-10.96,3.8-20.8,3.8-11.48,0-19.46-2.2-23.93-6.6-4-3.93-6.2-9.95-6.62-18.01h91.17c.3-1.94.52-3.72.67-5.37.14-1.64.22-3.43.22-5.37,0-11.63-2.54-21.51-7.61-29.64-5.07-8.12-12.19-14.28-21.36-18.45ZM445.29,85.9c10.43,0,17.97,1.87,22.59,5.59,4.12,3.32,6.39,8.55,6.84,15.66h-59.47c.8-6.39,2.9-11.28,6.33-14.65,4.47-4.4,12.37-6.6,23.71-6.6Z"/>
        <path class="cls-3" d="M612.47,64.99c-5.14-3.5-11.97-5.26-20.46-5.26-7.46,0-13.79,1.38-19.01,4.14-5.22,2.76-9.36,6.56-12.41,11.41-3.06,4.85-5.11,10.33-6.15,16.44h-2.01v-29.75h-31.09v112.05h33.55v-64.86c0-7.16,1.53-12.45,4.58-15.88,3.05-3.43,8.31-5.14,15.77-5.14,6.86,0,11.67,1.38,14.43,4.14,2.76,2.76,4.14,7.27,4.14,13.53v11.63h33.55v-18.56c0-7.3-1.2-13.9-3.58-19.79-2.39-5.89-6.15-10.59-11.3-14.09Z"/>
        <path class="cls-3" d="M742.08,119.67c-6.26-5.22-16.85-8.65-31.76-10.29l-23.93-2.91c-7.31-1.04-12.12-2.27-14.43-3.69-2.31-1.42-3.47-3.54-3.47-6.37,0-3.58,1.42-6.15,4.25-7.72,2.83-1.57,8.42-2.35,16.77-2.35,6.86,0,12.11.52,15.77,1.57,3.65,1.04,6.11,2.57,7.38,4.58,1.27,2.01,1.9,4.59,1.9,7.72v1.34h33.55v-.67c0-9.09-2.24-16.7-6.71-22.81-4.47-6.11-11-10.7-19.57-13.76-8.58-3.05-18.98-4.59-31.2-4.59-12.83,0-23.3,1.6-31.42,4.81-8.13,3.21-14.13,7.46-18,12.75-3.88,5.29-5.81,11.22-5.81,17.78,0,9.54,3.02,16.85,9.06,21.92,6.04,5.07,14.65,8.2,25.83,9.39l31.54,3.8c6.56.89,10.96,1.98,13.2,3.24,2.24,1.27,3.35,3.47,3.35,6.6s-1.45,5.7-4.36,7.27c-2.91,1.57-8.84,2.35-17.78,2.35-9.54,0-16.14-.86-19.79-2.57-3.66-1.71-5.48-5.11-5.48-10.18v-2.01h-33.55v.67c0,12.97,5.07,23,15.21,30.08,10.14,7.08,24.6,10.62,43.39,10.62,11.63,0,21.54-1.45,29.75-4.36,8.2-2.91,14.54-6.97,19.01-12.19,4.47-5.22,6.71-11.33,6.71-18.34,0-9.24-3.13-16.47-9.39-21.7Z"/>
        <path class="cls-3" d="M877.4,84.44c-5.07-8.12-12.19-14.28-21.36-18.45-9.17-4.17-19.87-6.26-32.1-6.26s-23.23,2.39-32.54,7.16c-9.32,4.77-16.59,11.52-21.81,20.24-5.22,8.72-7.83,19.05-7.83,30.98,0,13.12,2.61,24.01,7.83,32.65,5.22,8.65,12.6,15.06,22.14,19.24,9.54,4.17,20.5,6.26,32.88,6.26s22.33-1.75,31.2-5.26c8.87-3.5,15.77-8.39,20.69-14.65,4.92-6.26,7.38-13.42,7.38-21.47v-2.46h-33.55v2.24c0,4.77-2.01,8.43-6.04,10.96-4.03,2.54-10.96,3.8-20.8,3.8-11.48,0-19.46-2.2-23.93-6.6-4-3.93-6.2-9.95-6.62-18.01h91.17c.3-1.94.52-3.72.67-5.37.15-1.64.22-3.43.22-5.37,0-11.63-2.54-21.51-7.6-29.64ZM823.27,85.9c10.43,0,17.97,1.87,22.59,5.59,4.12,3.32,6.39,8.55,6.84,15.66h-59.47c.8-6.39,2.9-11.28,6.33-14.65,4.47-4.4,12.37-6.6,23.71-6.6Z"/>
      </g>
      <text class="cls-5" transform="translate(522.51 227.97)"><tspan class="cls-1" x="0" y="0">f</tspan><tspan x="15.33" y="0">ormerly musical</tspan></text>
    </g>
  </g>
</svg>