<?xml version="1.0" encoding="UTF-8"?>
<svg version="1.1" xmlns="http://www.w3.org/2000/svg" width="1080" height="1080">
    <path
        d="M0 0 C1.48992462 0.00323273 1.48992462 0.00323273 3.00994873 0.00653076 C17.83854304 0.05812975 32.34030978 0.48305508 46.9375 3.3125 C47.99420898 3.51117676 49.05091797 3.70985352 50.13964844 3.91455078 C101.87276431 13.88045406 149.28474252 36.88263024 180.5 80.5625 C211.66712428 126.81934115 219.05218664 185.16586777 208.8125 239.3125 C208.62977539 240.22652588 208.44705078 241.14055176 208.25878906 242.08227539 C207.36866482 246.57117702 206.71022333 250.7063594 206.9375 255.3125 C209.71769918 252.53230082 210.83480051 249.1728668 212.32421875 245.59765625 C212.65843338 244.80662003 212.99264801 244.0155838 213.33699036 243.20057678 C214.43734582 240.59386233 215.53106752 237.98441558 216.625 235.375 C217.38353657 233.57576532 218.14265677 231.77677659 218.90234375 229.97802734 C220.07297576 227.20625196 221.24331767 224.43435947 222.41195679 221.66174316 C226.06019779 213.00788554 229.74758091 204.37106173 233.44985962 195.74020386 C234.42669853 193.46268384 235.40226891 191.18462359 236.37768555 188.90649414 C236.97046213 187.52356672 237.56331264 186.14067099 238.15625 184.7578125 C238.67123047 183.55656738 239.18621094 182.35532227 239.71679688 181.11767578 C240.42086515 179.49972689 241.14839028 177.89071944 241.9375 176.3125 C254.4775 176.3125 267.0175 176.3125 279.9375 176.3125 C278.37348324 181.00455029 276.62957602 185.37132514 274.55078125 189.83203125 C274.21729172 190.55456589 273.88380219 191.27710052 273.54020691 192.02153015 C272.82161803 193.57764327 272.10162732 195.13310968 271.38037109 196.68798828 C269.44129811 200.86851237 267.51253795 205.0537964 265.58203125 209.23828125 C265.18883698 210.08975739 264.7956427 210.94123352 264.39053345 211.81851196 C260.70606858 219.8014081 257.06701991 227.80451164 253.4375 235.8125 C245.33637115 253.67593495 237.13865399 271.49481538 228.9375 289.3125 C217.3875 289.3125 205.8375 289.3125 193.9375 289.3125 C192.4525 294.2625 192.4525 294.2625 190.9375 299.3125 C190.08832622 301.39600797 189.18901366 303.46037675 188.22265625 305.4921875 C187.70743408 306.57604736 187.19221191 307.65990723 186.66137695 308.77661133 C186.11312256 309.90220459 185.56486816 311.02779785 185 312.1875 C184.42660889 313.36916748 183.85321777 314.55083496 183.26245117 315.76831055 C175.54814797 331.50839245 166.52923579 346.34880184 155.9375 360.3125 C155.50083008 360.89193359 155.06416016 361.47136719 154.61425781 362.06835938 C148.59160004 370.02052234 142.2623648 377.59997992 135.36767578 384.81054688 C134.40831743 385.81805329 133.45621006 386.83251063 132.51123047 387.85351562 C104.01007222 418.62518631 64.41399456 436.75659404 22.9375 441.3125 C22.02355469 441.42207031 21.10960937 441.53164063 20.16796875 441.64453125 C-10.26585366 444.76701645 -43.01208638 440.6822846 -71.0625 428.3125 C-71.73361816 428.02681152 -72.40473633 427.74112305 -73.09619141 427.44677734 C-101.76974974 415.16947999 -126.71197933 394.62469263 -146.0625 370.3125 C-146.63436035 369.59916504 -147.2062207 368.88583008 -147.79541016 368.15087891 C-158.53507489 354.63615173 -167.51325304 340.29055229 -176.0625 325.3125 C-176.50819336 324.54373535 -176.95388672 323.7749707 -177.41308594 322.98291016 C-185.68085323 308.64339649 -197.11486162 288.52482265 -197.2298584 271.83332825 C-197.23565178 271.17235144 -197.24144517 270.51137463 -197.24741411 269.83036822 C-197.26548224 267.6106334 -197.27634821 265.39092401 -197.28710938 263.17114258 C-197.29828568 261.58091501 -197.30979904 259.99068979 -197.32162476 258.40046692 C-197.35820259 253.16935507 -197.38341972 247.93821913 -197.40625 242.70703125 C-197.41019587 241.8154487 -197.41414173 240.92386615 -197.41820717 240.00526595 C-197.45465111 231.58561986 -197.48607826 223.16596525 -197.50731659 214.74626637 C-197.53482147 204.00257782 -197.5854379 193.25955442 -197.66779089 182.51614267 C-197.72380618 174.94987192 -197.75258547 167.38378023 -197.7617898 159.81730956 C-197.7680158 155.30607599 -197.78585235 150.79562181 -197.83317566 146.28461647 C-197.87726787 142.02846949 -197.88720198 137.77351654 -197.87254715 133.51717949 C-197.87287232 131.96772846 -197.8848723 130.41822122 -197.91039658 128.86898041 C-198.09236366 117.19304736 -195.40314537 108.66312197 -190.0625 98.3125 C-189.6125341 97.4241084 -189.16256821 96.5357168 -188.69896698 95.62040424 C-187.67285128 93.64084842 -186.58298704 91.72515729 -185.4375 89.8125 C-185.02709473 89.12091797 -184.61668945 88.42933594 -184.19384766 87.71679688 C-179.25049125 79.641977 -173.23105857 72.46819315 -167.0625 65.3125 C-166.29550781 64.40371094 -165.52851563 63.49492187 -164.73828125 62.55859375 C-133.81488167 26.65342842 -84.75884867 8.85340136 -39.0625 2.3125 C-37.85408447 2.13517334 -36.64566895 1.95784668 -35.40063477 1.77514648 C-23.60348933 0.15352604 -11.89432229 -0.04649036 0 0 Z "
        fill="#FEFEFE" transform="translate(197.0625,296.6875)" />
    <path
        d="M0 0 C8.31524281 15.80530886 -0.21979336 41.75705592 -4.8515625 57.4375 C-6.87454576 63.87837774 -9.37391348 70.02683002 -12.125 76.1875 C-12.84514282 77.80760986 -12.84514282 77.80760986 -13.57983398 79.46044922 C-27.98295959 111.3701494 -52.65413445 154.80255815 -86.8515625 168.12109375 C-96.54745484 170.82776345 -105.74826952 169.32184425 -114.4921875 164.67578125 C-117.06094471 163.18840055 -119.54027415 161.66276018 -122 160 C-122.62277832 159.59080322 -123.24555664 159.18160645 -123.88720703 158.76000977 C-129.21384075 155.06113376 -132.4416548 151.09732549 -135.75 145.5625 C-136.50579346 144.3262085 -136.50579346 144.3262085 -137.27685547 143.06494141 C-156.38863102 111.31865253 -175.29376127 74.00641007 -168 36 C-164.05042963 20.80643743 -153.72006233 8.98473417 -140.625 0.6875 C-102.39117665 -21.32048038 -37.48479263 -29.30425493 0 0 Z "
        fill="#000000" transform="translate(267,429)" />
    <path
        d="M0 0 C10.90554186 9.16697722 17.92868742 20.01864393 19.69921875 34.3984375 C19.77785156 35.62820313 19.85648438 36.85796875 19.9375 38.125 C20.02386719 39.34960938 20.11023438 40.57421875 20.19921875 41.8359375 C20.25 45.75 20.25 45.75 19.25 54.75 C-10.78 54.75 -40.81 54.75 -71.75 54.75 C-69.84616 66.10632797 -69.84616 66.10632797 -62.625 74.0625 C-51.37186161 79.60580073 -37.03815314 79.10809398 -25.25390625 75.71875 C-21.70146804 74.34432773 -19.86629004 72.92443507 -17.75 69.75 C-17.09 67.11 -16.43 64.47 -15.75 61.75 C-4.53 61.75 6.69 61.75 18.25 61.75 C18.25 74.59558881 16.06903892 82.64264634 7.25 91.75 C-7.80477711 104.92292997 -28.47220693 107.58816492 -47.75 106.75 C-61.47794855 105.65050755 -74.73923246 102.32197911 -85.75 93.75 C-86.61625 93.1725 -87.4825 92.595 -88.375 92 C-99.74440949 81.22898049 -104.08366165 66.68738072 -104.93359375 51.4609375 C-105.29913184 33.44205999 -100.8547027 18.55216535 -88.4296875 5.26953125 C-66.64489401 -15.63966764 -24.4976124 -18.02890726 0 0 Z M-67.3203125 23.54296875 C-70.49391277 28.23082971 -70.8863365 30.70435551 -71.75 36.75 C-52.61 36.75 -33.47 36.75 -13.75 36.75 C-14.77366399 27.71358601 -14.77366399 27.71358601 -20.44140625 21.33984375 C-32.19785145 13.19345849 -57.11597182 11.89174395 -67.3203125 23.54296875 Z "
        fill="#000000" transform="translate(585.75,482.25)" />
    <path
        d="M0 0 C10.78431545 9.06507675 15.84072777 18.11291108 19.25 31.75 C19.25 39.34 19.25 46.93 19.25 54.75 C-10.78 54.75 -40.81 54.75 -71.75 54.75 C-69.84616 66.10632797 -69.84616 66.10632797 -62.625 74.0625 C-51.37186161 79.60580073 -37.03815314 79.10809398 -25.25390625 75.71875 C-21.70146804 74.34432773 -19.86629004 72.92443507 -17.75 69.75 C-17.09 67.11 -16.43 64.47 -15.75 61.75 C-4.53 61.75 6.69 61.75 18.25 61.75 C18.25 74.59558881 16.06903892 82.64264634 7.25 91.75 C-7.80477711 104.92292997 -28.47220693 107.58816492 -47.75 106.75 C-61.47794855 105.65050755 -74.73923246 102.32197911 -85.75 93.75 C-86.61625 93.1725 -87.4825 92.595 -88.375 92 C-99.83043256 81.14748494 -103.98652395 66.63841285 -104.96875 51.34375 C-105.40119792 35.34317705 -101.98239732 20.64666138 -91.375 8.375 C-69.19370526 -14.76908884 -26.36419676 -19.40261158 0 0 Z M-67.3203125 23.54296875 C-70.49391277 28.23082971 -70.8863365 30.70435551 -71.75 36.75 C-52.61 36.75 -33.47 36.75 -13.75 36.75 C-14.78161632 27.72910994 -14.78161632 27.72910994 -20.40625 21.33984375 C-32.0054359 13.18713727 -57.21141919 12.0007249 -67.3203125 23.54296875 Z "
        fill="#000000" transform="translate(963.75,482.25)" />
    <path
        d="M0 0 C9.44097171 8.67595743 11.08002028 18.45633706 12.12109375 30.94921875 C0.57109375 30.94921875 -10.97890625 30.94921875 -22.87890625 30.94921875 C-23.86890625 26.49421875 -23.86890625 26.49421875 -24.87890625 21.94921875 C-28.22424642 18.10827263 -33.57187326 17.13401427 -38.4909668 16.73999023 C-41.45615685 16.64496021 -44.41226378 16.62722246 -47.37890625 16.63671875 C-48.38566406 16.62060547 -49.39242187 16.60449219 -50.4296875 16.58789062 C-56.34273663 16.58401576 -60.69186391 17.02081984 -65.87890625 19.94921875 C-67.27825638 22.74791902 -67.1315603 24.85420667 -66.87890625 27.94921875 C-62.36972513 33.77974875 -53.15900422 33.98748866 -46.33087158 34.89486694 C-41.38760147 35.51846058 -36.44046585 36.10623273 -31.49072266 36.67602539 C-0.78241681 40.24975924 -0.78241681 40.24975924 9.99609375 51.76171875 C15.48381164 59.99329559 16.29765162 68.71684831 14.72265625 78.3984375 C12.49531035 86.68589983 6.49002725 92.68767879 -0.56640625 97.26171875 C-21.17204422 108.60110184 -48.52118211 108.46931722 -70.75390625 102.19921875 C-81.9267557 98.45188929 -91.23083873 92.42976721 -96.75390625 81.82421875 C-99.96698356 75.16399889 -99.87890625 70.64552641 -99.87890625 62.94921875 C-88.65890625 62.94921875 -77.43890625 62.94921875 -65.87890625 62.94921875 C-64.88890625 66.24921875 -63.89890625 69.54921875 -62.87890625 72.94921875 C-56.5542112 77.58732846 -48.54456357 77.13111648 -41.00390625 77.13671875 C-40.14410156 77.14896484 -39.28429687 77.16121094 -38.3984375 77.17382812 C-32.3872483 77.18751065 -25.73077563 77.19614614 -20.81640625 73.32421875 C-19.36840661 69.65595299 -20.17315094 66.79879314 -20.87890625 62.94921875 C-29.03860726 61.15108379 -37.1568811 59.69541781 -45.453125 58.703125 C-46.27716827 58.6041391 -47.10121155 58.5051532 -47.95022583 58.40316772 C-51.34413008 58.00030084 -54.73875026 57.6049392 -58.13500977 57.22241211 C-86.75195386 53.96992805 -86.75195386 53.96992805 -96.40625 43.25390625 C-102.45642152 35.43252509 -102.74141844 26.5220392 -101.87890625 16.94921875 C-99.33628148 6.68251226 -93.7315437 0.91131014 -84.8984375 -4.4453125 C-61.15321946 -17.07051899 -21.70481906 -16.4300847 0 0 Z "
        fill="#000000" transform="translate(834.87890625,483.05078125)" />
    <path
        d="M0 0 C15.36645177 9.59040962 25.06230143 20.26917331 30 38 C36.80209879 76.5739273 16.43918128 119.02811254 -4.81640625 149.94921875 C-38.59477119 197.14224741 -38.59477119 197.14224741 -61 203 C-74.00911539 204.53447812 -83.10652458 201.59939643 -93.48828125 193.98828125 C-97.85515719 190.53145411 -101.95139533 186.82138706 -106 183 C-106.59296875 182.45988281 -107.1859375 181.91976562 -107.796875 181.36328125 C-113.44362301 176.02575991 -118.02586064 169.75364109 -122.75146484 163.61230469 C-124.4746803 161.38701824 -126.23428677 159.19163468 -128 157 C-127.505 156.01 -127.505 156.01 -127 155 C-126.29875 155.53109375 -125.5975 156.0621875 -124.875 156.609375 C-113.49592978 165.08183489 -104.45177908 169.38333471 -90 168 C-70.05173448 162.83662319 -55.79519968 144.83728301 -44 129 C-43.52981445 128.37947754 -43.05962891 127.75895508 -42.57519531 127.11962891 C-25.66562193 104.6975575 -11.03199107 78.33827545 -4 51 C-3.72800781 49.99066406 -3.45601563 48.98132813 -3.17578125 47.94140625 C-2.39994516 44.97052171 -1.68714136 41.99252097 -1 39 C-0.79246094 38.154375 -0.58492188 37.30875 -0.37109375 36.4375 C2.20276832 24.63013275 1.53762352 11.91658228 0 0 Z "
        fill="#29FC89" transform="translate(267,429)" />
    <path
        d="M0 0 C12.87 0 25.74 0 39 0 C41.124375 5.115 43.24875 10.23 45.4375 15.5 C50.9803693 28.81321773 56.55531514 42.11273857 62.18118286 55.39111328 C62.93458376 57.17012387 63.686926 58.94958317 64.4382019 60.72949219 C65.49346718 63.22853826 66.55278139 65.72582786 67.61328125 68.22265625 C67.92723846 68.96794083 68.24119568 69.7132254 68.56466675 70.48109436 C69.86239909 73.52516532 71.15847125 76.23770688 73 79 C73.70008179 77.36647583 73.70008179 77.36647583 74.41430664 75.69995117 C74.72678345 74.9708403 75.03926025 74.24172943 75.36120605 73.49052429 C76.07377605 71.82785752 76.78634097 70.16518858 77.49890137 68.5025177 C79.50232488 63.82780039 81.50584095 59.15312278 83.50952148 54.47851562 C87.14730493 45.99129414 90.78485191 37.5039737 94.41847229 29.01496887 C95.80595556 25.77350149 97.19384506 22.53220811 98.58175659 19.29092407 C99.23474449 17.76560594 99.88751606 16.24019518 100.54006958 14.71469116 C101.44414619 12.60123102 102.3489461 10.48808194 103.25390625 8.375 C103.76252197 7.18648438 104.2711377 5.99796875 104.79516602 4.7734375 C105.49351387 3.1658931 106.21617748 1.56764504 107 0 C119.54 0 132.08 0 145 0 C143.43598324 4.69205029 141.69207602 9.05882514 139.61328125 13.51953125 C139.11304695 14.60333321 139.11304695 14.60333321 138.60270691 15.70903015 C137.88411803 17.26514327 137.16412732 18.82060968 136.44287109 20.37548828 C134.50379811 24.55601237 132.57503795 28.7412964 130.64453125 32.92578125 C130.25133698 33.77725739 129.8581427 34.62873352 129.45303345 35.50601196 C125.76856858 43.4889081 122.12951991 51.49201164 118.5 59.5 C110.39882465 77.3635375 102.19820782 95.1807549 94 113 C79.81 113 65.62 113 51 113 C41.67854699 94.35709399 41.67854699 94.35709399 37.4206543 84.9777832 C37.10800629 84.28979645 36.79535828 83.60180969 36.47323608 82.89297485 C36.15206818 82.18579315 35.83090027 81.47861145 35.5 80.75 C34.81100681 79.23850122 34.12195925 77.72702721 33.43286133 76.21557617 C27.77004602 63.7749757 22.21428486 51.28727525 16.68554688 38.78662109 C12.25258991 28.77064304 7.73973307 18.79683707 3.09643555 8.8762207 C2.68304932 7.98636475 2.26966309 7.09650879 1.84375 6.1796875 C1.48474609 5.41382324 1.12574219 4.64795898 0.75585938 3.85888672 C0 2 0 2 0 0 Z "
        fill="#000000" transform="translate(332,473)" />
    <path
        d="M0 0 C8.55134311 6.63662112 12.30417405 17.16804318 13.62109375 27.59765625 C13.83842833 32.14488519 13.811529 36.67172172 13.74609375 41.22265625 C13.70484375 45.30640625 13.66359375 49.39015625 13.62109375 53.59765625 C2.07109375 53.59765625 -9.47890625 53.59765625 -21.37890625 53.59765625 C-21.69140625 44.47265625 -21.69140625 44.47265625 -21.7668457 41.63232422 C-21.98468819 36.6553389 -22.40183208 32.77444687 -25.37890625 28.59765625 C-29.83606022 25.53781034 -34.0345186 25.08185082 -39.31640625 25.16015625 C-40.37927856 25.17151611 -40.37927856 25.17151611 -41.46362305 25.18310547 C-47.00401118 25.35870597 -50.23132871 25.93235517 -54.37890625 29.59765625 C-58.22392517 35.49335193 -58.494666 41.63747705 -58.58422852 48.52099609 C-58.59412811 49.18511505 -58.60402771 49.84923401 -58.61422729 50.53347778 C-58.64558212 52.70848132 -58.67049567 54.88350664 -58.6953125 57.05859375 C-58.71590456 58.5746006 -58.7369016 60.09060201 -58.75828552 61.6065979 C-58.81327376 65.58164026 -58.86278477 69.55673242 -58.91113281 73.53186035 C-58.97038933 78.30941674 -59.0364884 83.08688282 -59.1014328 87.86436462 C-59.19914949 95.10873965 -59.2882055 102.35317469 -59.37890625 109.59765625 C-70.59890625 109.59765625 -81.81890625 109.59765625 -93.37890625 109.59765625 C-93.37890625 72.30765625 -93.37890625 35.01765625 -93.37890625 -3.40234375 C-82.81890625 -3.40234375 -72.25890625 -3.40234375 -61.37890625 -3.40234375 C-61.04890625 5.50765625 -60.71890625 14.41765625 -60.37890625 23.59765625 C-58.39890625 18.15265625 -58.39890625 18.15265625 -56.37890625 12.59765625 C-50.26456243 3.36619597 -43.30549844 -2.38745059 -32.390625 -4.9296875 C-21.17536381 -6.68979983 -9.94264523 -5.86109957 0 0 Z "
        fill="#000000" transform="translate(712.37890625,476.40234375)" />
    <path
        d="M0 0 C11.01846564 8.54493253 17.18938169 19.73218984 19.6171875 33.5 C24.75649557 80.48795952 -3.26790821 127.63546424 -31.48388672 162.85205078 C-42.96021868 176.91819158 -56.5782232 193.18093865 -75.7421875 195.44140625 C-92.32224154 195.95849043 -102.89899043 188.07512874 -114.6796875 177.19921875 C-119.78472542 172.36060536 -124.58713898 167.48264551 -129 162 C-128.505 161.01 -128.505 161.01 -128 160 C-127.34515625 160.64066406 -126.6903125 161.28132812 -126.015625 161.94140625 C-116.11885013 171.32097679 -105.29094428 179.65228901 -91.05859375 179.3046875 C-80.24353133 178.22732496 -72.21703053 173.88222229 -64 167 C-62.71802734 165.94425781 -62.71802734 165.94425781 -61.41015625 164.8671875 C-55.15497153 159.48907798 -50.07625255 153.4775581 -45 147 C-44.36707031 146.24460937 -43.73414063 145.48921875 -43.08203125 144.7109375 C-32.47955356 131.98796427 -23.64490189 117.66545906 -16 103 C-15.60071289 102.23945312 -15.20142578 101.47890625 -14.79003906 100.6953125 C-1.12143212 74.31842228 12.67658704 40.38843922 3.8671875 10.39453125 C2.80572065 7.46354396 1.50712743 4.72718297 0 2 C0 1.34 0 0.68 0 0 Z "
        fill="#2BC8FE" transform="translate(278,437)" />
    <path
        d="M0 0 C3.66666667 0 7.33333333 0 11 0 C12.134375 -0.061875 13.26875 -0.12375 14.4375 -0.1875 C18.16544983 0.00870789 19.36764795 0.47294203 22 3 C22.33 2.505 22.66 2.01 23 1.5 C25.53902037 -0.40426528 27.75323767 -0.44721118 30.8671875 -0.59375 C34.49036424 0.41489994 35.8104208 1.95576639 38 5 C38.60416185 8.62571517 38.47238675 12.14986362 38.3125 15.8125 C38.28994141 16.79154297 38.26738281 17.77058594 38.24414062 18.77929688 C38.18539727 21.18777455 38.10332129 23.59309078 38 26 C35.36 26 32.72 26 30 26 C29.67 20.06 29.34 14.12 29 8 C27.68 7.67 26.36 7.34 25 7 C23.48578999 8.51421001 23.78690144 9.92472768 23.68359375 12.03515625 C23.64169922 12.84404297 23.59980469 13.65292969 23.55664062 14.48632812 C23.51732422 15.33646484 23.47800781 16.18660156 23.4375 17.0625 C23.39431641 17.91650391 23.35113281 18.77050781 23.30664062 19.65039062 C23.20023298 21.76672037 23.09958269 23.88333813 23 26 C20.36 26 17.72 26 15 26 C14.67 20.06 14.34 14.12 14 8 C12.68 7.67 11.36 7.34 10 7 C8.48578999 8.51421001 8.78690144 9.92472768 8.68359375 12.03515625 C8.64169922 12.84404297 8.59980469 13.65292969 8.55664062 14.48632812 C8.51732422 15.33646484 8.47800781 16.18660156 8.4375 17.0625 C8.39431641 17.91650391 8.35113281 18.77050781 8.30664062 19.65039062 C8.20023298 21.76672037 8.09958269 23.88333813 8 26 C5.36 26 2.72 26 0 26 C0 17.42 0 8.84 0 0 Z "
        fill="#000000" transform="translate(815,614)" />
    <path
        d="M0 0 C2.31 0 4.62 0 7 0 C7.33 0.66 7.66 1.32 8 2 C8.66 1.34 9.32 0.68 10 0 C18.20588235 -0.52941176 18.20588235 -0.52941176 22 2 C22.99 1.34 23.98 0.68 25 0 C31.88791849 -0.65599224 31.88791849 -0.65599224 35.23828125 1.3203125 C38.09578058 5.66675272 37.41729726 10.17960606 37.25 15.25 C37.23195313 16.28125 37.21390625 17.3125 37.1953125 18.375 C37.14822712 20.91761064 37.0824805 23.45833162 37 26 C34.69 26 32.38 26 30 26 C29.67 20.06 29.34 14.12 29 8 C25.36380344 6.91915479 25.36380344 6.91915479 23 7 C22.67 13.27 22.34 19.54 22 26 C19.69 26 17.38 26 15 26 C14.67 20.06 14.34 14.12 14 8 C10.36380344 6.91915479 10.36380344 6.91915479 8 7 C7.67 13.27 7.34 19.54 7 26 C4.69 26 2.38 26 0 26 C0 17.42 0 8.84 0 0 Z "
        fill="#000000" transform="translate(683,614)" />
    <path
        d="M0 0 C2.64 0 5.28 0 8 0 C8.67364661 2.08108685 9.33866798 4.1649671 10 6.25 C10.37125 7.41015625 10.7425 8.5703125 11.125 9.765625 C12 13 12 13 12 17 C12.66 17 13.32 17 14 17 C14.12117187 16.27554688 14.24234375 15.55109375 14.3671875 14.8046875 C15.24939579 9.71502427 16.16442347 4.85116654 18 0 C20.64 0 23.28 0 26 0 C24.59385096 7.0307452 22.55859347 13.63512217 20.125 20.375 C19.78597656 21.35855469 19.44695313 22.34210937 19.09765625 23.35546875 C18.75863281 24.29777344 18.41960938 25.24007812 18.0703125 26.2109375 C17.76883301 27.05962402 17.46735352 27.90831055 17.15673828 28.78271484 C15.80150013 31.380493 14.49786724 32.50133969 12 34 C9.421875 34.29296875 9.421875 34.29296875 6.75 34.1875 C5.41195312 34.14689453 5.41195312 34.14689453 4.046875 34.10546875 C3.37140625 34.07066406 2.6959375 34.03585937 2 34 C2 32.02 2 30.04 2 28 C3.98 28 5.96 28 8 28 C5.87579345 20.26020485 3.65219147 12.69235274 0.734375 5.20703125 C0 3 0 3 0 0 Z "
        fill="#000000" transform="translate(778,614)" />
    <path
        d="M0 0 C2.64 0 5.28 0 8 0 C8.06058594 1.28777344 8.12117187 2.57554687 8.18359375 3.90234375 C8.26798247 5.58074159 8.3526313 7.25912636 8.4375 8.9375 C8.47681641 9.78763672 8.51613281 10.63777344 8.55664062 11.51367188 C8.61948242 12.72700195 8.61948242 12.72700195 8.68359375 13.96484375 C8.72025146 14.7137085 8.75690918 15.46257324 8.79467773 16.23413086 C8.81771063 18.02461326 8.81771063 18.02461326 10 19 C11.66617115 19.04063832 13.33388095 19.042721 15 19 C16.6498007 15.70039859 16.38258361 12.00872116 16.5625 8.375 C16.60568359 7.57320312 16.64886719 6.77140625 16.69335938 5.9453125 C16.79951457 3.9637489 16.90026855 1.98189729 17 0 C19.64 0 22.28 0 25 0 C25 8.58 25 17.16 25 26 C21.66666667 26 18.33333333 26 15 26 C13.741875 26.226875 12.48375 26.45375 11.1875 26.6875 C8.21191057 27.05472338 7.02693139 27.0099529 4.125 25.9375 C1.00418679 23.09205266 0.14598328 20.0258023 -0.15673828 15.82495117 C-0.19621313 13.42173211 -0.17482262 11.02798334 -0.125 8.625 C-0.11597656 7.79355469 -0.10695313 6.96210937 -0.09765625 6.10546875 C-0.0742622 4.07018663 -0.03839725 2.03505436 0 0 Z "
        fill="#000000" transform="translate(856,614)" />
    <path
        d="M0 0 C1.9375 1.625 1.9375 1.625 2.9375 3.625 C3.02150529 5.21947464 3.04477467 6.81740545 3.03515625 8.4140625 C3.03193359 9.35507812 3.02871094 10.29609375 3.02539062 11.265625 C3.01701172 12.25046875 3.00863281 13.2353125 3 14.25 C2.99548828 15.24257813 2.99097656 16.23515625 2.98632812 17.2578125 C2.97452145 19.7136016 2.958054 22.16927104 2.9375 24.625 C-0.39583333 24.625 -3.72916667 24.625 -7.0625 24.625 C-8.4546875 24.9653125 -8.4546875 24.9653125 -9.875 25.3125 C-13.83722746 25.70095367 -15.70390382 24.65577908 -19.0625 22.625 C-20.0625 21.625 -20.0625 21.625 -20.375 17.8125 C-20.33065725 14.7195931 -20.19573299 13.81744765 -18.375 11.1875 C-13.86525563 8.14037543 -9.37576161 8.5208184 -4.0625 8.625 C-4.7225 7.635 -5.3825 6.645 -6.0625 5.625 C-8.64630177 5.37469023 -8.64630177 5.37469023 -11.0625 5.625 C-11.3925 6.285 -11.7225 6.945 -12.0625 7.625 C-14.3725 7.625 -16.6825 7.625 -19.0625 7.625 C-18.83024367 4.14115511 -18.68258825 2.2250854 -16.125 -0.25 C-10.7036944 -2.24150002 -5.29542758 -2.37753891 0 0 Z M-13.0625 15.625 C-12.4025 16.945 -11.7425 18.265 -11.0625 19.625 C-8.61025306 19.51886164 -8.61025306 19.51886164 -6.0625 18.625 C-4.68783375 16.14863988 -4.68783375 16.14863988 -4.0625 13.625 C-7.68778568 13.42359524 -9.92751708 13.76723235 -13.0625 15.625 Z "
        fill="#000000" transform="translate(966.0625,615.375)" />
    <path
        d="M0 0 C3.50252011 2.04313673 5.77361702 4.09787233 7 8 C7 10.31 7 12.62 7 15 C1.39 15 -4.22 15 -10 15 C-9.01 16.65 -8.02 18.3 -7 20 C-3.70924004 19.62095792 -3.70924004 19.62095792 -1 18 C1.67058851 17.85884839 4.32432238 17.95752893 7 18 C5.73115998 21.91225672 4.71481455 24.0949669 1 26 C-3.52192075 27.11971371 -6.94421914 27.37147845 -11.375 25.8125 C-15.04545684 23.27813694 -16.59640217 21.21079349 -18 17 C-18.36631844 11.41364386 -18.23232115 7.79275206 -15 3 C-10.73151569 -0.88044028 -5.47439273 -0.81935812 0 0 Z M-8 6 C-8.66 7.32 -9.32 8.64 -10 10 C-7.03 10 -4.06 10 -1 10 C-1.66 8.68 -2.32 7.36 -3 6 C-4.65 6 -6.3 6 -8 6 Z "
        fill="#000000" transform="translate(741,614)" />
    <path
        d="M0 0 C3.17852316 1.64448689 5.37801764 3.75603527 7 7 C7.14851844 8.93359586 7.22130833 10.87342097 7.25 12.8125 C7.27578125 13.85019531 7.3015625 14.88789062 7.328125 15.95703125 C6.95387609 19.42774438 6.08847722 21.22669653 4 24 C-0.77226217 26.8633573 -4.41099014 27.4881346 -9.9140625 26.65234375 C-13.20446071 25.62332408 -14.92099569 23.66372427 -17 21 C-19.09948946 16.80102108 -18.54696419 11.56001667 -18 7 C-14.19080289 -0.60418081 -7.704539 -0.99833463 0 0 Z M-10 8 C-10.95703015 11.9017383 -11.37072799 14.14732562 -9.75 17.875 C-8.10021499 20.26175558 -8.10021499 20.26175558 -5 21 C-2.7484395 20.02108177 -2.7484395 20.02108177 -1 18 C0.31968787 13.66388272 0.06431799 11.01395165 -2 7 C-3.05310277 5.72996677 -3.05310277 5.72996677 -5.4375 5.8125 C-8.16734675 5.73160017 -8.16734675 5.73160017 -10 8 Z "
        fill="#000000" transform="translate(655,614)" />
    <path
        d="M0 0 C3.125 1.6875 3.125 1.6875 5 4 C5.8125 6.75 5.8125 6.75 6 9 C3.69 9 1.38 9 -1 9 C-1.33 8.01 -1.66 7.02 -2 6 C-3.98 6.33 -5.96 6.66 -8 7 C-7.67 7.66 -7.34 8.32 -7 9 C-4.49055338 9.83947153 -4.49055338 9.83947153 -1.5625 10.5 C3.78216123 11.78216123 3.78216123 11.78216123 6 14 C6.79088838 21.00501139 6.79088838 21.00501139 4.0625 24.4375 C-0.79592922 26.91629042 -5.473438 27.56145822 -10.8125 26.375 C-13.57670107 24.63750218 -15.18065209 22.69533023 -17 20 C-17 19.34 -17 18.68 -17 18 C-14.36 18 -11.72 18 -9 18 C-9 18.66 -9 19.32 -9 20 C-6.36 20 -3.72 20 -1 20 C-1.86014281 17.70666538 -1.86014281 17.70666538 -4.65234375 17.03515625 C-6.8393454 16.38763733 -9.02684528 15.74179883 -11.21484375 15.09765625 C-14 14 -14 14 -16 11 C-16.59111649 7.11552021 -16.29788155 5.47250177 -14.1875 2.125 C-9.54662428 -0.96891715 -5.42467928 -0.87967772 0 0 Z "
        fill="#000000" transform="translate(900,614)" />
    <path
        d="M0 0 C3.125 1.625 3.125 1.625 5 4 C5.8125 7.25 5.8125 7.25 6 10 C2.625 10.1875 2.625 10.1875 -1 10 C-1.66 9.01 -2.32 8.02 -3 7 C-5.58380177 6.74969023 -5.58380177 6.74969023 -8 7 C-10.01299665 11.02599329 -10.34762437 13.66835023 -9 18 C-7.04836882 19.43637698 -7.04836882 19.43637698 -5 20 C-4.484375 19.34 -3.96875 18.68 -3.4375 18 C-0.20004245 15.34362457 1.92552281 15.68657868 6 16 C5.75017763 19.66406136 5.41463033 21.53511145 2.9375 24.3125 C-0.67656553 26.3886653 -3.87253387 27.1958001 -8 27 C-11.90644639 25.84727812 -14.21909744 25.05156668 -16.66796875 21.75390625 C-18.9757906 16.982603 -18.76909935 12.1739411 -18 7 C-14.09740913 -0.68954941 -7.78123699 -0.79721187 0 0 Z "
        fill="#000000" transform="translate(938,614)" />
    <path
        d="M0 0 C0 1.98 0 3.96 0 6 C-1.65 6 -3.3 6 -5 6 C-5 6.99 -5 7.98 -5 9 C-3.35 9 -1.7 9 0 9 C0 10.98 0 12.96 0 15 C-1.65 15 -3.3 15 -5 15 C-5 21.6 -5 28.2 -5 35 C-7.64 35 -10.28 35 -13 35 C-13 28.4 -13 21.8 -13 15 C-13.99 15 -14.98 15 -16 15 C-16 13.02 -16 11.04 -16 9 C-15.01 9 -14.02 9 -13 9 C-12.9175 7.88625 -12.835 6.7725 -12.75 5.625 C-12 2 -12 2 -10.4375 0.5625 C-6.90004954 -0.25383472 -3.62833901 -0.12094463 0 0 Z "
        fill="#000000" transform="translate(637,605)" />
    <path d="M0 0 C2.64 0 5.28 0 8 0 C8 11.22 8 22.44 8 34 C5.36 34 2.72 34 0 34 C0 22.78 0 11.56 0 0 Z " fill="#000000"
        transform="translate(973,606)" />
    <path d="M0 0 C2.64 0 5.28 0 8 0 C8 11.22 8 22.44 8 34 C5.36 34 2.72 34 0 34 C0 22.78 0 11.56 0 0 Z " fill="#000000"
        transform="translate(768,606)" />
    <path
        d="M0 0 C5.33333333 0 10.66666667 0 16 0 C16 2.31 16 4.62 16 7 C13.69 7 11.38 7 9 7 C8.67 13.27 8.34 19.54 8 26 C5.36 26 2.72 26 0 26 C0 17.42 0 8.84 0 0 Z "
        fill="#000000" transform="translate(665,614)" />
    <path
        d="M0 0 C5 0 10 0 15 0 C15 2.31 15 4.62 15 7 C14.030625 7.12375 13.06125 7.2475 12.0625 7.375 C10.5465625 7.684375 10.5465625 7.684375 9 8 C7.414131 11.171738 7.62133555 14.63513822 7.4375 18.125 C7.39431641 18.87910156 7.35113281 19.63320313 7.30664062 20.41015625 C7.2005168 22.27321888 7.09974999 24.13658524 7 26 C4.69 26 2.38 26 0 26 C0 17.42 0 8.84 0 0 Z "
        fill="#000000" transform="translate(751,614)" />
    <path d="M0 0 C2.64 0 5.28 0 8 0 C8 8.58 8 17.16 8 26 C5.36 26 2.72 26 0 26 C0 17.42 0 8.84 0 0 Z " fill="#000000"
        transform="translate(909,614)" />
    <path
        d="M0 0 C2.5625 0.1875 2.5625 0.1875 4.5625 2.1875 C4.1875 4.8125 4.1875 4.8125 3.5625 7.1875 C1.1875 7.8125 1.1875 7.8125 -1.4375 8.1875 C-3.4375 6.1875 -3.4375 6.1875 -3.625 3.625 C-3.37291261 0.34786389 -3.27713611 0.25208739 0 0 Z "
        fill="#000000" transform="translate(912.4375,603.8125)" />
</svg>