<svg width="25" height="25" viewBox="0 0 25 25" fill="none" xmlns="http://www.w3.org/2000/svg">
<path d="M12.5 1.5C13.0523 1.5 13.5 1.94772 13.5 2.5V3.5H15.5C17.7091 3.5 19.5 5.29086 19.5 7.5V8.5C19.5 9.05228 19.0523 9.5 18.5 9.5C17.9477 9.5 17.5 9.05228 17.5 8.5V7.5C17.5 6.39543 16.6046 5.5 15.5 5.5H9.5C8.39543 5.5 7.5 6.39543 7.5 7.5V7.61696C7.5 8.90825 8.32629 10.0547 9.55132 10.463L16.0811 12.6396C18.1228 13.3202 19.5 15.2309 19.5 17.383V17.5C19.5 19.7091 17.7091 21.5 15.5 21.5H13.5V22.5C13.5 23.0523 13.0523 23.5 12.5 23.5C11.9477 23.5 11.5 23.0523 11.5 22.5V21.5H9.5C7.29086 21.5 5.5 19.7091 5.5 17.5V16.5C5.5 15.9477 5.94772 15.5 6.5 15.5C7.05228 15.5 7.5 15.9477 7.5 16.5V17.5C7.5 18.6046 8.39543 19.5 9.5 19.5H15.5C16.6046 19.5 17.5 18.6046 17.5 17.5V17.383C17.5 16.0917 16.6737 14.9453 15.4487 14.537L8.91886 12.3604C6.87715 11.6798 5.5 9.76912 5.5 7.61696V7.5C5.5 5.29086 7.29086 3.5 9.5 3.5H11.5V2.5C11.5 1.94772 11.9477 1.5 12.5 1.5Z" fill="#1A1D1F"/>
</svg>
