<svg width="32" height="32" viewBox="0 0 32 32" fill="none" xmlns="http://www.w3.org/2000/svg">
<g clip-path="url(#clip0_586_11360)">
<path d="M8.99182 9.35178C8.88682 9.35178 8.8015 9.38459 8.74244 9.45678C8.68338 9.52896 8.65057 9.63396 8.65057 9.77834V11.9899L7.20025 9.79803C7.16088 9.7324 7.1215 9.67334 7.08213 9.61428C7.04275 9.55521 7.00994 9.50928 6.97057 9.4699C6.93119 9.43053 6.89182 9.40428 6.84588 9.37803C6.79994 9.35834 6.74088 9.34521 6.66869 9.34521C6.58338 9.34521 6.50463 9.37147 6.42588 9.4174C6.35369 9.46334 6.30119 9.52897 6.26838 9.60115C6.24213 9.67334 6.229 9.76521 6.229 9.8899V12.7643C6.229 12.9021 6.26182 13.0137 6.32744 13.0858C6.39307 13.158 6.47838 13.1974 6.58338 13.1974C6.68838 13.1974 6.77369 13.158 6.83932 13.0858C6.90494 13.0137 6.93775 12.9087 6.93775 12.7643V10.5855L8.35525 12.7512C8.39463 12.8102 8.434 12.8693 8.47994 12.9283C8.51932 12.9874 8.56525 13.0333 8.61119 13.0793C8.65713 13.1187 8.70963 13.1515 8.76213 13.1712C8.81463 13.1908 8.88025 13.1974 8.94588 13.1974C9.21494 13.1974 9.35275 13.0333 9.35275 12.7052V9.77834C9.35275 9.63396 9.31994 9.52896 9.26088 9.45678C9.18869 9.39115 9.10338 9.35178 8.99182 9.35178Z" fill="black" stroke="black" stroke-width="0.3"/>
<path d="M10.3502 9.46314C10.2846 9.49596 10.2321 9.54189 10.1993 9.61408C10.1664 9.67971 10.1533 9.77158 10.1533 9.87658V12.7378C10.1533 12.8888 10.1861 13.0069 10.2583 13.0856C10.3305 13.1644 10.4224 13.1972 10.5339 13.1972C10.6455 13.1972 10.7308 13.1578 10.803 13.0856C10.8752 13.0135 10.908 12.8953 10.908 12.7378V11.5106H12.1483C12.2599 11.5106 12.3452 11.4844 12.4043 11.4319C12.4633 11.3794 12.4896 11.3138 12.4896 11.2285C12.4896 11.1431 12.4633 11.071 12.4043 11.0185C12.3452 10.966 12.2599 10.9397 12.1483 10.9397H10.908V9.98814H12.3911C12.5093 9.98814 12.6011 9.96189 12.6602 9.90939C12.7193 9.85689 12.7455 9.78471 12.7455 9.69939C12.7455 9.61408 12.7193 9.54189 12.6602 9.48939C12.6011 9.43689 12.5093 9.41064 12.3911 9.41064H10.6127C10.5077 9.41721 10.4224 9.43689 10.3502 9.46314Z" fill="black" stroke="black" stroke-width="0.3"/>
<path d="M13.3298 10.0407H14.1502V12.7445C14.1502 12.8954 14.183 13.0135 14.2552 13.0923C14.3273 13.171 14.4192 13.2038 14.5308 13.2038C14.6423 13.2038 14.7277 13.1645 14.7998 13.0923C14.872 13.0201 14.9048 12.902 14.9048 12.7445V10.0407H15.7252C15.8564 10.0407 15.9483 10.0145 16.0139 9.95539C16.0795 9.89633 16.1123 9.82414 16.1123 9.73227C16.1123 9.64039 16.0795 9.56164 16.0139 9.50914C15.9483 9.45008 15.8564 9.42383 15.7252 9.42383H13.3298C13.2052 9.42383 13.1133 9.45008 13.0477 9.50914C12.982 9.5682 12.9492 9.64039 12.9492 9.73883C12.9492 9.8307 12.982 9.90945 13.0411 9.96195C13.1067 10.0145 13.1986 10.0407 13.3298 10.0407Z" fill="black" stroke="black" stroke-width="0.3"/>
<path d="M11.4134 0.394062C11.2625 0.30875 11.0788 0.30875 10.9278 0.394062L1.73375 5.62437C1.57625 5.70969 1.48438 5.87375 1.48438 6.05094V16.5116C1.48438 16.6887 1.58281 16.8528 1.73375 16.9381L10.9278 22.1684C11 22.2144 11.0853 22.2341 11.1706 22.2341C11.2559 22.2341 11.3412 22.2144 11.4134 22.1684L20.6075 16.9381C20.7584 16.8528 20.8569 16.6887 20.8569 16.5116V6.05094C20.8569 5.87375 20.7584 5.70969 20.6075 5.62437L11.4134 0.394062ZM19.8725 16.2228L11.1706 21.1709L2.46875 16.2228V6.33969L11.1706 1.39156L19.8725 6.33969V16.2228Z" fill="black" stroke="black" stroke-width="0.5"/>
<path d="M31.6717 20.0617C31.6717 19.9304 31.6192 19.8058 31.5274 19.7139C31.4355 19.622 31.2911 19.5433 31.1796 19.5695L27.6424 19.5826C27.3733 19.5826 27.1502 19.8058 27.1502 20.0748V20.2979L24.8927 19.0379C24.8599 19.0183 24.827 19.0051 24.7942 18.9986C22.7074 18.3686 20.4105 18.5786 18.4483 19.5892L13.6511 22.5817C12.6667 23.087 12.0892 24.1042 12.017 24.9573L5.02799 21.8073C3.05267 20.9936 2.0158 21.2167 1.49736 21.5514C1.08392 21.8139 0.847675 22.2339 0.827987 22.7261C0.8083 23.3036 1.13642 23.8811 1.68767 24.2289L10.9736 30.017C11.8727 30.5814 12.8767 30.9423 13.9399 31.0933C14.3074 31.1458 14.6749 31.172 15.0489 31.172C15.7577 31.172 16.4664 31.0801 17.1358 30.8898L22.2546 29.4723C23.9739 28.9933 25.457 28.9473 27.1436 29.3148V29.9908C27.1436 30.122 27.1961 30.2467 27.288 30.3386C27.3799 30.4304 27.5045 30.4829 27.6358 30.4829L31.173 30.4698C31.4421 30.4698 31.6652 30.2467 31.6652 29.9776V20.0617H31.6717ZM21.9986 28.5208L16.8799 29.9383C15.9808 30.1876 15.0161 30.2467 14.0842 30.1154C13.1524 29.9776 12.2795 29.6626 11.4986 29.177L2.21267 23.3889C1.95674 23.2314 1.8058 22.9886 1.81236 22.7654C1.81892 22.5948 1.89111 22.4701 2.02892 22.3848C2.19299 22.2798 2.87549 21.9911 4.63424 22.7195L12.7586 26.3814V26.3748C12.8899 26.4273 13.0408 26.4601 13.2114 26.4601C13.3821 26.4601 13.5658 26.4339 13.7692 26.3683C13.7824 26.3617 13.8414 26.3486 13.8545 26.342L16.952 25.1017C18.6255 24.4323 20.5024 24.3404 22.2349 24.8523L22.5105 23.9073C20.5614 23.3364 18.4614 23.4414 16.5845 24.1895L13.4871 25.4233C13.2902 25.4823 13.172 25.4823 13.1064 25.4561C13.0408 25.4298 13.0277 25.3904 13.0145 25.3642C12.857 24.9836 13.2049 23.9139 14.1236 23.4348L18.9208 20.4423C20.6008 19.5761 22.6155 19.3858 24.4464 19.9239L27.1371 21.4267V28.3042C25.3849 27.9498 23.8099 28.0154 21.9986 28.5208ZM30.6874 29.4789L28.1346 29.4854V20.5604H30.6874V29.4789Z" fill="black" stroke="black" stroke-width="0.5"/>
</g>
<defs>
<clipPath id="clip0_586_11360">
<rect width="31.5" height="31.5" fill="white" transform="translate(0.5)"/>
</clipPath>
</defs>
</svg>
