<svg width="22" height="23" viewBox="0 0 22 23" fill="none" xmlns="http://www.w3.org/2000/svg">
<path d="M11 0.5C8.82441 0.5 6.69767 1.14514 4.88873 2.35383C3.07979 3.56253 1.66989 5.28049 0.83733 7.29048C0.00476613 9.30047 -0.213071 11.5122 0.211367 13.646C0.635804 15.7798 1.68345 17.7398 3.22183 19.2782C4.76021 20.8165 6.72022 21.8642 8.85401 22.2886C10.9878 22.7131 13.1995 22.4952 15.2095 21.6627C17.2195 20.8301 18.9375 19.4202 20.1462 17.6113C21.3549 15.8023 22 13.6756 22 11.5C21.9964 8.58373 20.8363 5.78796 18.7742 3.72584C16.712 1.66373 13.9163 0.503639 11 0.5ZM15.2308 12.3462H11.8462V15.7308C11.8462 15.9552 11.757 16.1704 11.5983 16.3291C11.4396 16.4878 11.2244 16.5769 11 16.5769C10.7756 16.5769 10.5604 16.4878 10.4017 16.3291C10.243 16.1704 10.1538 15.9552 10.1538 15.7308V12.3462H6.76923C6.54482 12.3462 6.3296 12.257 6.17091 12.0983C6.01223 11.9396 5.92308 11.7244 5.92308 11.5C5.92308 11.2756 6.01223 11.0604 6.17091 10.9017C6.3296 10.743 6.54482 10.6538 6.76923 10.6538H10.1538V7.26923C10.1538 7.04482 10.243 6.82959 10.4017 6.67091C10.5604 6.51222 10.7756 6.42308 11 6.42308C11.2244 6.42308 11.4396 6.51222 11.5983 6.67091C11.757 6.82959 11.8462 7.04482 11.8462 7.26923V10.6538H15.2308C15.4552 10.6538 15.6704 10.743 15.8291 10.9017C15.9878 11.0604 16.0769 11.2756 16.0769 11.5C16.0769 11.7244 15.9878 11.9396 15.8291 12.0983C15.6704 12.257 15.4552 12.3462 15.2308 12.3462Z" fill="url(#paint0_linear_1896_44408)"/>
<defs>
<linearGradient id="paint0_linear_1896_44408" x1="11" y1="0.5" x2="11" y2="22.5" gradientUnits="userSpaceOnUse">
<stop stop-color="#1DB954"/>
<stop offset="1" stop-color="#0D5326"/>
</linearGradient>
</defs>
</svg>
