<svg width="45" height="45" viewBox="0 0 45 45" fill="none" xmlns="http://www.w3.org/2000/svg">
<circle cx="22.5" cy="22.5" r="22.5" fill="url(#paint0_linear_3986_16342)"/>
<path d="M13.9648 20.6898C14.2021 20.3637 14.4592 20.0542 14.736 19.7578C15.0129 19.4614 15.3062 19.1814 15.616 18.9147C16.2356 18.3845 16.9145 17.9135 17.6428 17.5249C18.3745 17.133 19.1555 16.8234 19.9729 16.6127C20.3815 16.5073 20.7968 16.4282 21.2153 16.3723C21.6339 16.3163 22.059 16.2932 22.4809 16.2932H22.639C22.6918 16.2932 22.7445 16.2932 22.7972 16.2965L23.1136 16.3097C23.3245 16.3261 23.5355 16.3426 23.7464 16.3723C24.1649 16.4282 24.5802 16.504 24.9889 16.6094C25.8029 16.8201 26.5873 17.1297 27.3189 17.5216C28.0505 17.9135 28.7294 18.3812 29.349 18.9114C29.6588 19.1781 29.9521 19.4581 30.2257 19.7545C30.5025 20.0476 30.7629 20.3571 30.9969 20.6865C30.6442 20.4889 30.3015 20.2847 29.9587 20.0937C29.6127 19.9027 29.2699 19.7182 28.9239 19.5437C28.5778 19.3692 28.2285 19.2045 27.8792 19.053C27.5298 18.9015 27.1772 18.7599 26.8213 18.6315C26.1127 18.3779 25.3942 18.1803 24.6692 18.042C24.5769 18.0255 24.4879 18.0123 24.3956 17.9926C24.3034 17.9794 24.2144 17.9662 24.1221 17.953L24.0529 17.9432L23.9837 17.9366L23.8486 17.9201L23.7134 17.9036L23.575 17.8905C23.2092 17.8542 22.8434 17.8378 22.4809 17.8378C21.0176 17.8345 19.5576 18.121 18.1405 18.6282C17.4319 18.8817 16.7299 19.1913 16.0378 19.5371C15.6918 19.7117 15.3457 19.8961 15.003 20.0871C14.8316 20.1826 14.6602 20.2814 14.4856 20.3802C14.3142 20.4889 14.1428 20.591 13.9648 20.6898Z" fill="white"/>
<path d="M12.0078 19.1681C12.2637 18.7033 12.5491 18.2583 12.8607 17.8265C13.1723 17.3946 13.5036 16.9793 13.8612 16.5804C14.573 15.7826 15.3767 15.0541 16.269 14.4278C16.7151 14.1146 17.1842 13.8311 17.6697 13.5773C18.1585 13.3235 18.6669 13.1026 19.1918 12.9279C19.7166 12.7499 20.2612 12.6114 20.809 12.5158C20.9467 12.496 21.0845 12.4763 21.2256 12.4565C21.2945 12.4466 21.3634 12.44 21.4355 12.4334L21.6455 12.4136C21.7143 12.407 21.7832 12.4004 21.8554 12.3972L22.0653 12.3873C22.2064 12.384 22.3442 12.3741 22.4852 12.3774C23.0462 12.3708 23.6071 12.4268 24.1582 12.5191L24.3649 12.5554L24.4666 12.5752L24.5682 12.5982C24.706 12.6279 24.8405 12.6576 24.975 12.6905L25.3785 12.8026C25.4474 12.8191 25.513 12.8422 25.5786 12.8653L25.7754 12.9312L25.8738 12.9641C25.9066 12.974 25.9394 12.9872 25.9722 13.0004L26.1658 13.0729L26.3593 13.1488C26.4249 13.1751 26.4872 13.2015 26.5496 13.2312L26.7398 13.3136L26.835 13.3564L26.9268 13.4026C27.0515 13.4619 27.1761 13.5213 27.2975 13.5839C27.7863 13.8377 28.2521 14.1245 28.6982 14.4344C29.1443 14.7476 29.5675 15.0838 29.9677 15.4464C30.3679 15.8057 30.7484 16.1881 31.1027 16.587C31.4602 16.9859 31.7916 17.4012 32.1032 17.8331C32.4115 18.2649 32.7002 18.7099 32.9561 19.1747C32.5657 18.8187 32.1786 18.466 31.7883 18.1265C31.3946 17.7869 30.9944 17.4606 30.591 17.1474C29.7807 16.5211 28.9344 15.9541 28.0585 15.4761C27.947 15.4167 27.8387 15.3541 27.7272 15.3014L27.5599 15.2091C27.5042 15.1794 27.4484 15.153 27.3926 15.1266C27.2811 15.0739 27.1696 15.0212 27.058 14.9684C26.9432 14.919 26.8317 14.8695 26.7202 14.8201C26.6053 14.7739 26.4905 14.7278 26.379 14.6816L26.2937 14.6487L26.2084 14.619L26.0346 14.5564C25.9755 14.5366 25.9198 14.5135 25.8607 14.497L25.6868 14.441L25.513 14.3849C25.4835 14.375 25.4539 14.3685 25.4244 14.3586L25.3358 14.3355L25.1587 14.286L25.0701 14.263C25.0406 14.2531 25.0111 14.2498 24.9816 14.2399L24.6273 14.1575L24.273 14.0883L24.1844 14.0718L24.0959 14.0586L23.9187 14.0322L23.7416 14.0058L23.5612 13.9861L23.3808 13.9663C23.3512 13.963 23.3217 13.9597 23.2922 13.9564L23.2036 13.9531L22.8428 13.93L22.4819 13.9267C22.3606 13.9201 22.2425 13.93 22.1211 13.9333L21.9407 13.9399C21.8816 13.9432 21.8193 13.9498 21.7603 13.9531L21.5799 13.9663C21.5208 13.9696 21.4585 13.9729 21.3994 13.9828C21.2813 13.9992 21.16 14.0124 21.0419 14.0256C20.5662 14.0948 20.0906 14.197 19.6248 14.3289L19.4509 14.3783C19.3919 14.3948 19.3328 14.4113 19.2771 14.4311L18.9293 14.5465C18.8145 14.5893 18.6997 14.6322 18.5849 14.675C18.5554 14.6849 18.5259 14.6981 18.4996 14.708L18.4143 14.7443L18.2437 14.8135C17.7911 15.0047 17.3449 15.2222 16.9054 15.4596C16.0295 15.9376 15.1865 16.5046 14.3729 17.1342C13.9662 17.4474 13.5693 17.777 13.1756 18.1166C12.782 18.4594 12.3982 18.8121 12.0078 19.1681Z" fill="white"/>
<path d="M8.97852 17.5091C9.30109 16.8881 9.66316 16.2869 10.0549 15.7023C10.4466 15.1176 10.8679 14.5528 11.3188 14.0078C11.7698 13.4628 12.2503 12.9409 12.7605 12.4454C13.2707 11.9499 13.8106 11.4809 14.38 11.0415C14.9494 10.6055 15.5518 10.2059 16.1805 9.84581C16.4965 9.66744 16.8191 9.49898 17.1482 9.34703C17.4774 9.19179 17.8131 9.04975 18.1554 8.92093C18.8401 8.66659 19.5511 8.46509 20.2752 8.32967C20.4562 8.29333 20.6373 8.26691 20.8216 8.24048C21.0059 8.21736 21.187 8.19424 21.3713 8.17772C21.7433 8.14799 22.1119 8.12817 22.4806 8.12817C22.5266 8.12817 22.5727 8.12817 22.6188 8.12817L22.7571 8.13148C22.8492 8.13478 22.9414 8.13478 23.0336 8.14139L23.31 8.1579L23.5865 8.18102C23.9552 8.21736 24.3206 8.26691 24.6826 8.33297C25.4068 8.4717 26.1178 8.66659 26.8024 8.92423C27.4871 9.17857 28.1487 9.49237 28.7806 9.84911C29.0966 10.0275 29.4028 10.2158 29.7056 10.4173C30.0051 10.6187 30.2981 10.8268 30.5844 11.0449C31.7266 11.9169 32.7437 12.9243 33.6456 14.0111C34.0965 14.5561 34.5179 15.1209 34.9096 15.7056C35.3013 16.2902 35.6633 16.8914 35.9859 17.5124C35.5218 16.9905 35.0544 16.4752 34.5738 15.9764C34.0932 15.481 33.5995 14.9987 33.0959 14.5363C32.589 14.0738 32.0689 13.6312 31.5357 13.215C31.0025 12.7988 30.4495 12.4057 29.8866 12.0457C29.3205 11.6857 28.7411 11.3553 28.1454 11.0647C27.8491 10.9193 27.5463 10.7839 27.2435 10.6584C26.9374 10.5329 26.6312 10.4206 26.3185 10.3182C26.1638 10.2653 26.0058 10.2191 25.8511 10.1728L25.6141 10.1068C25.5351 10.0836 25.4562 10.0671 25.3772 10.0473C25.0612 9.96803 24.7419 9.90196 24.4226 9.84911C24.1033 9.79626 23.7807 9.75662 23.4582 9.7302C23.1356 9.70047 22.8097 9.69056 22.4871 9.69056C21.1903 9.69056 19.8967 9.90857 18.6558 10.3182C18.0336 10.5263 17.4247 10.774 16.8289 11.068C16.2332 11.3586 15.6538 11.689 15.0877 12.049C13.9587 12.7724 12.8889 13.618 11.8784 14.5396C11.6249 14.7708 11.3748 15.0053 11.1279 15.2465C10.881 15.4843 10.6408 15.732 10.3972 15.9797C9.91003 16.4719 9.44263 16.9839 8.97852 17.5091Z" fill="white"/>
<path d="M16.6621 22.2228C16.7837 22.0752 16.9019 21.9571 17.0235 21.8358C17.145 21.7177 17.2633 21.6095 17.3849 21.5079C17.6247 21.3045 17.8678 21.1242 18.1076 20.9668C18.5905 20.6487 19.0702 20.3994 19.5531 20.206C20.5157 19.8223 21.4816 19.6583 22.4441 19.655C23.4067 19.655 24.3726 19.819 25.3351 20.1994C25.4567 20.2486 25.575 20.2978 25.6965 20.3535C25.8181 20.4093 25.9363 20.4683 26.0579 20.5306C26.1794 20.5929 26.2977 20.6618 26.4193 20.7339C26.5408 20.8061 26.6591 20.8815 26.7806 20.9602C27.0205 21.1209 27.2636 21.3013 27.5034 21.5046C27.625 21.6062 27.7432 21.7145 27.8648 21.8325C27.9863 21.9539 28.1046 22.0719 28.2261 22.2228C28.1046 22.3703 27.9863 22.4917 27.8648 22.613C27.7432 22.7311 27.625 22.8393 27.5034 22.9409C27.2636 23.1443 27.0205 23.3246 26.7806 23.4853C26.6591 23.564 26.5408 23.6427 26.4193 23.7116C26.2977 23.7837 26.1794 23.8493 26.0579 23.9149C25.9363 23.9772 25.8181 24.0362 25.6965 24.092C25.575 24.1477 25.4567 24.1969 25.3351 24.2461C24.3726 24.6265 23.4067 24.7905 22.4441 24.7905C21.4816 24.7872 20.5157 24.62 19.5531 24.2396C19.0702 24.0494 18.5905 23.8001 18.1076 23.4788C17.8678 23.3181 17.6247 23.1377 17.3849 22.9377C17.2633 22.836 17.145 22.7278 17.0235 22.6097C16.9019 22.4884 16.7837 22.3703 16.6621 22.2228Z" fill="white"/>
<path d="M15.107 21.2805C15.107 21.6658 15.1103 22.0478 15.1202 22.4297C15.1235 22.5252 15.1268 22.6207 15.1301 22.7162C15.1334 22.8117 15.1367 22.9072 15.1433 23.0027L15.1598 23.2892L15.1795 23.5757C15.2356 24.3363 15.3278 25.0904 15.4531 25.8412C15.5816 26.5887 15.7431 27.3296 15.9474 28.054C16.0496 28.4162 16.1616 28.7785 16.2803 29.1341C16.4022 29.4897 16.5373 29.8421 16.679 30.1878C16.8208 30.5336 16.9756 30.876 17.1404 31.2119C17.3052 31.5478 17.4799 31.8771 17.671 32.1965C17.8589 32.5159 18.0632 32.8287 18.2741 33.1317C18.4883 33.4346 18.7157 33.7244 18.9563 34.001C19.0156 34.0702 19.0782 34.1393 19.1409 34.2052C19.1705 34.2381 19.2035 34.271 19.2331 34.304L19.3287 34.4027L19.3748 34.4521L19.4243 34.4982L19.5231 34.5937L19.622 34.6859C19.655 34.7156 19.6879 34.7485 19.7242 34.7781L19.8263 34.867C19.8593 34.8967 19.8955 34.923 19.9318 34.9527C20.001 35.0119 20.0735 35.0646 20.1427 35.1206C20.179 35.1469 20.2152 35.1733 20.2515 35.1996L20.3042 35.2391L20.3602 35.2754L20.4723 35.3511L20.5843 35.4203C20.7359 35.5092 20.8875 35.5981 21.0457 35.6705C21.2039 35.743 21.3621 35.8088 21.5236 35.8582C21.6851 35.9076 21.8465 35.9471 22.0113 35.9702C22.1728 35.9932 22.3343 36.0031 22.4991 35.9932C22.6638 35.9866 22.8286 35.9636 22.9934 35.9307C23.1582 35.8944 23.323 35.845 23.4844 35.7891L23.6064 35.743L23.725 35.6936C23.7646 35.6771 23.8041 35.6573 23.8437 35.6409C23.8832 35.6211 23.9228 35.6047 23.9623 35.5849C24.1205 35.5059 24.2721 35.417 24.4237 35.3248C24.7269 35.1338 25.0136 34.9164 25.2904 34.6793C25.564 34.4423 25.8243 34.1821 26.0715 33.9121C26.5691 33.3688 27.0074 32.7695 27.4029 32.1372C27.6007 31.8211 27.7852 31.4984 27.9599 31.1658C28.1345 30.8365 28.296 30.4974 28.4476 30.1549C28.5992 29.8124 28.7409 29.4634 28.8728 29.111C29.0046 28.7587 29.1232 28.3998 29.2353 28.0409C29.2616 27.9519 29.2913 27.8597 29.3177 27.7708L29.3968 27.4975C29.4462 27.3164 29.4956 27.132 29.5385 26.9476C29.5846 26.7632 29.6274 26.5788 29.6703 26.3944L29.7296 26.1178C29.7494 26.0256 29.7659 25.9334 29.7856 25.8379L29.812 25.6996L29.8384 25.558C29.8548 25.4658 29.8713 25.3703 29.8878 25.2781L29.9339 24.9982C29.9504 24.906 29.9603 24.8105 29.9768 24.715L29.9965 24.5734L30.0163 24.4318L30.0526 24.1486C30.0723 23.9609 30.0954 23.77 30.1152 23.579C30.191 22.8216 30.2272 22.0543 30.2437 21.2871C30.3294 22.0511 30.3722 22.8183 30.369 23.5888C30.369 23.7831 30.3657 23.9741 30.3591 24.1684L30.3459 24.4582L30.3393 24.6031L30.3294 24.7479C30.3063 25.1332 30.2701 25.5185 30.2272 25.9038C30.1811 26.289 30.1251 26.671 30.0559 27.053C29.9867 27.435 29.9076 27.8169 29.8153 28.1923C29.6307 28.9497 29.4 29.6939 29.1133 30.4216C28.9716 30.7871 28.8167 31.1461 28.6487 31.5017C28.4806 31.8573 28.296 32.2031 28.0983 32.5455C27.7028 33.2272 27.248 33.8792 26.724 34.4818C26.4637 34.7814 26.1802 35.0679 25.8803 35.3379C25.5805 35.6047 25.2575 35.8549 24.9147 36.0788C24.8258 36.1315 24.7401 36.1875 24.6511 36.2369C24.605 36.2632 24.5621 36.2896 24.516 36.3126L24.3776 36.3851C24.3314 36.4081 24.2853 36.4312 24.2358 36.4542C24.1897 36.4773 24.1436 36.5003 24.0941 36.5201L23.9491 36.5826L23.8008 36.6386C23.6031 36.7111 23.3988 36.7736 23.1878 36.8197C22.9769 36.8658 22.7627 36.8955 22.5452 36.9054C22.3277 36.9152 22.1036 36.9021 21.8861 36.8724C21.6686 36.8395 21.4577 36.7901 21.2533 36.7242C20.8447 36.5925 20.4657 36.4048 20.1163 36.1842L19.9845 36.0986L19.856 36.0097L19.7934 35.9669L19.7308 35.9208C19.6912 35.8911 19.6484 35.8615 19.6088 35.8286C19.5297 35.766 19.4473 35.7034 19.3715 35.6376C19.332 35.6047 19.2924 35.5717 19.2562 35.5388L19.1441 35.4367C18.8442 35.1634 18.5674 34.8703 18.3104 34.5641C17.7962 33.9516 17.3579 33.2864 16.9822 32.5949C16.7944 32.2492 16.6197 31.8968 16.4582 31.5379C16.3 31.179 16.1517 30.8168 16.0199 30.448C15.753 29.7136 15.5388 28.9596 15.374 28.2022C15.3311 28.0112 15.2949 27.8202 15.2586 27.6292L15.2059 27.3428L15.1598 27.0563C15.1004 26.671 15.051 26.289 15.0148 25.9038C14.9785 25.5185 14.9521 25.1332 14.939 24.7447C14.9258 24.3594 14.9225 23.9741 14.9291 23.5856C14.9357 23.2003 14.9554 22.815 14.9851 22.433C15.0148 22.0412 15.0576 21.6592 15.107 21.2805Z" fill="white"/>
<path d="M18.6582 26.3049L19.1235 26.6328C19.2775 26.7399 19.4315 26.8405 19.5855 26.9411C19.8935 27.1359 20.2081 27.3112 20.5259 27.4605C21.1616 27.7558 21.8202 27.9279 22.4821 27.9246H22.6066L22.7311 27.9181C22.7737 27.9181 22.813 27.9116 22.8556 27.9084L22.9179 27.9019L22.9802 27.8922C23.144 27.8727 23.3078 27.8435 23.4717 27.8013C23.7993 27.7201 24.1204 27.6033 24.4383 27.4572C24.7561 27.3112 25.0707 27.1359 25.3787 26.9379C25.5327 26.8405 25.6867 26.7366 25.8407 26.6328L26.306 26.3049C26.2241 26.4802 26.129 26.6458 26.0209 26.8048C25.9128 26.9638 25.7981 27.1196 25.6703 27.269C25.418 27.5643 25.1264 27.8337 24.7987 28.0642C24.471 28.2947 24.1073 28.4862 23.7141 28.616C23.665 28.6322 23.6158 28.6485 23.5667 28.6614L23.4159 28.7036C23.3144 28.7264 23.2128 28.7491 23.1079 28.7653C22.9015 28.7978 22.6918 28.8172 22.4821 28.8172C22.2724 28.8172 22.0627 28.801 21.8562 28.7653C21.6498 28.7296 21.4467 28.6809 21.2501 28.6128C20.8569 28.4829 20.4931 28.2914 20.1655 28.061C19.8378 27.8305 19.5462 27.5611 19.2939 27.2657C19.1661 27.1164 19.0514 26.9638 18.9433 26.8016C18.8384 26.6458 18.7401 26.4802 18.6582 26.3049Z" fill="white"/>
<path d="M16.6621 25.4558C16.761 25.8571 16.8698 26.2486 16.9983 26.6368C17.1268 27.0217 17.2686 27.4 17.4334 27.7651C17.763 28.4954 18.1651 29.1862 18.6561 29.7948C18.7781 29.9461 18.9066 30.0941 19.0385 30.2356C19.0714 30.2718 19.1044 30.3047 19.1406 30.3408L19.2428 30.4428C19.2758 30.479 19.312 30.5086 19.3483 30.5415L19.4538 30.6402C19.7405 30.8968 20.0503 31.1205 20.3733 31.3113C20.6996 31.4988 21.0424 31.6501 21.3951 31.7521C21.573 31.7981 21.751 31.8442 21.9323 31.8639L22.0674 31.8837L22.2026 31.8935C22.2949 31.9034 22.3838 31.9001 22.4761 31.9034C22.842 31.9067 23.2045 31.8508 23.5605 31.7488C23.9132 31.6468 24.2559 31.4955 24.5822 31.308C24.9085 31.1205 25.215 30.8935 25.5018 30.6369L25.7127 30.4395L25.9171 30.2323L26.1148 30.0185L26.3027 29.7948C26.7938 29.1862 27.1959 28.4954 27.5255 27.7651C27.6903 27.4 27.8386 27.0217 27.9639 26.6368C28.0924 26.2519 28.2012 25.8571 28.3 25.4591C28.3 25.8703 28.2671 26.2848 28.2078 26.696C28.1913 26.798 28.1781 26.9032 28.1583 27.0052L28.099 27.3111C28.0528 27.5151 28.0034 27.719 27.9441 27.9197C27.7068 28.7257 27.3574 29.5053 26.8762 30.2158L26.6883 30.479L26.4906 30.7356C26.4214 30.8178 26.3489 30.9001 26.2796 30.9823L26.0555 31.2192C25.749 31.5284 25.4062 31.808 25.0305 32.0448C24.6547 32.2817 24.2493 32.4758 23.8176 32.6074L23.7385 32.6337C23.7121 32.6403 23.6824 32.6468 23.6561 32.6534L23.4913 32.6962C23.4352 32.7126 23.3792 32.7192 23.3265 32.7291L23.1584 32.7587C23.1024 32.7653 23.0463 32.7718 22.9903 32.7784L22.9046 32.7883C22.8749 32.7916 22.8486 32.7949 22.8189 32.7949L22.6475 32.8047L22.5618 32.808C22.5322 32.808 22.5058 32.808 22.4761 32.808C22.3641 32.8047 22.2487 32.808 22.1367 32.7949L21.9653 32.7817C21.9092 32.7751 21.8532 32.7653 21.7972 32.7587C21.573 32.7258 21.3522 32.6732 21.1347 32.6107C20.7029 32.4758 20.2942 32.2817 19.9218 32.0448C19.7339 31.9264 19.5559 31.7948 19.3845 31.66C19.2989 31.5909 19.2165 31.5185 19.1341 31.4461C19.055 31.3705 18.9759 31.2948 18.8967 31.2192L18.7847 31.1007C18.7484 31.0613 18.7089 31.0218 18.6726 30.9823L18.5672 30.8606C18.5309 30.8211 18.4946 30.7784 18.4617 30.7356C18.3266 30.5678 18.198 30.3935 18.0761 30.2158C17.5982 29.5053 17.2455 28.7224 17.0115 27.9164C16.8961 27.5118 16.8071 27.1039 16.7478 26.6927C16.6951 26.2815 16.6621 25.8703 16.6621 25.4558Z" fill="white"/>
<defs>
<linearGradient id="paint0_linear_3986_16342" x1="0" y1="0" x2="33.7462" y2="4.33005" gradientUnits="userSpaceOnUse">
<stop stop-color="#2553A5"/>
<stop offset="1" stop-color="#6C3BF6"/>
</linearGradient>
</defs>
</svg>
