<svg width="32" height="32" viewBox="0 0 32 32" fill="none" xmlns="http://www.w3.org/2000/svg">
<path d="M21.8931 8.56002V10.1067L12.1864 19.8134C10.9064 18.6534 10.1064 16.9467 10.1064 15.12V8.56002C10.1064 5.81335 11.9731 3.53335 14.5064 2.88002C14.7598 2.81335 14.9998 3.02669 14.9998 3.28002V5.33335C14.9998 5.88002 15.4531 6.33335 15.9998 6.33335C16.5464 6.33335 16.9998 5.88002 16.9998 5.33335V3.28002C16.9998 3.02669 17.2398 2.81335 17.4931 2.88002C20.0264 3.53335 21.8931 5.81335 21.8931 8.56002Z" fill="white"/>
<path d="M26.4137 13.0802V15.2002C26.4137 20.6268 22.2403 25.0935 16.9337 25.5602V28.4002C16.9337 28.9202 16.5203 29.3335 16.0003 29.3335C15.4803 29.3335 15.067 28.9202 15.067 28.4002V25.5602C13.6137 25.4268 12.2403 25.0002 11.0137 24.3202L12.387 22.9468C13.4803 23.4535 14.707 23.7468 16.0003 23.7468C20.7203 23.7468 24.5603 19.9068 24.5603 15.2002V13.0802C24.5603 12.5735 24.9737 12.1602 25.4937 12.1602C26.0003 12.1602 26.4137 12.5735 26.4137 13.0802Z" fill="white"/>
<path d="M21.8936 13.4399V15.3733C21.8936 18.8133 18.9336 21.5733 15.4136 21.2399C15.0403 21.1999 14.667 21.1333 14.3203 21.0133L21.8936 13.4399Z" fill="white"/>
<path d="M29.0268 2.97334C28.6268 2.57334 27.9735 2.57334 27.5735 2.97334L9.64016 20.9067C8.26682 19.4 7.44016 17.4 7.44016 15.2V13.08C7.44016 12.5733 7.02682 12.16 6.50682 12.16C6.00016 12.16 5.58682 12.5733 5.58682 13.08V15.2C5.58682 17.9067 6.62682 20.3733 8.32016 22.2267L2.96016 27.5867C2.56016 27.9867 2.56016 28.64 2.96016 29.04C3.17349 29.2267 3.42682 29.3333 3.69349 29.3333C3.96016 29.3333 4.21349 29.2267 4.41349 29.0267L29.0268 4.41334C29.4402 4.01334 29.4402 3.37334 29.0268 2.97334Z" fill="white"/>
</svg>
