<svg width="32" height="32" viewBox="0 0 32 32" fill="none" xmlns="http://www.w3.org/2000/svg">
<path d="M28.2007 8.22634C27.654 7.93301 26.5073 7.62634 24.9473 8.71967L22.9873 10.1063C22.8407 5.95967 21.0407 4.33301 16.6673 4.33301H8.66732C4.10732 4.33301 2.33398 6.10634 2.33398 10.6663V21.333C2.33398 24.3997 4.00065 27.6663 8.66732 27.6663H16.6673C21.0407 27.6663 22.8407 26.0397 22.9873 21.893L24.9473 23.2797C25.774 23.8663 26.494 24.053 27.0673 24.053C27.5607 24.053 27.9473 23.9063 28.2007 23.773C28.7473 23.493 29.6673 22.733 29.6673 20.8263V11.173C29.6673 9.26634 28.7473 8.50634 28.2007 8.22634ZM14.6673 15.173C13.294 15.173 12.1607 14.053 12.1607 12.6663C12.1607 11.2797 13.294 10.1597 14.6673 10.1597C16.0407 10.1597 17.174 11.2797 17.174 12.6663C17.174 14.053 16.0407 15.173 14.6673 15.173Z" fill="#045C44"/>
<path d="M28.2007 8.22634C27.654 7.93301 26.5073 7.62634 24.9473 8.71967L22.9873 10.1063C22.8407 5.95967 21.0407 4.33301 16.6673 4.33301H8.66732C4.10732 4.33301 2.33398 6.10634 2.33398 10.6663V21.333C2.33398 24.3997 4.00065 27.6663 8.66732 27.6663H16.6673C21.0407 27.6663 22.8407 26.0397 22.9873 21.893L24.9473 23.2797C25.774 23.8663 26.494 24.053 27.0673 24.053C27.5607 24.053 27.9473 23.9063 28.2007 23.773C28.7473 23.493 29.6673 22.733 29.6673 20.8263V11.173C29.6673 9.26634 28.7473 8.50634 28.2007 8.22634ZM14.6673 15.173C13.294 15.173 12.1607 14.053 12.1607 12.6663C12.1607 11.2797 13.294 10.1597 14.6673 10.1597C16.0407 10.1597 17.174 11.2797 17.174 12.6663C17.174 14.053 16.0407 15.173 14.6673 15.173Z" fill="url(#paint0_linear_977_22491)"/>
<defs>
<linearGradient id="paint0_linear_977_22491" x1="16.0007" y1="4.33301" x2="16.0007" y2="27.6663" gradientUnits="userSpaceOnUse">
<stop stop-color="#1DB954"/>
<stop offset="1" stop-color="#0D5326"/>
</linearGradient>
</defs>
</svg>
