<svg width="21" height="20" viewBox="0 0 21 20" fill="none" xmlns="http://www.w3.org/2000/svg">
<path d="M5.25 4.99886H8.98125C9.25406 4.98292 14.0081 4.64823 18.5353 0.851359C18.7539 0.667752 19.0204 0.550347 19.3034 0.512936C19.5865 0.475524 19.8743 0.51966 20.1331 0.640159C20.3919 0.760657 20.611 0.952513 20.7645 1.19319C20.9181 1.43387 20.9998 1.71337 21 1.99886L21 16.9989C21 17.2844 20.9184 17.5641 20.7649 17.8049C20.6114 18.0457 20.3924 18.2377 20.1335 18.3583C19.8747 18.4789 19.5868 18.5231 19.3037 18.4858C19.0206 18.4484 18.754 18.331 18.5353 18.1473C14.9944 15.1773 11.3166 14.326 9.75 14.0879V17.0617C9.75031 17.3088 9.68954 17.5523 9.57309 17.7703C9.45664 17.9883 9.28811 18.1742 9.0825 18.3114L8.05125 18.9985C7.85192 19.1316 7.62362 19.2149 7.38546 19.2416C7.1473 19.2683 6.90622 19.2375 6.68241 19.1518C6.45859 19.0662 6.25855 18.9282 6.09904 18.7493C5.93954 18.5704 5.82521 18.356 5.76562 18.1239L4.66219 13.9651C3.5215 13.825 2.47765 13.2537 1.74473 12.3685C1.01181 11.4832 0.645365 10.3511 0.720547 9.20431C0.795731 8.0575 1.30684 6.98292 2.14906 6.20095C2.99128 5.41897 4.10077 4.98888 5.25 4.99886ZM7.21875 17.7385V17.7489L8.25 17.0617V13.9989H6.225L7.21875 17.7385ZM5.25 12.4989H8.25L8.25 6.49886H5.25C4.45435 6.49886 3.69129 6.81493 3.12868 7.37754C2.56607 7.94015 2.25 8.70321 2.25 9.49886C2.25 10.2945 2.56607 11.0576 3.12868 11.6202C3.69129 12.1828 4.45435 12.4989 5.25 12.4989Z" fill="black"/>
</svg>
