<svg width="24" height="25" viewBox="0 0 24 25" fill="none" xmlns="http://www.w3.org/2000/svg">
<path d="M9 7.5C9 6.39543 9.89543 5.5 11 5.5H13C14.1046 5.5 15 6.39543 15 7.5V18.5C15 19.0523 14.5523 19.5 14 19.5H10C9.44772 19.5 9 19.0523 9 18.5V7.5Z" fill="#1DB954"/>
<path d="M17 13.5C17 12.9477 17.4477 12.5 18 12.5H20C21.1046 12.5 22 13.3954 22 14.5V18.5C22 19.0523 21.5523 19.5 21 19.5H18C17.4477 19.5 17 19.0523 17 18.5V13.5Z" fill="#1DB954"/>
<path d="M2 12.5C2 11.3954 2.89543 10.5 4 10.5H6C6.55228 10.5 7 10.9477 7 11.5V18.5C7 19.0523 6.55228 19.5 6 19.5H3C2.44772 19.5 2 19.0523 2 18.5V12.5Z" fill="#1DB954"/>
</svg>
