<svg width="40" height="40" viewBox="0 0 40 40" fill="none" xmlns="http://www.w3.org/2000/svg">
<path d="M28.7832 16.1575L9.75922 27.6295C8.63922 28.3015 7.19922 27.5015 7.19922 26.1895V13.3895C7.19922 7.80548 13.2312 4.31748 18.0792 7.10148L25.4232 11.3255L28.7672 13.2455C29.8712 13.9015 29.8872 15.5015 28.7832 16.1575Z" fill="white"/>
<path d="M28.7832 16.1575L9.75922 27.6295C8.63922 28.3015 7.19922 27.5015 7.19922 26.1895V13.3895C7.19922 7.80548 13.2312 4.31748 18.0792 7.10148L25.4232 11.3255L28.7672 13.2455C29.8712 13.9015 29.8872 15.5015 28.7832 16.1575Z" fill="url(#paint0_linear_4549_34857)"/>
<path d="M7.19922 9.29022V29.1086C7.19922 33.1676 11.7754 35.7148 15.4278 33.6853L24.3439 28.7359L33.2599 23.7657C36.9123 21.7363 36.9123 16.6626 33.2599 14.6331L24.3439 9.66298L15.4278 4.71356C11.7754 2.68408 7.19922 5.21057 7.19922 9.29022Z" fill="white"/>
<path d="M7.19922 9.29022V29.1086C7.19922 33.1676 11.7754 35.7148 15.4278 33.6853L24.3439 28.7359L33.2599 23.7657C36.9123 21.7363 36.9123 16.6626 33.2599 14.6331L24.3439 9.66298L15.4278 4.71356C11.7754 2.68408 7.19922 5.21057 7.19922 9.29022Z" fill="url(#paint1_linear_4549_34857)"/>
<defs>
<linearGradient id="paint0_linear_4549_34857" x1="18.4012" y1="6.12305" x2="18.4012" y2="27.8725" gradientUnits="userSpaceOnUse">
<stop stop-color="#1DB954"/>
<stop offset="1" stop-color="#0D5326"/>
</linearGradient>
<linearGradient id="paint1_linear_4549_34857" x1="21.5992" y1="3.99805" x2="21.5992" y2="34.398" gradientUnits="userSpaceOnUse">
<stop stop-color="#1DB954"/>
<stop offset="1" stop-color="#0D5326"/>
</linearGradient>
</defs>
</svg>
