<svg width="26" height="27" viewBox="0 0 26 27" fill="none" xmlns="http://www.w3.org/2000/svg">
<path d="M13.0013 23.0515C20.0374 23.0515 25.74 18.4188 25.74 12.7013C25.74 6.98378 20.0374 2.35107 13.0013 2.35107C5.96516 2.35107 0.262595 6.98378 0.262595 12.7013C0.262595 14.9455 1.14336 17.0205 2.63618 18.7173C2.54163 19.9365 2.0689 21.0212 1.5713 21.8473C1.29761 22.3051 1.01896 22.6733 0.814938 22.9221C0.71044 23.0465 0.630825 23.141 0.571112 23.2057C0.541257 23.2356 0.521351 23.2605 0.506421 23.2754L0.491497 23.2903C0.262595 23.5192 0.197905 23.8576 0.322309 24.1562C0.446708 24.4547 0.735323 24.6488 1.05876 24.6488C2.4869 24.6488 3.92497 24.2059 5.11923 23.6884C6.25874 23.1908 7.22908 22.5986 7.82123 22.1657C9.40362 22.738 11.1552 23.0564 13.0013 23.0564V23.0515ZM5.03961 11.3478C5.03961 10.3376 5.86066 9.5166 6.8708 9.5166H7.8262C8.2641 9.5166 8.62237 9.87487 8.62237 10.3128C8.62237 10.7507 8.2641 11.1089 7.8262 11.1089H6.8708C6.73645 11.1089 6.63195 11.2184 6.63195 11.3478C6.63195 11.4274 6.67176 11.502 6.74142 11.5468L8.20438 12.5221C8.71692 12.8605 9.02046 13.4328 9.02046 14.0498C9.02046 15.0599 8.19941 15.881 7.18927 15.881H5.83578C5.39788 15.881 5.03961 15.5227 5.03961 15.0848C5.03961 14.6469 5.39788 14.2886 5.83578 14.2886H7.18927C7.32362 14.2886 7.42812 14.1792 7.42812 14.0498C7.42812 13.9702 7.38831 13.8955 7.31865 13.8507L5.85568 12.8754C5.34812 12.5371 5.03961 11.9648 5.03961 11.3478ZM18.8133 9.5166H19.7687C20.2066 9.5166 20.5649 9.87487 20.5649 10.3128C20.5649 10.7507 20.2066 11.1089 19.7687 11.1089H18.8133C18.679 11.1089 18.5745 11.2184 18.5745 11.3478C18.5745 11.4274 18.6143 11.502 18.684 11.5468L20.1469 12.5221C20.6545 12.8605 20.963 13.4328 20.963 14.0498C20.963 15.0599 20.1419 15.881 19.1318 15.881H17.7783C17.3404 15.881 16.9821 15.5227 16.9821 15.0848C16.9821 14.6469 17.3404 14.2886 17.7783 14.2886H19.1318C19.2662 14.2886 19.3707 14.1792 19.3707 14.0498C19.3707 13.9702 19.3308 13.8955 19.2612 13.8507L17.7982 12.8754C17.2907 12.5371 16.9821 11.9648 16.9821 11.3478C16.9821 10.3376 17.8032 9.5166 18.8133 9.5166ZM11.2497 9.83506L13.0013 12.1688L14.7529 9.83506C14.9569 9.56138 15.3152 9.44693 15.6436 9.55641C15.972 9.66588 16.186 9.96942 16.186 10.3128V15.0898C16.186 15.5277 15.8277 15.8859 15.3898 15.8859C14.9519 15.8859 14.5936 15.5277 14.5936 15.0898V12.7013L13.6382 13.9751C13.489 14.1742 13.2501 14.2936 13.0013 14.2936C12.7525 14.2936 12.5136 14.1742 12.3644 13.9751L11.409 12.7013V15.0898C11.409 15.5277 11.0507 15.8859 10.6128 15.8859C10.1749 15.8859 9.81662 15.5277 9.81662 15.0898V10.3128C9.81662 9.96942 10.0356 9.66588 10.359 9.55641C10.6825 9.44693 11.0407 9.56138 11.2497 9.83506Z" fill="#FF396E"/>
</svg>
