<svg width="42" height="42" viewBox="0 0 42 42" fill="none" xmlns="http://www.w3.org/2000/svg">
<path d="M35.4375 0H6.5625C2.93813 0 0 2.93813 0 6.5625V35.4375C0 39.0619 2.93813 42 6.5625 42H35.4375C39.0619 42 42 39.0619 42 35.4375V6.5625C42 2.93813 39.0619 0 35.4375 0Z" fill="#FF0000"/>
<path d="M30.975 15.8797C30.7125 14.9609 30.0563 14.3047 29.1375 14.0422C27.5625 13.6484 20.8687 13.6484 20.8687 13.6484C20.8687 13.6484 14.3063 13.6484 12.6 14.0422C11.6813 14.3047 11.025 14.9609 10.7625 15.8797C10.5 17.5859 10.5 20.9984 10.5 20.9984C10.5 20.9984 10.5 24.4109 10.8938 26.1172C11.1563 27.0359 11.8125 27.6922 12.7312 27.9547C14.3062 28.3484 21 28.3484 21 28.3484C21 28.3484 27.5625 28.3484 29.2687 27.9547C30.1875 27.6922 30.8438 27.0359 31.1063 26.1172C31.5 24.4109 31.5 20.9984 31.5 20.9984C31.5 20.9984 31.5 17.5859 30.975 15.8797ZM18.9 24.1484V17.8484L24.4125 20.9984L18.9 24.1484Z" fill="white"/>
</svg>
