<svg width="80" height="80" viewBox="0 0 80 80" fill="none" xmlns="http://www.w3.org/2000/svg">
<rect width="80" height="80" rx="8" fill="#FFBC99"/>
<path d="M34.9974 26.6657C35.4576 26.6657 35.8307 26.2926 35.8307 25.8324C35.8307 25.3721 35.4576 24.999 34.9974 24.999C34.5372 24.999 34.1641 25.3721 34.1641 25.8324C34.1641 26.2926 34.5372 26.6657 34.9974 26.6657Z" fill="black"/>
<path d="M39.9974 26.6657C40.4576 26.6657 40.8307 26.2926 40.8307 25.8324C40.8307 25.3721 40.4576 24.999 39.9974 24.999C39.5372 24.999 39.1641 25.3721 39.1641 25.8324C39.1641 26.2926 39.5372 26.6657 39.9974 26.6657Z" fill="black"/>
<path d="M39.9961 29.166H38.3294C38.3294 29.626 37.9561 29.9993 37.4961 29.9993C37.0361 29.9993 36.6628 29.626 36.6628 29.166H34.9961C34.9961 30.5443 36.1178 31.666 37.4961 31.666C38.8744 31.666 39.9961 30.5443 39.9961 29.166Z" fill="black"/>
<path d="M63.3307 49.9993V48.3327H61.6641V49.9993H59.9974V48.3327H58.3307V50.0452C58.0799 50.0852 57.8332 50.1493 57.6066 50.2627L56.4674 50.8327H51.6641L51.6649 43.671C51.6649 41.0893 50.5274 38.661 48.5441 37.0085C46.9891 35.7127 45.0174 34.9993 42.9941 34.9993H40.8291V34.0977C42.3524 33.2135 43.4916 31.7452 43.9432 29.9993H44.1624C46.0007 29.9993 47.4957 28.5043 47.4957 26.666C47.4957 25.7568 47.1282 24.9335 46.5357 24.331L46.8624 23.7868C47.2774 23.0952 47.4966 22.3035 47.4966 21.4968C47.4966 19.7552 46.4724 18.1643 44.8866 17.4435L39.0232 14.7785C38.1299 14.3718 37.1799 14.166 36.1991 14.166C33.7532 14.166 31.5391 15.4435 30.3124 17.5393C28.7191 17.7893 27.4966 19.171 27.4966 20.8327V21.076C27.4966 21.591 27.6182 22.1068 27.8491 22.5668L28.6482 24.1652C27.9482 24.7768 27.4957 25.6652 27.4957 26.666C27.4957 28.5043 28.9907 29.9993 30.8291 29.9993H31.0482C31.4999 31.7452 32.6399 33.2135 34.1641 34.0985V34.9993H31.1257C29.1316 34.9993 27.1841 35.6943 25.6391 36.956L19.7749 41.7477C18.7424 42.386 18.0024 43.3968 17.6799 44.5435C15.4782 46.3393 14.1641 49.076 14.1641 51.9435V56.3885C14.1641 58.9318 15.1991 61.4143 17.0041 63.1993C18.7232 64.9002 20.9666 65.8327 23.3324 65.8327C23.3649 65.8327 23.3974 65.8318 23.4307 65.8318C25.4907 65.8102 27.4307 65.1168 29.0416 63.8268C29.7416 63.266 30.6832 63.1293 31.4982 63.4677C32.8057 64.0127 34.1941 64.2418 35.6157 64.1452C39.3882 63.8935 42.6466 61.1977 43.7566 57.4985H44.9974V58.3318C44.9974 59.7102 46.1191 60.8318 47.4974 60.8318H49.1641C50.5424 60.8318 51.6641 59.7102 51.6641 58.3318V57.4985H56.4674L57.6066 58.0685C57.8332 58.1818 58.0799 58.246 58.3307 58.286V59.9993H59.9974V58.3327H61.6641V59.9993H63.3307V58.3327C64.7091 58.3327 65.8307 57.211 65.8307 55.8327V52.4993C65.8307 51.121 64.7091 49.9993 63.3307 49.9993ZM46.6641 49.166H49.9974V50.8327H46.6641V49.166ZM47.4774 38.2893C49.0799 39.6243 49.9982 41.586 49.9982 43.671L49.9974 47.4993H46.6641V44.166H44.9974V50.8327H43.7574C42.6474 47.1343 39.3891 44.4377 35.6166 44.186C35.2391 44.161 34.8649 44.1627 34.4924 44.1827L37.4974 41.1777L41.4674 45.1477L42.4099 36.666H42.9932C44.6291 36.666 46.2207 37.2418 47.4774 38.2893ZM29.9974 48.3327C29.4932 48.3327 29.0007 48.4135 28.5191 48.5402L25.5099 45.911L26.6366 44.9577C27.1166 45.196 27.5782 45.4693 27.9999 45.8069C29.1749 46.7494 30.7607 46.9794 32.1399 46.4035C33.2066 45.9593 34.3407 45.7735 35.5057 45.851C38.4216 46.0443 40.9616 48.0427 41.9982 50.8335H34.7774C33.7216 49.3235 31.9741 48.3327 29.9974 48.3327ZM27.1466 55.9402C27.7191 56.4077 28.4407 56.666 29.1799 56.666H29.2899C31.0591 56.666 32.4982 55.2268 32.4982 53.4577C32.4982 52.6218 32.1791 51.831 31.5991 51.2302L30.2149 50.021C32.4091 50.1368 34.1641 51.9427 34.1641 54.166C34.1641 56.4635 32.2949 58.3327 29.9974 58.3327C27.9599 58.3327 26.2657 56.8602 25.9074 54.9243L27.1466 55.9402ZM34.5274 36.666L36.4491 39.8702L34.8007 41.5177L34.2616 36.666H34.5274ZM40.4674 36.666H40.7324L40.1941 41.5168L38.5457 39.8693L40.4674 36.666ZM44.1624 28.3327V25.3435C44.1624 25.2268 44.1399 25.1143 44.1291 24.9993H44.1624C45.0816 24.9993 45.8291 25.7468 45.8291 26.666C45.8291 27.5852 45.0816 28.3327 44.1624 28.3327ZM29.3391 21.821C29.2241 21.5918 29.1632 21.3335 29.1632 21.076V20.8327C29.1632 19.9135 29.9107 19.166 30.8299 19.166L31.3566 19.1443L31.5866 18.6835C32.4657 16.9252 34.2332 15.8327 36.1991 15.8327C36.9407 15.8327 37.6582 15.9885 38.3332 16.2952L44.1966 18.9602C45.1882 19.411 45.8299 20.4068 45.8299 21.4968C45.8299 22.001 45.6924 22.4977 45.4332 22.9302L45.1007 23.4843C44.8016 23.3952 44.4907 23.3327 44.1624 23.3327H43.5616C43.4241 23.1235 43.2666 22.9252 43.0857 22.7435C42.4016 22.0593 41.4532 21.666 40.4849 21.666H34.5082C33.5257 21.666 32.6024 22.0485 31.9074 22.7427C31.7274 22.9218 31.5707 23.121 31.4332 23.3327H30.8291C30.5899 23.3327 30.3582 23.3602 30.1332 23.4085L29.3391 21.821ZM29.1624 26.666C29.1624 25.7468 29.9099 24.9993 30.8291 24.9993H30.8641C30.8532 25.1152 30.8291 25.2285 30.8291 25.3452V28.3327C29.9107 28.3327 29.1624 27.5852 29.1624 26.666ZM32.4957 28.3327V25.3452C32.4957 24.8152 32.7107 24.296 33.0857 23.9218C33.4657 23.5418 33.9716 23.3327 34.5082 23.3327H40.4849C41.0149 23.3327 41.5332 23.5477 41.9066 23.9218C42.2866 24.3018 42.4957 24.8068 42.4957 25.3435V28.3327C42.4957 31.0902 40.2532 33.3327 37.4957 33.3327C34.7382 33.3327 32.4957 31.0902 32.4957 28.3327ZM37.4957 34.9993C38.0724 34.9993 38.6282 34.9185 39.1624 34.7802V35.6018L37.4974 38.3793L35.8307 35.5993V34.7802C36.3641 34.9185 36.9199 34.9993 37.4957 34.9993ZM26.6932 38.246C27.9407 37.2277 29.5149 36.666 31.1257 36.666H32.5849L33.4341 44.3043C32.7741 44.4193 32.1274 44.6027 31.4999 44.8643C30.6832 45.2027 29.7432 45.0668 29.0424 44.5052C28.7157 44.2427 28.3707 44.006 28.0124 43.7927L29.7449 42.326L28.6674 41.0535L24.2399 44.801L21.5491 42.4493L26.6932 38.246ZM20.2107 43.4935L30.2607 52.2443L30.3991 52.3877C30.6766 52.6768 30.8307 53.0569 30.8307 53.4577C30.8307 54.3077 30.1391 54.9993 29.2891 54.9993H29.1791C28.8241 54.9993 28.4766 54.8752 28.2016 54.6502L20.8241 48.6043L20.7157 48.5293C19.7591 47.9702 19.1641 46.9343 19.1641 45.8268C19.1649 44.9327 19.5549 44.081 20.2107 43.4935ZM35.5057 62.4818C34.3407 62.5593 33.2066 62.3735 32.1391 61.9293C30.7599 61.3544 29.1741 61.5835 27.9999 62.526C26.6824 63.581 25.0966 64.1468 23.4124 64.1652C23.3857 64.1652 23.3591 64.166 23.3324 64.166C21.4082 64.166 19.5799 63.4035 18.1757 62.0143C16.6849 60.5402 15.8307 58.4893 15.8307 56.3885V51.9435C15.8307 50.0977 16.4849 48.3143 17.6316 46.916C17.8632 47.8977 18.3999 48.7852 19.1641 49.4477V59.166H20.8307V50.7635L24.2016 53.526C24.1782 53.7393 24.1641 53.9527 24.1641 54.166C24.1641 57.3818 26.7816 59.9993 29.9974 59.9993C31.9741 59.9993 33.7216 59.0085 34.7774 57.4993H41.9982C40.9616 60.291 38.4216 62.2885 35.5057 62.4818ZM49.9974 58.3327C49.9974 58.7927 49.6241 59.166 49.1641 59.166H47.4974C47.0374 59.166 46.6641 58.7927 46.6641 58.3327V57.4993C46.6641 56.5802 47.4116 55.8327 48.3307 55.8327C49.2499 55.8327 49.9974 56.5802 49.9974 57.4993V58.3327ZM64.1641 55.8327C64.1641 56.2927 63.7907 56.666 63.3307 56.666H58.7241C58.5957 56.666 58.4666 56.636 58.3524 56.5785L56.8607 55.8327H51.1999C50.6216 54.841 49.5582 54.166 48.3299 54.166C47.1016 54.166 46.0382 54.841 45.4599 55.8327H35.5849C35.7432 55.3043 35.8307 54.7452 35.8307 54.166C35.8307 53.5868 35.7432 53.0277 35.5849 52.4993H44.9974H51.6641H56.8607L58.3516 51.7535C58.4666 51.696 58.5949 51.666 58.7241 51.666H63.3307C63.7907 51.666 64.1641 52.0393 64.1641 52.4993V55.8327Z" fill="black"/>
</svg>
