<svg width="40" height="34" viewBox="0 0 40 34" fill="none" xmlns="http://www.w3.org/2000/svg">
<path d="M37.9433 4.33596C37.3343 4.08226 36.6636 4.01558 36.0165 4.1444C35.3695 4.27321 34.7754 4.5917 34.31 5.05929L30 9.36929L22.3567 1.72595C21.7316 1.10105 20.8839 0.75 20 0.75C19.1161 0.75 18.2684 1.10105 17.6433 1.72595L10 9.36929L5.69 5.05929C5.22383 4.59326 4.62995 4.2759 3.98344 4.14734C3.33693 4.01879 2.66682 4.0848 2.05782 4.33703C1.44882 4.58926 0.928276 5.01639 0.561995 5.56443C0.195714 6.11246 0.000140748 6.75679 0 7.41596L0 25.0593C0.00264643 27.2686 0.88147 29.3867 2.4437 30.9489C4.00593 32.5112 6.12401 33.39 8.33333 33.3926H31.6667C33.876 33.39 35.9941 32.5112 37.5563 30.9489C39.1185 29.3867 39.9974 27.2686 40 25.0593V7.41596C40.0002 6.75674 39.8049 6.11227 39.4388 5.56404C39.0727 5.01581 38.5523 4.58844 37.9433 4.33596Z" fill="url(#paint0_linear_11060_128216)"/>
<defs>
<linearGradient id="paint0_linear_11060_128216" x1="20" y1="0.75" x2="20" y2="27.976" gradientUnits="userSpaceOnUse">
<stop stop-color="#FFEF09"/>
<stop offset="1" stop-color="#DAA90A"/>
</linearGradient>
</defs>
</svg>
