<svg width="24" height="24" viewBox="0 0 24 24" fill="none" xmlns="http://www.w3.org/2000/svg">
<path opacity="0.4" d="M21.3689 11.3894V17.3794C21.3689 20.1394 19.1289 22.3794 16.3689 22.3794H7.62891C4.86891 22.3794 2.62891 20.1394 2.62891 17.3794V11.4594C3.38891 12.2794 4.46891 12.7494 5.63891 12.7494C6.89891 12.7494 8.10891 12.1194 8.86891 11.1094C9.54891 12.1194 10.7089 12.7494 11.9989 12.7494C13.2789 12.7494 14.4189 12.1494 15.1089 11.1494C15.8789 12.1394 17.0689 12.7494 18.3089 12.7494C19.5189 12.7494 20.6189 12.2594 21.3689 11.3894Z" fill="#292D32"/>
<path opacity="0.6" d="M22.3617 8.27L22.0717 5.5C21.6517 2.48 20.2817 1.25 17.3517 1.25H13.5117L14.2517 8.75C14.2617 8.85 14.2717 8.96 14.2717 9.15C14.3317 9.67 14.4917 10.15 14.7317 10.58C15.4517 11.9 16.8517 12.75 18.3117 12.75C19.6417 12.75 20.8417 12.16 21.5917 11.12C22.1917 10.32 22.4617 9.31 22.3617 8.27Z" fill="#292D32"/>
<path opacity="0.6" d="M6.58965 1.25C3.64965 1.25 2.28965 2.48 1.85965 5.53L1.58965 8.28C1.48965 9.35 1.77965 10.39 2.40965 11.2C3.16965 12.19 4.33965 12.75 5.63965 12.75C7.09965 12.75 8.49965 11.9 9.20965 10.6C9.46965 10.15 9.63965 9.63 9.68965 9.09L10.4697 1.26H6.58965V1.25Z" fill="#292D32"/>
<path d="M14.9913 1.25H8.99132L8.25132 8.61C8.19132 9.29 8.29132 9.93 8.54132 10.51C9.12132 11.87 10.4813 12.75 12.0013 12.75C13.5413 12.75 14.8713 11.89 15.4713 10.52C15.6513 10.09 15.7613 9.59 15.7713 9.08V8.89L14.9913 1.25Z" fill="#0D0D0D"/>
<path d="M11.3511 16.6602C10.0811 16.7902 9.12109 17.8702 9.12109 19.1502V22.3802H14.8711V19.5002C14.8811 17.4102 13.6511 16.4202 11.3511 16.6602Z" fill="#0D0D0D"/>
</svg>
