<svg width="22" height="22" viewBox="0 0 22 22" fill="none" xmlns="http://www.w3.org/2000/svg">
<path d="M11 0C8.82441 0 6.69767 0.645139 4.88873 1.85383C3.07979 3.06253 1.66989 4.78049 0.83733 6.79048C0.00476613 8.80047 -0.213071 11.0122 0.211367 13.146C0.635804 15.2798 1.68345 17.2398 3.22183 18.7782C4.76021 20.3165 6.72022 21.3642 8.85401 21.7886C10.9878 22.2131 13.1995 21.9952 15.2095 21.1627C17.2195 20.3301 18.9375 18.9202 20.1462 17.1113C21.3549 15.3023 22 13.1756 22 11C21.9964 8.08373 20.8363 5.28796 18.7742 3.22584C16.712 1.16373 13.9163 0.00363851 11 0ZM15.2308 11.8462H11.8462V15.2308C11.8462 15.4552 11.757 15.6704 11.5983 15.8291C11.4396 15.9878 11.2244 16.0769 11 16.0769C10.7756 16.0769 10.5604 15.9878 10.4017 15.8291C10.243 15.6704 10.1538 15.4552 10.1538 15.2308V11.8462H6.76923C6.54482 11.8462 6.3296 11.757 6.17091 11.5983C6.01223 11.4396 5.92308 11.2244 5.92308 11C5.92308 10.7756 6.01223 10.5604 6.17091 10.4017C6.3296 10.243 6.54482 10.1538 6.76923 10.1538H10.1538V6.76923C10.1538 6.54482 10.243 6.32959 10.4017 6.17091C10.5604 6.01222 10.7756 5.92308 11 5.92308C11.2244 5.92308 11.4396 6.01222 11.5983 6.17091C11.757 6.32959 11.8462 6.54482 11.8462 6.76923V10.1538H15.2308C15.4552 10.1538 15.6704 10.243 15.8291 10.4017C15.9878 10.5604 16.0769 10.7756 16.0769 11C16.0769 11.2244 15.9878 11.4396 15.8291 11.5983C15.6704 11.757 15.4552 11.8462 15.2308 11.8462Z" fill="black"/>
</svg>
