<svg width="21" height="17" viewBox="0 0 21 17" fill="none" xmlns="http://www.w3.org/2000/svg">
<path d="M17.625 4.75C17.625 4.9725 17.559 5.19001 17.4354 5.37502C17.3118 5.56002 17.1361 5.70422 16.9305 5.78936C16.725 5.87451 16.4988 5.89679 16.2805 5.85338C16.0623 5.80998 15.8618 5.70283 15.7045 5.5455C15.5472 5.38816 15.44 5.18771 15.3966 4.96948C15.3532 4.75125 15.3755 4.52505 15.4606 4.31948C15.5458 4.11391 15.69 3.93821 15.875 3.8146C16.06 3.69098 16.2775 3.625 16.5 3.625C16.7984 3.625 17.0845 3.74353 17.2955 3.9545C17.5065 4.16548 17.625 4.45163 17.625 4.75ZM16.5 11.125C16.2775 11.125 16.06 11.191 15.875 11.3146C15.69 11.4382 15.5458 11.6139 15.4606 11.8195C15.3755 12.025 15.3532 12.2512 15.3966 12.4695C15.44 12.6877 15.5472 12.8882 15.7045 13.0455C15.8618 13.2028 16.0623 13.31 16.2805 13.3534C16.4988 13.3968 16.725 13.3745 16.9305 13.2894C17.1361 13.2042 17.3118 13.06 17.4354 12.875C17.559 12.69 17.625 12.4725 17.625 12.25C17.625 11.9516 17.5065 11.6655 17.2955 11.4545C17.0845 11.2435 16.7984 11.125 16.5 11.125ZM7.5 6.25C7.20333 6.25 6.91332 6.33797 6.66665 6.5028C6.41997 6.66762 6.22771 6.90189 6.11418 7.17597C6.00065 7.45006 5.97094 7.75166 6.02882 8.04264C6.0867 8.33361 6.22956 8.60088 6.43934 8.81066C6.64912 9.02044 6.91639 9.1633 7.20736 9.22118C7.49834 9.27906 7.79994 9.24935 8.07403 9.13582C8.34811 9.02229 8.58238 8.83003 8.7472 8.58336C8.91203 8.33668 9 8.04667 9 7.75C9 7.35218 8.84196 6.97064 8.56066 6.68934C8.27936 6.40804 7.89782 6.25 7.5 6.25ZM20.25 1.75V15.25C20.25 15.6478 20.092 16.0294 19.8107 16.3107C19.5294 16.592 19.1478 16.75 18.75 16.75H2.25C1.85218 16.75 1.47064 16.592 1.18934 16.3107C0.908035 16.0294 0.75 15.6478 0.75 15.25V1.75C0.75 1.35218 0.908035 0.970644 1.18934 0.68934C1.47064 0.408035 1.85218 0.25 2.25 0.25H18.75C19.1478 0.25 19.5294 0.408035 19.8107 0.68934C20.092 0.970644 20.25 1.35218 20.25 1.75ZM14.25 7.75H18.75V1.75H14.25V7.75ZM11.2266 12.0625C10.9839 11.1563 10.4084 10.375 9.615 9.87438C10.0363 9.45553 10.3238 8.92102 10.441 8.33859C10.5582 7.75616 10.4999 7.15205 10.2733 6.60283C10.0468 6.05361 9.6623 5.58402 9.16857 5.25358C8.67483 4.92315 8.0941 4.74675 7.5 4.74675C6.9059 4.74675 6.32517 4.92315 5.83143 5.25358C5.3377 5.58402 4.95319 6.05361 4.72666 6.60283C4.50012 7.15205 4.44175 7.75616 4.55896 8.33859C4.67616 8.92102 4.96366 9.45553 5.385 9.87438C4.59211 10.3755 4.01681 11.1566 3.77344 12.0625C3.72371 12.2552 3.75257 12.4598 3.85366 12.6312C3.95475 12.8026 4.1198 12.9268 4.3125 12.9766C4.5052 13.0263 4.70975 12.9974 4.88118 12.8963C5.05259 12.7952 5.17683 12.6302 5.22656 12.4375C5.47406 11.4766 6.45094 10.75 7.5 10.75C8.54906 10.75 9.52687 11.4747 9.77344 12.4375C9.82317 12.6302 9.9474 12.7952 10.1188 12.8963C10.2902 12.9974 10.4948 13.0263 10.6875 12.9766C10.8802 12.9268 11.0452 12.8026 11.1463 12.6312C11.2474 12.4598 11.2763 12.2552 11.2266 12.0625ZM18.75 15.25V9.25H14.25V15.25H18.75Z" fill="black"/>
</svg>
