<svg width="16" height="17" viewBox="0 0 16 17" fill="none" xmlns="http://www.w3.org/2000/svg">
<path d="M8.00323 15.1684C4.32132 15.1684 1.33655 12.1837 1.33655 8.50178C1.33655 4.81991 4.32132 1.83514 8.00323 1.83514C11.6851 1.83514 14.6699 4.81991 14.6699 8.50178C14.6699 12.1837 11.6851 15.1684 8.00323 15.1684ZM8.00323 13.8351C10.9488 13.8351 13.3366 11.4473 13.3366 8.50178C13.3366 5.55629 10.9488 3.16848 8.00323 3.16848C5.05769 3.16848 2.66988 5.55629 2.66988 8.50178C2.66988 11.4473 5.05769 13.8351 8.00323 13.8351ZM8.00323 5.20198L11.303 8.50178L8.00323 11.8016L4.70339 8.50178L8.00323 5.20198ZM8.00323 7.0876L6.589 8.50178L8.00323 9.91604L9.41743 8.50178L8.00323 7.0876Z" fill="#1DB954"/>
</svg>
