<svg width="12" height="20" viewBox="0 0 12 20" fill="none" xmlns="http://www.w3.org/2000/svg">
<path d="M5.99978 0.666992C2.74645 0.666992 0.106445 3.30699 0.106445 6.56033L0.106445 13.387C0.106445 16.6403 2.74645 19.2803 5.99978 19.2803C9.25311 19.2803 11.8931 16.6403 11.8931 13.387V6.56033C11.8931 3.30699 9.25311 0.666992 5.99978 0.666992ZM7.74645 9.93366C7.65311 10.2803 7.34645 10.507 6.99978 10.507C6.93311 10.507 6.86645 10.4937 6.79978 10.4803C6.27978 10.3337 5.73311 10.3337 5.21311 10.4803C4.78645 10.6003 4.37311 10.347 4.26645 9.93366C4.14645 9.52033 4.39978 9.09366 4.81311 8.98699C5.59978 8.77366 6.42645 8.77366 7.21311 8.98699C7.61311 9.09366 7.85311 9.52033 7.74645 9.93366ZM8.45311 7.34699C8.33311 7.66699 8.03978 7.85366 7.71978 7.85366C7.62645 7.85366 7.54645 7.84033 7.45311 7.81366C6.51978 7.46699 5.47978 7.46699 4.54645 7.81366C4.14645 7.96033 3.69311 7.74699 3.54645 7.34699C3.39978 6.94699 3.61311 6.49366 4.01311 6.36033C5.29311 5.89366 6.70645 5.89366 7.98645 6.36033C8.38645 6.50699 8.59978 6.94699 8.45311 7.34699Z" fill="#00ADE7"/>
<path d="M5.99978 0.666992C2.74645 0.666992 0.106445 3.30699 0.106445 6.56033L0.106445 13.387C0.106445 16.6403 2.74645 19.2803 5.99978 19.2803C9.25311 19.2803 11.8931 16.6403 11.8931 13.387V6.56033C11.8931 3.30699 9.25311 0.666992 5.99978 0.666992ZM7.74645 9.93366C7.65311 10.2803 7.34645 10.507 6.99978 10.507C6.93311 10.507 6.86645 10.4937 6.79978 10.4803C6.27978 10.3337 5.73311 10.3337 5.21311 10.4803C4.78645 10.6003 4.37311 10.347 4.26645 9.93366C4.14645 9.52033 4.39978 9.09366 4.81311 8.98699C5.59978 8.77366 6.42645 8.77366 7.21311 8.98699C7.61311 9.09366 7.85311 9.52033 7.74645 9.93366ZM8.45311 7.34699C8.33311 7.66699 8.03978 7.85366 7.71978 7.85366C7.62645 7.85366 7.54645 7.84033 7.45311 7.81366C6.51978 7.46699 5.47978 7.46699 4.54645 7.81366C4.14645 7.96033 3.69311 7.74699 3.54645 7.34699C3.39978 6.94699 3.61311 6.49366 4.01311 6.36033C5.29311 5.89366 6.70645 5.89366 7.98645 6.36033C8.38645 6.50699 8.59978 6.94699 8.45311 7.34699Z" fill="url(#paint0_linear_916_6839)"/>
<defs>
<linearGradient id="paint0_linear_916_6839" x1="5.99978" y1="0.666992" x2="5.99978" y2="19.2803" gradientUnits="userSpaceOnUse">
<stop stop-color="#1DB954"/>
<stop offset="1" stop-color="#0D5326"/>
</linearGradient>
</defs>
</svg>
