<svg width="22" height="18" viewBox="0 0 22 18" fill="none" xmlns="http://www.w3.org/2000/svg">
<path d="M20.4932 0.159818C19.9732 0.159818 19.5599 0.573151 19.5599 1.09315V3.19982C19.5599 7.91982 15.7199 11.7598 10.9999 11.7598C6.27991 11.7598 2.43991 7.91982 2.43991 3.19982L2.43991 1.07982C2.43991 0.559819 2.02658 0.146484 1.50658 0.146484C0.986576 0.146484 0.573242 0.559819 0.573242 1.07982L0.573242 3.18649C0.573242 8.61315 4.74658 13.0798 10.0666 13.5598V16.3998C10.0666 16.9198 10.4799 17.3332 10.9999 17.3332C11.5199 17.3332 11.9332 16.9198 11.9332 16.3998V13.5598C17.2399 13.0932 21.4266 8.61315 21.4266 3.18649V1.07982C21.4132 0.573152 20.9999 0.159818 20.4932 0.159818Z" fill="#00ADE7"/>
<path d="M20.4932 0.159818C19.9732 0.159818 19.5599 0.573151 19.5599 1.09315V3.19982C19.5599 7.91982 15.7199 11.7598 10.9999 11.7598C6.27991 11.7598 2.43991 7.91982 2.43991 3.19982L2.43991 1.07982C2.43991 0.559819 2.02658 0.146484 1.50658 0.146484C0.986576 0.146484 0.573242 0.559819 0.573242 1.07982L0.573242 3.18649C0.573242 8.61315 4.74658 13.0798 10.0666 13.5598V16.3998C10.0666 16.9198 10.4799 17.3332 10.9999 17.3332C11.5199 17.3332 11.9332 16.9198 11.9332 16.3998V13.5598C17.2399 13.0932 21.4266 8.61315 21.4266 3.18649V1.07982C21.4132 0.573152 20.9999 0.159818 20.4932 0.159818Z" fill="url(#paint0_linear_916_6838)"/>
<defs>
<linearGradient id="paint0_linear_916_6838" x1="10.9999" y1="0.146484" x2="10.9999" y2="17.3332" gradientUnits="userSpaceOnUse">
<stop stop-color="#1DB954"/>
<stop offset="1" stop-color="#0D5326"/>
</linearGradient>
</defs>
</svg>
    