<svg width="25" height="25" viewBox="0 0 25 25" fill="none" xmlns="http://www.w3.org/2000/svg">
<path d="M12.4707 22.5C17.9936 22.5 22.4707 18.0228 22.4707 12.5C22.4707 6.97715 17.9936 2.5 12.4707 2.5C6.94786 2.5 2.4707 6.97715 2.4707 12.5C2.4707 18.0228 6.94786 22.5 12.4707 22.5Z" fill="#0D0D0D"/>
<path d="M11.22 15.5298V9.4698C11.22 8.9898 11.02 8.7998 10.51 8.7998H9.21C8.7 8.7998 8.5 8.9898 8.5 9.4698V15.5298C8.5 16.0098 8.7 16.1998 9.21 16.1998H10.5C11.02 16.1998 11.22 16.0098 11.22 15.5298Z" fill="white"/>
<path d="M16.4991 15.5298V9.4698C16.4991 8.9898 16.2991 8.7998 15.7891 8.7998H14.4991C13.9891 8.7998 13.7891 8.9898 13.7891 9.4698V15.5298C13.7891 16.0098 13.9891 16.1998 14.4991 16.1998H15.7891C16.2991 16.1998 16.4991 16.0098 16.4991 15.5298Z" fill="white"/>
</svg>
